<svg width="713" height="362" viewBox="0 0 713 362" fill="none" xmlns="http://www.w3.org/2000/svg">
<g clip-path="url(#clip0_250_149)">
<path d="M649.252 167.925C649.252 167.925 644.281 135.992 620.67 116.876C620.67 116.876 614.261 111.615 606.657 108.423C598.979 105.405 590.72 104.706 590.72 104.706C560.467 101.933 534.631 121.349 534.631 121.349C513.674 135.876 509.212 159.458 508.752 166.133C508.293 172.809 507.488 181.341 507.488 181.341C506.191 191.337 501.025 200.985 501.025 200.985C493.919 213.186 496.371 229.612 496.371 229.612C496.625 237.804 495.016 248.826 495.016 248.826C492.697 263.86 496.415 270.082 496.415 270.082C500.437 278.578 514.904 294.185 514.904 294.185C518.938 300.433 527.224 303.902 527.224 303.902C527.224 303.902 535.581 307.196 542.83 305.533C542.83 305.533 564.082 304.44 572.891 301.158C572.891 301.158 579.896 299.294 588.719 286.902C588.719 286.902 595.252 277.882 601.15 272.189C601.15 272.189 614.366 262.127 617.784 248.43C617.784 248.43 620.813 237.911 626.855 229.846C626.855 229.846 632.23 223.171 636.557 218.067C640.884 212.964 654.135 192.953 649.252 167.925Z" fill="#F8DACE" stroke="#1D1D1B" stroke-width="0.836082" stroke-miterlimit="10"/>
<path d="M562.003 197.245C562.003 197.245 561.317 206.49 547.629 225.813C547.629 225.813 540.147 221.542 536.995 227.79C536.995 227.79 534.49 231.688 538.321 236.623" stroke="#1D1D1B" stroke-width="0.836082" stroke-miterlimit="10"/>
<path d="M540.298 237.43C540.298 237.43 536.977 231.114 541.842 235.139C541.842 235.139 543.414 236.187 543.532 240.434C543.532 240.434 543.671 244.408 550.221 247.301" stroke="#1D1D1B" stroke-width="0.836082" stroke-miterlimit="10"/>
<path d="M540.12 260.551C540.12 260.551 542.638 254.354 545.297 251.593" stroke="#1D1D1B" stroke-width="0.836082" stroke-miterlimit="10"/>
<path d="M516.65 257.824C516.757 257.561 519.374 254.726 519.91 257.404C519.91 257.404 517.654 259.388 520.679 264.545" stroke="#1D1D1B" stroke-width="0.836082" stroke-miterlimit="10"/>
<path d="M533.958 275.714C533.958 275.714 535.275 276.761 536.909 277.527" stroke="#1D1D1B" stroke-width="0.836082" stroke-miterlimit="10"/>
<path d="M528.2 278.29C528.483 278.098 533.97 278.995 536.793 280.347" stroke="#1D1D1B" stroke-width="0.836082" stroke-miterlimit="10"/>
<path d="M532.72 283.3C532.72 283.3 534.14 283.366 535.328 283.951" stroke="#1D1D1B" stroke-width="0.836082" stroke-miterlimit="10"/>
<path d="M520.978 281.702C520.978 281.702 519.676 282.293 518.266 283.431" stroke="#1D1D1B" stroke-width="0.836082" stroke-miterlimit="10"/>
<path d="M575.546 146.527C575.546 146.527 579.072 149.19 583.983 149.956" stroke="#1D1D1B" stroke-width="0.836082" stroke-miterlimit="10"/>
<path d="M560.014 150.354C560.014 150.354 569.349 153.84 574.537 157.329C574.537 157.329 580.15 160.684 584.832 162.126" stroke="#1D1D1B" stroke-width="0.836082" stroke-miterlimit="10"/>
<path d="M541.544 159.132C541.573 158.683 550.02 155.663 571.407 168.809C571.407 168.809 574.811 170.64 580.442 172.929" stroke="#1D1D1B" stroke-width="0.836082" stroke-miterlimit="10"/>
<path d="M523.157 186.992C523.157 186.992 537.191 191.774 550.889 199.645C550.889 199.645 552.394 200.103 552.068 196.746C552.068 196.746 546.82 185.089 532.927 183.745C532.927 183.745 520.991 182.12 523.156 186.995L523.157 186.992Z" fill="white" stroke="#1D1D1B" stroke-width="0.836082" stroke-miterlimit="10"/>
<path d="M523.581 184.297C523.581 184.297 521.493 184.667 520.025 184.498C520.025 184.498 521.635 185.26 523.012 187.357" fill="#1D1D1B"/>
<path d="M547.065 200.543C548.277 200.307 549.55 200.009 550.89 199.645" stroke="#1D1D1B" stroke-width="0.836082" stroke-miterlimit="10"/>
<path d="M531.126 199.369C534.049 200.852 538.045 201.664 543.503 201.084C543.692 201.064 543.881 201.042 544.074 201.018" stroke="#1D1D1B" stroke-width="0.836082" stroke-miterlimit="10"/>
<path d="M523.157 186.992C523.157 186.992 523.246 189.498 524.555 192.413" stroke="#1D1D1B" stroke-width="0.836082" stroke-miterlimit="10"/>
<path d="M535.18 205.183C539.006 205.489 544.38 204.885 550.301 201.093" stroke="#1D1D1B" stroke-width="0.836082" stroke-miterlimit="10"/>
<path d="M521.691 189.468C521.691 189.468 518.805 195.927 525.451 201.344" stroke="#1D1D1B" stroke-width="0.836082" stroke-miterlimit="10"/>
<path d="M523.512 182.528C523.512 182.528 526.407 182.399 530.977 180.414C530.977 180.414 538.919 177.267 545.543 180.65C545.543 180.65 556.08 185.931 553.374 197.505" stroke="#1D1D1B" stroke-width="0.836082" stroke-miterlimit="10"/>
<path d="M521.843 178.7C521.843 178.7 533.026 179.532 538.617 179.106C538.617 179.106 546.578 179.074 552.375 184.272C552.375 184.272 558.316 189.682 562.306 180.627" stroke="#1D1D1B" stroke-width="0.836082" stroke-miterlimit="10"/>
<path d="M554.237 199.158C554.237 199.158 561.963 194.13 552.375 184.269" stroke="#1D1D1B" stroke-width="0.836082" stroke-miterlimit="10"/>
<path d="M519.808 177C519.808 177 516.997 170.97 525.991 166.788" stroke="#1D1D1B" stroke-width="0.836082" stroke-miterlimit="10"/>
<path d="M524.613 174.525C524.255 174.71 528.818 174.008 532.118 172.121C532.118 172.121 538.672 168.563 547.829 174.049C547.829 174.049 554.374 178.063 557.119 181.101C557.119 181.101 551.712 170.023 539.83 167.881C539.83 167.881 533.702 167.082 529.692 170.903C529.692 170.903 527.34 173.1 524.612 174.521L524.613 174.525Z" fill="#A19490" stroke="#1D1D1B" stroke-width="0.836082" stroke-miterlimit="10"/>
<path d="M514.985 261.167C514.985 261.167 510.489 252.198 519.55 240.671C519.55 240.671 524.867 234.961 527.749 233.539C527.749 233.539 533.227 230.251 536.834 225.728" stroke="#1D1D1B" stroke-width="0.836082" stroke-miterlimit="10"/>
<path d="M511.936 238.807C511.936 238.807 514.943 239.722 516.588 238.7" stroke="#1D1D1B" stroke-width="0.836082" stroke-miterlimit="10"/>
<path d="M509.701 246.195C509.701 246.195 513.475 242.2 516.549 240.684" stroke="#1D1D1B" stroke-width="0.836082" stroke-miterlimit="10"/>
<path d="M512.245 273.344C510.973 277.111 509.891 282.408 511.538 287.033" stroke="#1D1D1B" stroke-width="0.836082" stroke-miterlimit="10"/>
<path d="M514.364 268.366C514.364 268.366 513.864 269.27 513.235 270.753" stroke="#1D1D1B" stroke-width="0.836082" stroke-miterlimit="10"/>
<path d="M657.841 139.305C657.841 139.305 650.767 127.057 638.121 122.235C638.121 122.235 633.725 120.099 630.924 116.449C630.924 116.449 628.087 107.352 610.068 100.029C592.049 92.7072 583.67 97.2473 583.67 97.2473C579.115 97.9081 574.477 96.3726 574.477 96.3726C562.051 91.0042 548.44 94.8501 548.44 94.8501C519.893 103.589 513.342 143.193 513.342 143.193C510.272 157.834 502.692 169.402 502.692 169.402C498.959 182.691 508.061 175.067 508.061 175.067C508.251 173.059 508.442 170.962 508.603 169.018C509.17 162.152 514 137.843 535.054 122.565C535.054 122.565 540.606 118.208 549.541 113.756C549.541 113.756 556.506 111.156 559.605 110.984C559.605 110.984 574.063 110.821 577.562 106.681C577.562 106.681 579.162 115.595 582.193 119.049C582.193 119.049 582.874 115.99 584.604 114.151C584.604 114.151 585.14 118.978 586.201 120.838C586.201 120.838 587.908 116.763 589.371 116.088C589.371 116.088 589.695 121.938 592.925 124.048C592.925 124.048 594.184 121.699 596.24 119.993C596.24 119.993 596.51 125.821 598.594 128.259C601.786 127.968 606.046 123.977 606.046 123.977C606.329 126.634 605.592 129.196 605.592 129.196C609.381 129.941 613.692 125.971 613.692 125.971C614.266 127.477 612.65 131.585 612.65 131.585C614.708 130.993 618.458 127.908 618.458 127.908C618.416 130.433 616.77 133.1 616.77 133.1C621.351 132.738 628.715 127.467 628.715 127.467C628.335 132.875 638.581 143.076 638.581 143.076C640.683 145.359 643.859 152.082 643.859 152.082C647.153 161.504 648.095 168.499 648.095 168.499C652.525 194.133 639.03 214.921 634.647 220.236C633.406 221.742 632.081 223.375 630.816 224.949C630.816 224.949 632.02 236.761 638.614 224.634C638.614 224.634 641.252 211.059 649.265 198.425C649.265 198.425 672.198 165.478 657.835 139.303L657.841 139.305Z" fill="#A19490" stroke="#1D1D1B" stroke-width="0.836082" stroke-miterlimit="10"/>
<path d="M508.059 171.194C507.657 176.136 507.243 180.522 507.243 180.522C505.946 190.518 500.78 200.166 500.78 200.166C497.029 206.608 495.941 214.23 495.751 219.99C495.751 219.99 494.173 218.07 492.077 219.778C492.077 219.778 488.49 223.645 485.313 221.638C485.313 221.638 481.075 220.223 485.609 212.848C485.609 212.848 487.757 209.828 486.772 203.183C486.772 203.183 483.733 192.015 487.162 183.577C487.162 183.577 488.21 162.599 500.569 163.936C500.569 163.936 507.572 164.228 508.041 170.844L508.061 171.195L508.059 171.194Z" fill="#F8DACE" stroke="#1D1D1B" stroke-width="0.836082" stroke-miterlimit="10"/>
<path d="M539.761 193.814C541.68 194.594 543.868 193.671 544.648 191.751C545.428 189.832 544.505 187.644 542.585 186.864C540.666 186.084 538.478 187.008 537.698 188.927C536.918 190.846 537.842 193.034 539.761 193.814Z" fill="#76BDCF" stroke="#1D1D1B" stroke-width="0.836082" stroke-miterlimit="10"/>
<path d="M540.385 192.344C541.462 192.782 542.689 192.264 543.127 191.187C543.564 190.11 543.046 188.883 541.97 188.446C540.893 188.008 539.666 188.526 539.228 189.603C538.791 190.679 539.309 191.907 540.385 192.344Z" fill="#1D1D1B"/>
<path d="M539.693 188.429C540.022 188.563 540.339 188.55 540.4 188.4C540.46 188.251 540.243 188.021 539.913 187.887C539.584 187.753 539.268 187.766 539.207 187.916C539.146 188.065 539.364 188.295 539.693 188.429Z" fill="white"/>
<path d="M542.122 193.388C542.512 193.264 542.78 193.011 542.72 192.823C542.66 192.636 542.295 192.584 541.905 192.709C541.515 192.833 541.248 193.086 541.307 193.274C541.367 193.462 541.732 193.513 542.122 193.388Z" fill="white"/>
<path d="M576.694 203.215C576.694 203.215 570.736 210.318 567.066 233.711C567.066 233.711 575.406 235.87 573.307 242.546C573.307 242.546 572.383 247.086 566.195 247.95" stroke="#1D1D1B" stroke-width="0.836082" stroke-miterlimit="10"/>
<path d="M564.217 247.149C564.217 247.149 571.002 244.939 564.708 244.431C564.708 244.431 562.851 244.085 559.803 247.046C559.803 247.046 556.932 249.796 550.221 247.301" stroke="#1D1D1B" stroke-width="0.836082" stroke-miterlimit="10"/>
<path d="M548.217 263.841C548.217 263.841 550.735 257.644 550.755 253.811" stroke="#1D1D1B" stroke-width="0.836082" stroke-miterlimit="10"/>
<path d="M564.851 275.392C557.998 274.846 553.891 270.295 553.891 270.295C550.938 265.717 546.648 265.814 546.648 265.814C544.928 266.138 542.721 265.756 542.721 265.756C542.721 265.756 540.873 264.494 539.867 263.059C539.867 263.059 536.862 259.994 531.552 261.218C531.552 261.218 525.435 261.614 520.143 257.225C520.017 257.12 519.838 257.258 519.907 257.406C520.417 258.489 521.595 260.712 523.128 261.789L541.15 269.624L559.528 276.581C561.378 276.878 563.773 276.106 564.894 275.687C565.047 275.628 565.013 275.407 564.851 275.392Z" fill="#E89C9C" stroke="#1D1D1B" stroke-width="0.836082" stroke-miterlimit="10"/>
<path d="M554.148 273.266C554.148 273.266 548.701 268.697 544.596 268.976C544.596 268.976 543.069 269.173 541.581 268.569C540.094 267.965 539.138 266.758 539.138 266.758C536.388 263.694 529.3 263.169 529.3 263.169C524.903 262.818 520.105 257.799 520.105 257.799C520.105 257.799 523.295 267.693 537.462 270.89C537.462 270.89 538.97 270.991 540.333 271.648C541.771 272.13 542.92 273.108 542.92 273.108C555.298 280.698 564.488 275.835 564.488 275.835C564.488 275.835 557.547 276.082 554.153 273.269L554.148 273.266Z" fill="#E89C9C" stroke="#1D1D1B" stroke-width="0.836082" stroke-miterlimit="10"/>
<path d="M566.936 278.258C567.043 277.995 567.145 274.138 564.892 275.683C564.892 275.683 565.126 278.678 559.361 280.264" stroke="#1D1D1B" stroke-width="0.836082" stroke-miterlimit="10"/>
<path d="M542.055 279.004C542.055 279.004 540.382 278.836 538.675 278.245" stroke="#1D1D1B" stroke-width="0.836082" stroke-miterlimit="10"/>
<path d="M544.384 284.866C544.315 284.532 539.758 281.347 536.793 280.347" stroke="#1D1D1B" stroke-width="0.836082" stroke-miterlimit="10"/>
<path d="M537.651 285.304C537.651 285.304 536.587 284.36 535.328 283.951" stroke="#1D1D1B" stroke-width="0.836082" stroke-miterlimit="10"/>
<path d="M547.179 292.35C547.179 292.35 547.7 293.68 547.916 295.48" stroke="#1D1D1B" stroke-width="0.836082" stroke-miterlimit="10"/>
<path d="M602.367 157.426C602.367 157.426 597.982 156.875 593.929 153.997" stroke="#1D1D1B" stroke-width="0.836082" stroke-miterlimit="10"/>
<path d="M610.826 171.001C610.826 171.001 601.706 166.988 595.554 165.869C595.554 165.869 589.192 164.358 584.832 162.126" stroke="#1D1D1B" stroke-width="0.836082" stroke-miterlimit="10"/>
<path d="M617.938 190.175C618.23 189.833 614.284 181.777 589.79 176.279C589.79 176.279 586.073 175.217 580.442 172.929" stroke="#1D1D1B" stroke-width="0.836082" stroke-miterlimit="10"/>
<path d="M611.68 222.964C611.68 222.964 598.289 216.602 582.983 212.686C582.983 212.686 581.585 211.965 584.161 209.787C584.161 209.787 596.052 205.095 606.945 213.823C606.945 213.823 616.631 220.983 611.679 222.966L611.68 222.964Z" fill="white" stroke="#1D1D1B" stroke-width="0.836082" stroke-miterlimit="10"/>
<path d="M613.256 220.737C613.256 220.737 614.494 222.459 615.664 223.361C615.664 223.361 613.979 222.785 611.53 223.327" fill="#1D1D1B"/>
<path d="M585.097 215.997C584.393 214.983 583.688 213.881 582.983 212.686" stroke="#1D1D1B" stroke-width="0.836082" stroke-miterlimit="10"/>
<path d="M597.337 226.274C594.208 225.298 590.778 223.092 587.272 218.869C587.151 218.724 587.03 218.576 586.908 218.424" stroke="#1D1D1B" stroke-width="0.836082" stroke-miterlimit="10"/>
<path d="M611.681 222.964C611.681 222.964 609.869 224.698 606.898 225.873" stroke="#1D1D1B" stroke-width="0.836082" stroke-miterlimit="10"/>
<path d="M590.376 227.612C587.422 225.163 583.992 220.981 582.394 214.135" stroke="#1D1D1B" stroke-width="0.836082" stroke-miterlimit="10"/>
<path d="M611.004 225.761C611.004 225.761 608.567 232.402 600.026 231.648" stroke="#1D1D1B" stroke-width="0.836082" stroke-miterlimit="10"/>
<path d="M614.54 219.517C614.54 219.517 612.556 217.405 610.665 212.796C610.665 212.796 607.17 205.001 600.063 202.805C600.063 202.805 588.829 199.239 582.695 209.42" stroke="#1D1D1B" stroke-width="0.836082" stroke-miterlimit="10"/>
<path d="M618.406 217.939C618.406 217.939 609.812 210.734 606.103 206.529C606.103 206.529 600.421 200.953 592.642 200.635C592.642 200.635 584.61 200.367 588.068 191.096" stroke="#1D1D1B" stroke-width="0.836082" stroke-miterlimit="10"/>
<path d="M580.924 210.003C580.924 210.003 578.895 201.011 592.643 200.632" stroke="#1D1D1B" stroke-width="0.836082" stroke-miterlimit="10"/>
<path d="M621.05 218.14C621.05 218.14 627.27 215.78 623.742 206.51" stroke="#1D1D1B" stroke-width="0.836082" stroke-miterlimit="10"/>
<path d="M619.333 213.015C619.461 213.398 616.681 209.711 615.633 206.057C615.633 206.057 613.418 198.936 603.03 196.481C603.03 196.481 595.54 194.791 591.454 195.053C591.454 195.053 603.056 190.887 613.064 197.64C613.064 197.64 618.012 201.342 618.221 206.877C618.221 206.877 618.373 210.092 619.337 213.013L619.333 213.015Z" fill="#A19490" stroke="#1D1D1B" stroke-width="0.836082" stroke-miterlimit="10"/>
<path d="M565.797 281.814C565.797 281.814 575.274 278.524 576.822 263.943C576.822 263.943 576.995 256.144 575.922 253.115C575.922 253.115 574.29 246.937 574.861 241.18" stroke="#1D1D1B" stroke-width="0.836082" stroke-miterlimit="10"/>
<path d="M583.579 267.919C583.579 267.919 580.786 266.478 580.32 264.597" stroke="#1D1D1B" stroke-width="0.836082" stroke-miterlimit="10"/>
<path d="M580.027 274.773C580.027 274.773 580.109 269.277 578.964 266.047" stroke="#1D1D1B" stroke-width="0.836082" stroke-miterlimit="10"/>
<path d="M559.267 292.451C557.551 296.038 554.631 300.588 550.225 302.754" stroke="#1D1D1B" stroke-width="0.836082" stroke-miterlimit="10"/>
<path d="M561.221 287.406C561.221 287.406 560.948 288.402 560.365 289.904" stroke="#1D1D1B" stroke-width="0.836082" stroke-miterlimit="10"/>
<path d="M633.33 222.099C630.171 225.92 627.408 229.352 627.408 229.352C621.365 237.419 618.337 247.936 618.337 247.936C616.532 255.168 611.995 261.39 608.113 265.648C608.113 265.648 610.584 265.374 610.894 268.06C610.894 268.06 610.767 273.333 614.443 274.11C614.443 274.11 618.467 276.052 620.362 267.605C620.362 267.605 620.93 263.943 626.27 259.868C626.27 259.868 636.239 253.986 639.667 245.548C639.667 245.548 653.548 229.785 643.76 222.122C643.76 222.122 638.539 217.447 633.587 221.86L633.328 222.098L633.33 222.099Z" fill="#F8DACE" stroke="#1D1D1B" stroke-width="0.836082" stroke-miterlimit="10"/>
<path d="M595.024 216.271C596.944 217.051 599.132 216.127 599.912 214.208C600.692 212.288 599.768 210.1 597.849 209.32C595.929 208.54 593.741 209.464 592.961 211.383C592.181 213.303 593.105 215.491 595.024 216.271Z" fill="#76BDD0" stroke="#1D1D1B" stroke-width="0.836082" stroke-miterlimit="10"/>
<path d="M595.602 214.782C596.679 215.219 597.906 214.701 598.344 213.625C598.781 212.548 598.263 211.321 597.186 210.883C596.11 210.446 594.882 210.964 594.445 212.04C594.007 213.117 594.526 214.344 595.602 214.782Z" fill="#1D1D1B"/>
<path d="M595.253 211.006C595.583 211.14 595.899 211.127 595.96 210.977C596.021 210.828 595.803 210.598 595.473 210.464C595.144 210.33 594.828 210.343 594.767 210.493C594.706 210.642 594.924 210.872 595.253 211.006Z" fill="white"/>
<path d="M597.68 215.964C598.07 215.839 598.338 215.586 598.278 215.398C598.218 215.211 597.853 215.16 597.463 215.284C597.073 215.409 596.805 215.662 596.865 215.849C596.925 216.037 597.29 216.088 597.68 215.964Z" fill="white"/>
</g>
<path d="M474.684 284.624C474.684 284.624 481.889 286.035 486.9 282.849C486.9 282.849 498.144 283.805 513.74 274.158C513.74 274.158 525.428 265.937 531.415 247.088C531.415 247.088 533.621 241.15 536.591 236.7C536.591 236.7 548.721 222.624 544.717 202.772C544.717 202.772 543.988 201.045 544.525 197.26C544.525 197.26 545.919 156.376 512.822 138.041C512.822 138.041 506.262 134.576 502.849 133.899L489.507 132.005C486.041 131.71 478.776 133.21 478.776 133.21C441.884 141.617 431.851 181.273 431.851 181.273C431.314 185.059 430.133 186.514 430.133 186.514C420.765 204.472 428.501 221.363 428.501 221.363C430.115 226.464 430.583 232.781 430.583 232.781C431.09 252.552 440.031 263.699 440.031 263.699C452.324 277.304 463.393 279.513 463.393 279.513C467.323 283.968 474.634 284.616 474.634 284.616L474.679 284.623L474.684 284.624Z" fill="#F8DACE" stroke="#1D1D1B" stroke-width="0.755658" stroke-miterlimit="10"/>
<path d="M481.807 180.339C481.499 180.685 484.32 183.683 481.691 191.235C481.691 191.235 478.878 198.241 476.327 211.648C476.327 211.648 474.783 215.197 472.329 216.927C472.329 216.927 467.803 220.442 468.847 227.736C468.847 227.736 469.339 231.314 471.906 232.587" stroke="#1D1D1B" stroke-width="0.755658" stroke-miterlimit="10"/>
<path d="M492.001 234.4C492.001 234.4 494.5 233.032 492.654 231.862C492.654 231.862 491.545 231.219 489.987 232.799C489.987 232.799 486.865 236.106 481.67 235.369L481.625 235.363C476.43 234.626 474.351 230.581 474.351 230.581C473.297 228.627 472.05 228.939 472.05 228.939C469.951 229.549 471.971 231.558 471.971 231.558" stroke="#1D1D1B" stroke-width="0.755658" stroke-miterlimit="10"/>
<path d="M501.197 255.511C497.789 256.131 495.627 256.628 494.405 256.938C493.741 257.106 493.091 257.324 492.452 257.58C487.213 259.668 482.679 257.59 482.679 257.59C480.702 256.877 478.653 256.629 478.653 256.629L478.608 256.623C478.608 256.623 476.572 256.291 474.474 256.426C474.474 256.426 469.544 257.161 465.089 253.697C464.549 253.277 463.983 252.887 463.392 252.538C462.304 251.9 460.366 250.821 457.265 249.277L479.391 251.106L501.195 255.51L501.197 255.511Z" fill="#E89C9C" stroke="#1D1D1B" stroke-width="0.755658" stroke-miterlimit="10"/>
<path d="M479.203 252.769C479.597 252.848 480.085 252.759 480.085 252.759C480.871 252.637 481.528 252.595 481.528 252.595C486.229 252.418 490.305 254.23 490.305 254.23C497.236 256.966 502.794 255.157 502.794 255.157C502.794 255.157 498.315 256.211 493.573 253.393C493.573 253.393 488.775 249.594 483.127 249.573C483.127 249.573 482.303 249.64 481.696 249.742C481.365 249.797 481.029 249.818 480.694 249.795C480.427 249.778 480.101 249.739 479.644 249.664L479.599 249.658C479.139 249.603 478.816 249.549 478.554 249.492C478.226 249.42 477.909 249.306 477.606 249.161C477.051 248.894 476.279 248.602 476.279 248.602C470.848 247.053 465.183 249.365 465.183 249.365C459.844 250.753 455.834 248.494 455.834 248.494C455.834 248.494 460.668 251.778 468.089 251.078C468.089 251.078 472.508 250.471 476.974 251.949C476.974 251.949 477.597 252.17 478.314 252.508C478.314 252.508 478.758 252.731 479.159 252.763L479.203 252.769Z" fill="#E89C9C" stroke="#1D1D1B" stroke-width="0.755658" stroke-miterlimit="10"/>
<path d="M446.287 185.303C446.287 185.303 448.315 198.321 473.594 190.086C473.594 190.086 460.044 170.754 446.287 185.303Z" fill="white" stroke="#1D1D1B" stroke-width="0.755658" stroke-miterlimit="10"/>
<path d="M446.287 185.303C446.287 185.303 444.676 192.999 453.662 194.664C453.662 194.664 462.429 196.816 473.593 190.086C473.593 190.086 469.492 179.241 458.632 177.051C458.632 177.051 449.954 175.042 446.29 185.303L446.287 185.303Z" stroke="#1D1D1B" stroke-width="0.755658" stroke-miterlimit="10"/>
<path d="M445.335 179.192C445.335 179.192 456.425 173.36 469.111 180.098C469.111 180.098 474.336 184.477 476.673 176.235" stroke="#1D1D1B" stroke-width="0.755658" stroke-miterlimit="10"/>
<path d="M441.488 175.789C441.325 176.005 449.445 166.093 470.916 173.469C470.916 173.469 474.593 175.027 475.39 173.064L475.451 172.64C475.451 172.64 477.025 168.879 456.745 167.129C456.745 167.129 448.631 166.324 441.485 175.789L441.488 175.789Z" fill="#C68E13" stroke="#1D1D1B" stroke-width="0.755658" stroke-miterlimit="10"/>
<path d="M465.241 199.843C467.427 198.532 469.813 196.759 472.377 194.375" stroke="#1D1D1B" stroke-width="0.755658" stroke-miterlimit="10"/>
<path d="M444.118 187.768C444.118 187.768 443.225 190.099 443.596 193.136" stroke="#1D1D1B" stroke-width="0.755658" stroke-miterlimit="10"/>
<path d="M444.208 185.789C444.208 185.789 446.425 184.977 446.962 183.666C447.499 182.356 445.55 186.837 446.362 188.466C447.174 190.095 444.208 185.789 444.208 185.789Z" fill="#1D1D1B"/>
<path d="M462.511 227.527C462.511 227.527 467.834 225.583 468.805 223.835" stroke="#1D1D1B" stroke-width="0.755658" stroke-miterlimit="10"/>
<path d="M458.387 241.387C458.387 241.387 461.282 236.422 466.19 233.173" stroke="#1D1D1B" stroke-width="0.755658" stroke-miterlimit="10"/>
<path d="M456.114 246.522C456.114 246.522 454.3 249.699 453.902 253.868" stroke="#1D1D1B" stroke-width="0.755658" stroke-miterlimit="10"/>
<path d="M483.48 262.486C483.48 262.486 481.498 261.195 478.072 260.745L478.027 260.738C474.613 260.218 472.348 260.907 472.348 260.907" stroke="#1D1D1B" stroke-width="0.755658" stroke-miterlimit="10"/>
<path d="M483.609 270.885C481.026 269.262 476.904 268.959 476.904 268.959L476.859 268.953C476.859 268.953 472.818 268.097 469.883 268.937" stroke="#1D1D1B" stroke-width="0.755658" stroke-miterlimit="10"/>
<path d="M495.865 50.6699L444.051 94.3959L434.043 118.218L486.199 111.98L533.546 121.491L559.732 138.031L549.556 107.201L518.916 69.724L507.29 49.7571L495.865 50.6699Z" fill="white"/>
<path d="M498.878 113.779C454.289 108.231 434.888 136.399 434.888 136.399C367.725 209.494 430.662 234.645 430.662 234.645C430.629 234.032 430.605 233.413 430.588 232.782C430.588 232.782 430.12 226.465 428.506 221.364C428.506 221.364 420.77 204.47 430.138 186.515C430.138 186.515 431.319 185.059 431.856 181.274C431.856 181.274 441.89 141.615 478.781 133.211C478.781 133.211 486.046 131.708 489.512 132.006C489.512 132.006 484.868 132.841 484.44 136.159C484.44 136.159 484.538 137.602 481.914 137.792C481.914 137.792 478.033 137.977 478.755 143.882C478.755 143.882 480.339 141.825 482.958 141.838C483.266 141.838 483.57 141.897 483.865 141.989C485.819 142.595 494.719 144.974 495.528 137.732C495.528 137.732 496.393 146.916 506.336 147.124C506.336 147.124 511.012 147.591 513.053 141.9C513.117 141.721 512.923 141.563 512.767 141.676C512.084 142.172 510.766 142.621 508.544 141.57C506.164 140.447 506.571 139.299 506.571 139.299C507.083 135.993 502.854 133.899 502.854 133.899C506.266 134.579 512.827 138.042 512.827 138.042C545.924 156.379 544.53 197.261 544.53 197.261C543.993 201.046 544.722 202.773 544.722 202.773C548.726 222.628 536.596 236.7 536.596 236.7C533.627 241.151 531.42 247.089 531.42 247.089C531.231 247.69 531.033 248.278 530.831 248.857C530.831 248.857 598.28 242.204 554.101 153.313C554.101 153.313 543.256 120.856 498.883 113.779" fill="#C68E13"/>
<path d="M498.878 113.779C454.289 108.231 434.888 136.399 434.888 136.399C367.725 209.494 430.662 234.645 430.662 234.645C430.629 234.032 430.605 233.413 430.588 232.782C430.588 232.782 430.12 226.465 428.506 221.364C428.506 221.364 420.77 204.47 430.138 186.515C430.138 186.515 431.319 185.059 431.856 181.274C431.856 181.274 441.89 141.615 478.781 133.211C478.781 133.211 486.046 131.708 489.512 132.006C489.512 132.006 484.868 132.841 484.44 136.159C484.44 136.159 484.538 137.602 481.914 137.792C481.914 137.792 478.033 137.977 478.755 143.882C478.755 143.882 480.339 141.825 482.958 141.838C483.266 141.838 483.57 141.897 483.865 141.989C485.819 142.595 494.719 144.974 495.528 137.732C495.528 137.732 496.393 146.916 506.336 147.124C506.336 147.124 511.012 147.591 513.053 141.9C513.117 141.721 512.923 141.563 512.767 141.676C512.084 142.172 510.766 142.621 508.544 141.57C506.164 140.447 506.571 139.299 506.571 139.299C507.083 135.993 502.854 133.899 502.854 133.899C506.266 134.579 512.827 138.042 512.827 138.042C545.924 156.379 544.53 197.261 544.53 197.261C543.993 201.046 544.722 202.773 544.722 202.773C548.726 222.628 536.596 236.7 536.596 236.7C533.627 241.151 531.42 247.089 531.42 247.089C531.231 247.69 531.033 248.278 530.831 248.857C530.831 248.857 598.28 242.204 554.101 153.313C554.101 153.313 543.256 120.856 498.883 113.779" stroke="#1D1D1B" stroke-width="0.755658" stroke-miterlimit="10"/>
<path d="M428.504 221.364C428.504 221.364 420.767 204.47 430.136 186.515C430.136 186.515 431.317 185.059 431.854 181.273C431.854 181.273 429.419 180.574 429.826 176.345C429.826 176.345 430.293 171.669 423.936 171.612C423.936 171.612 415.531 170.87 416.3 189.266C416.3 189.266 416.397 192.238 416.737 193.52C416.737 193.52 417.431 196.412 417.287 198.341C417.143 200.269 416.875 205.818 418.846 211.163C418.846 211.163 420.487 215.163 419.426 218.066C419.426 218.066 417.64 223.788 421.943 225.503C421.943 225.503 425.655 226.808 426.77 222.161C426.77 222.161 426.776 218.46 428.506 221.366L428.504 221.364Z" fill="#F8DACE" stroke="#1D1D1B" stroke-width="0.755658" stroke-miterlimit="10"/>
<path d="M500.035 105.629C441.604 97.0788 424.27 127.357 424.27 127.357L420.5 153.926C420.5 153.926 439.791 126.015 495.805 133.611L496.319 133.684C552.232 141.971 562.998 174.145 562.998 174.145L566.768 147.575C566.768 147.575 558.54 113.67 500.037 105.629" fill="#D29C42"/>
<path d="M500.035 105.629C441.604 97.0788 424.27 127.357 424.27 127.357L420.5 153.926C420.5 153.926 439.791 126.015 495.805 133.611L496.319 133.684C552.232 141.971 562.998 174.145 562.998 174.145L566.768 147.575C566.768 147.575 558.54 113.67 500.037 105.629" stroke="#1D1D1B" stroke-width="0.755658" stroke-miterlimit="10"/>
<path d="M505.695 65.8994C461.509 79.6367 440.263 113.29 440.263 113.29C428.625 119.79 424.292 127.36 424.292 127.36C424.292 127.36 425.922 79.8359 509.768 36.1671L509.9 36.1171L510.004 36.1929C578.403 101.466 566.793 147.579 566.793 147.579C566.793 147.579 564.736 139.102 555.366 129.622C555.366 129.622 544.318 91.3862 505.7 65.9001" fill="#D29C42"/>
<path d="M505.695 65.8994C461.509 79.6367 440.263 113.29 440.263 113.29C428.625 119.79 424.292 127.36 424.292 127.36C424.292 127.36 425.922 79.8359 509.768 36.1671L509.9 36.1171L510.004 36.1929C578.403 101.466 566.793 147.579 566.793 147.579C566.793 147.579 564.736 139.102 555.366 129.622C555.366 129.622 544.318 91.3862 505.7 65.9001" stroke="#1D1D1B" stroke-width="0.755658" stroke-miterlimit="10"/>
<path d="M505.878 66.022C505.695 65.7365 505.5 65.9608 505.5 65.9608C498.176 68.2518 491.482 71.0877 485.415 74.226L481.174 104.115C481.174 104.115 491.935 104.156 500.055 105.631C500.636 105.691 501.23 105.76 501.826 105.84C509.678 106.875 518.612 109.425 518.612 109.425L522.853 79.5355C517.903 74.8363 512.269 70.2539 505.876 66.0192L505.878 66.022Z" fill="#D29C42" stroke="#1D1D1B" stroke-width="0.755658" stroke-miterlimit="10"/>
<path d="M460.798 191.315C463.621 191.716 466.235 189.752 466.636 186.928C467.036 184.105 465.072 181.491 462.249 181.091C459.425 180.69 456.811 182.654 456.411 185.478C456.01 188.301 457.974 190.915 460.798 191.315Z" fill="#695A53" stroke="#1D1D1B" stroke-width="0.755658" stroke-miterlimit="10"/>
<path d="M461.077 189.129C462.66 189.354 464.125 188.253 464.35 186.67C464.574 185.088 463.473 183.623 461.891 183.398C460.308 183.174 458.843 184.274 458.619 185.857C458.394 187.44 459.495 188.904 461.077 189.129Z" fill="#1D1D1B"/>
<path d="M459.349 184.208C459.832 184.276 460.249 184.153 460.281 183.933C460.312 183.713 459.945 183.478 459.462 183.41C458.978 183.341 458.561 183.464 458.53 183.685C458.499 183.905 458.865 184.139 459.349 184.208Z" fill="white"/>
<path d="M464.243 190.021C464.723 189.724 464.997 189.296 464.854 189.065C464.711 188.834 464.206 188.888 463.726 189.185C463.246 189.482 462.972 189.91 463.115 190.141C463.257 190.372 463.762 190.318 464.243 190.021Z" fill="white"/>
<path d="M496.806 182.467C497.006 182.885 493.462 184.98 493.886 192.965C493.886 192.965 494.639 200.478 493.36 214.065C493.36 214.065 493.856 217.903 495.732 220.248C495.732 220.248 499.102 224.883 496.07 231.599C496.07 231.599 494.602 234.899 491.782 235.407" stroke="#1D1D1B" stroke-width="0.755658" stroke-miterlimit="10"/>
<path d="M529.543 197.116C529.543 197.116 523.974 209.056 501.984 194.114C501.984 194.114 520.376 179.314 529.543 197.116Z" fill="white" stroke="#1D1D1B" stroke-width="0.755658" stroke-miterlimit="10"/>
<path d="M529.543 197.116C529.543 197.116 528.95 204.956 519.855 204.055C519.855 204.055 510.836 203.684 501.984 194.114C501.984 194.114 508.94 184.838 519.981 185.756C519.981 185.756 528.875 186.239 529.541 197.115L529.543 197.116Z" stroke="#1D1D1B" stroke-width="0.755658" stroke-miterlimit="10"/>
<path d="M532.157 191.511C532.157 191.511 523.127 182.824 509.068 185.767C509.068 185.767 502.831 188.52 502.879 179.953" stroke="#1D1D1B" stroke-width="0.755658" stroke-miterlimit="10"/>
<path d="M536.799 189.312C536.896 189.565 531.853 177.785 509.178 178.898C509.178 178.898 505.213 179.371 504.993 177.264L505.053 176.84C505.053 176.84 504.587 172.79 524.554 176.75C524.554 176.75 532.571 178.233 536.802 189.313L536.799 189.312Z" fill="#C68E13" stroke="#1D1D1B" stroke-width="0.755658" stroke-miterlimit="10"/>
<path d="M507.293 205.809C505.558 203.943 503.759 201.576 501.959 198.573" stroke="#1D1D1B" stroke-width="0.755658" stroke-miterlimit="10"/>
<path d="M530.94 200.087C530.94 200.087 531.15 202.574 529.949 205.388" stroke="#1D1D1B" stroke-width="0.755658" stroke-miterlimit="10"/>
<path d="M531.405 198.161C531.405 198.161 529.501 196.764 529.35 195.356C529.199 193.948 529.824 198.794 528.591 200.133C527.355 201.474 531.405 198.161 531.405 198.161Z" fill="#1D1D1B"/>
<path d="M502.214 233.16C502.214 233.16 497.641 229.812 497.195 227.864" stroke="#1D1D1B" stroke-width="0.755658" stroke-miterlimit="10"/>
<path d="M502.317 247.62C502.317 247.62 500.918 242.046 497.107 237.559" stroke="#1D1D1B" stroke-width="0.755658" stroke-miterlimit="10"/>
<path d="M503.074 253.185C503.074 253.185 503.934 256.741 503.156 260.856" stroke="#1D1D1B" stroke-width="0.755658" stroke-miterlimit="10"/>
<path d="M536.591 236.7C536.591 236.7 548.721 222.624 544.717 202.772C544.717 202.772 543.988 201.045 544.525 197.26C544.525 197.26 547.058 197.266 547.844 193.09C547.844 193.09 548.696 188.469 554.818 190.182C554.818 190.182 563.097 191.807 557.242 209.263C557.242 209.263 556.322 212.092 555.639 213.229C555.639 213.229 554.168 215.813 553.77 217.705C553.371 219.598 552.086 225.002 548.705 229.588C548.705 229.588 546.017 232.974 546.228 236.057C546.228 236.057 546.352 242.051 541.742 242.501C541.742 242.501 537.813 242.722 538.035 237.947C538.035 237.947 539.058 234.391 536.588 236.702L536.591 236.7Z" fill="#F8DACE" stroke="#1D1D1B" stroke-width="0.755658" stroke-miterlimit="10"/>
<path d="M513.93 198.854C516.754 199.255 519.367 197.291 519.768 194.467C520.169 191.644 518.204 189.03 515.381 188.629C512.557 188.229 509.944 190.193 509.543 193.016C509.142 195.84 511.107 198.453 513.93 198.854Z" fill="#695A53" stroke="#1D1D1B" stroke-width="0.755658" stroke-miterlimit="10"/>
<path d="M514.272 196.677C515.855 196.901 517.32 195.8 517.544 194.218C517.769 192.635 516.668 191.17 515.085 190.946C513.503 190.721 512.038 191.822 511.813 193.405C511.589 194.987 512.69 196.452 514.272 196.677Z" fill="#1D1D1B"/>
<path d="M512.045 191.685C512.528 191.753 512.945 191.63 512.977 191.41C513.008 191.189 512.641 190.955 512.158 190.886C511.674 190.818 511.257 190.941 511.226 191.161C511.195 191.382 511.561 191.616 512.045 191.685Z" fill="white"/>
<path d="M516.939 197.497C517.419 197.2 517.693 196.772 517.55 196.541C517.407 196.311 516.902 196.364 516.422 196.662C515.942 196.959 515.668 197.387 515.811 197.617C515.954 197.848 516.459 197.794 516.939 197.497Z" fill="white"/>
<g clip-path="url(#clip1_250_149)">
<path d="M218.064 152.639C214.264 122.219 196.496 103.534 196.496 103.534C156.356 63.3681 111.304 85.1395 111.304 85.1395C111.304 85.1395 64.0366 101.556 64.0006 158.341C64.0006 158.341 64.626 184.116 83.4234 208.332C83.4234 208.332 88.0618 213.732 89.9992 222.967C91.9366 232.202 94.8401 236.437 101.496 242.676C101.496 242.676 108.578 249.052 114.928 260.617C114.928 260.617 133.701 305.467 193.722 284.401C251.084 256.908 232.69 211.905 232.69 211.905C229.018 199.233 229.523 189.718 229.523 189.718C229.829 180.599 228.89 175.552 223.737 167.647C218.585 159.742 218.053 152.643 218.053 152.643L218.064 152.639Z" fill="#F2BAA4" stroke="#1D1D1B" stroke-width="0.851376" stroke-miterlimit="10"/>
<path d="M143.018 183.681C143.018 183.681 149.634 194.746 150.332 213.117C150.332 213.117 142.518 216.976 145.657 223.049C145.657 223.049 148.269 230.122 157.039 227.437C157.039 227.437 162.547 231.117 170.351 227.888" stroke="#1D1D1B" stroke-width="0.851376" stroke-miterlimit="10"/>
<path d="M158.474 177.288C158.474 177.288 161.608 189.793 174.091 203.29C174.091 203.29 182.348 200.501 184.416 207.016C184.416 207.016 187.564 213.868 179.46 218.163C179.46 218.163 178.161 224.658 170.357 227.886" stroke="#1D1D1B" stroke-width="0.851376" stroke-miterlimit="10"/>
<path d="M169.164 233.244C169.164 233.244 171.135 238.387 171.447 242.18" stroke="#1D1D1B" stroke-width="0.851376" stroke-miterlimit="10"/>
<path d="M200.522 237.014C196.125 239.496 192.855 239.906 192.855 239.906C182.62 241.317 178.054 246.501 178.054 246.501C178.054 246.501 171.162 246.057 162.918 252.289C162.918 252.289 160.314 254.309 155.448 255.659C155.286 255.704 155.302 255.943 155.464 255.987C157.8 256.623 167.659 258.881 176.505 254.399L180.658 252.798L184.729 250.997C194.153 247.922 199.539 239.358 200.743 237.257C200.827 237.112 200.669 236.931 200.522 237.014Z" fill="#E89C9C" stroke="#1D1D1B" stroke-width="0.851376" stroke-miterlimit="10"/>
<path d="M190.418 243.896C190.418 243.896 184.584 245.717 180.791 248.68C180.791 248.68 180.341 248.884 179.223 249.328C178.12 249.803 177.655 249.977 177.655 249.977C172.877 250.559 167.461 253.392 167.461 253.392C161.592 255.506 153.467 255.575 153.467 255.575C169.563 260.366 171.048 257.037 180.657 252.795C190.453 249.007 193.856 250.314 201.866 235.555C201.866 235.555 196.066 241.246 190.418 243.896Z" fill="#E89C9C" stroke="#1D1D1B" stroke-width="0.851376" stroke-miterlimit="10"/>
<path d="M144.658 257.023C144.658 257.023 135.666 244.905 147.849 228.416" stroke="#1D1D1B" stroke-width="0.851376" stroke-miterlimit="10"/>
<path d="M112.913 212.128C112.913 212.128 127.745 220.498 136.072 197.217C136.072 197.217 136.798 194.801 136.843 194.153C136.843 194.153 137.395 191.885 138.306 191.431" stroke="#1D1D1B" stroke-width="0.851376" stroke-miterlimit="10"/>
<path d="M109.973 213.738C109.973 213.738 108.317 215.992 107.898 218.202" stroke="#1D1D1B" stroke-width="0.851376" stroke-miterlimit="10"/>
<path d="M103.121 214.613C103.121 214.613 101.824 211.857 103.127 209.512" stroke="#1D1D1B" stroke-width="0.851376" stroke-miterlimit="10"/>
<path d="M108.74 202.798C108.74 202.798 124.716 212.264 134.744 191.179C134.744 191.179 130.231 191.243 126.004 189.933C126.004 189.933 118.059 186.607 113.885 194.945C113.885 194.945 112.096 199.528 108.743 202.797L108.74 202.798Z" stroke="#1D1D1B" stroke-width="0.851376" stroke-miterlimit="10"/>
<path d="M108.74 202.798C108.74 202.798 111.007 201.077 113.666 201.624C113.666 201.624 125.046 204.68 131.745 194.146C131.745 194.146 132.596 192.224 134.389 191.249C136.181 190.274 129.508 192.718 123.354 191.109C123.354 191.109 118.569 190.342 115.614 195.33C115.614 195.33 113.598 198.986 108.743 202.797L108.74 202.798Z" fill="white" stroke="#1D1D1B" stroke-width="0.851376" stroke-miterlimit="10"/>
<path opacity="0.51" d="M98.6183 192.167C98.6183 192.167 100.655 182.308 111.301 182.453C111.301 182.453 122.24 182.319 127.85 180.075C127.85 180.075 132.361 178.21 133.558 176.931C133.558 176.931 135.088 175.515 132.781 171.451C132.781 171.451 131.655 169.488 130.429 169.366C130.429 169.366 128.941 168.805 125.803 170.886C125.803 170.886 122.436 172.985 115.448 172.58C115.448 172.58 109.313 171.589 103.296 175.804C103.296 175.804 98.5479 179.494 98.6157 192.168L98.6183 192.167Z" fill="#9C9B9B" stroke="#1D1D1B" stroke-width="0.851376" stroke-miterlimit="10"/>
<path d="M98.6183 192.167C98.6183 192.167 100.655 182.308 111.301 182.453C111.301 182.453 122.24 182.319 127.85 180.075C127.85 180.075 132.361 178.21 133.558 176.931C133.558 176.931 135.088 175.515 132.781 171.451C132.781 171.451 131.655 169.488 130.429 169.366C130.429 169.366 128.941 168.805 125.803 170.886C125.803 170.886 122.436 172.985 115.448 172.58C115.448 172.58 109.313 171.589 103.296 175.804C103.296 175.804 98.5479 179.494 98.6157 192.168L98.6183 192.167Z" stroke="#1D1D1B" stroke-width="0.851376" stroke-miterlimit="10"/>
<path d="M190.407 276.366C190.407 276.366 192.166 283.165 174.242 283.052" stroke="#1D1D1B" stroke-width="0.851376" stroke-miterlimit="10"/>
<path d="M105.837 247.308C103.272 244.269 101.503 242.673 101.503 242.673C94.8445 236.435 91.9437 232.199 90.0062 222.964C88.0688 213.729 83.4305 208.329 83.4305 208.329C83.4305 208.329 76.6999 198.881 68.1557 204.768C68.1557 204.768 61.1728 210.635 70.7895 222.888C70.7895 222.888 73.7762 226.315 76.1569 230.37C76.1569 230.37 79.0016 236.297 88.6021 242.571C88.6021 242.571 92.5346 244.497 95.3213 247.945C95.3213 247.945 96.2147 249.348 96.9873 250.963C96.9873 250.963 98.7331 255.941 103.268 255.53C103.268 255.53 109.015 254.196 106.338 248.511L105.838 247.302L105.837 247.308Z" fill="#F2BAA4" stroke="#1D1D1B" stroke-width="0.851376" stroke-miterlimit="10"/>
<path d="M91.8331 169.883C91.8331 169.883 94.9587 157.534 115.293 156.65C115.293 156.65 128.09 156.531 138.726 151.425" stroke="#1D1D1B" stroke-width="0.851376" stroke-miterlimit="10"/>
<path d="M117.67 141.552C117.67 141.552 120.232 140.833 125.364 138.538C125.364 138.538 128.852 136.926 132.162 135.557" stroke="#1D1D1B" stroke-width="0.851376" stroke-miterlimit="10"/>
<path d="M110.428 132.395C110.428 132.395 113.864 129.877 116.43 128.5" stroke="#1D1D1B" stroke-width="0.851376" stroke-miterlimit="10"/>
<path d="M105.029 206.529C105.029 206.529 106.423 204.792 108.74 202.798" stroke="#1D1D1B" stroke-width="0.851376" stroke-miterlimit="10"/>
<path d="M71.8843 154.14C74.0316 142.588 75.49 131.169 74.9953 116.193C74.9953 116.193 67.5561 115.367 65.3942 120.757C65.3942 120.757 56.7663 139.709 58.4802 165.458C58.4802 165.458 63.4536 191.818 78.0778 200.667C78.0778 200.667 66.9816 180.531 71.888 154.141L71.8843 154.14Z" fill="#9C9B9B" stroke="#1D1D1B" stroke-width="0.851376" stroke-miterlimit="10"/>
<path d="M124.593 200.006C126.841 199.076 127.909 196.5 126.98 194.252C126.05 192.005 123.474 190.936 121.226 191.866C118.978 192.796 117.91 195.372 118.84 197.62C119.769 199.867 122.345 200.936 124.593 200.006Z" fill="#332E24" stroke="#1D1D1B" stroke-width="0.851376" stroke-miterlimit="10"/>
<path d="M123.849 198.281C125.109 197.76 125.708 196.316 125.187 195.056C124.665 193.796 123.221 193.197 121.961 193.718C120.701 194.239 120.102 195.683 120.624 196.943C121.145 198.203 122.589 198.802 123.849 198.281Z" fill="#1D1D1B"/>
<path d="M120.445 195.414C120.831 195.254 121.084 194.983 121.012 194.808C120.939 194.633 120.568 194.62 120.183 194.779C119.798 194.938 119.544 195.21 119.617 195.385C119.689 195.56 120.06 195.573 120.445 195.414Z" fill="white"/>
<path d="M126.564 197.56C126.787 197.134 126.802 196.701 126.597 196.593C126.391 196.485 126.044 196.743 125.82 197.169C125.596 197.595 125.581 198.028 125.787 198.136C125.992 198.244 126.34 197.986 126.564 197.56Z" fill="white"/>
<path d="M174.98 230.838C174.98 230.838 177.219 235.871 179.676 238.776" stroke="#1D1D1B" stroke-width="0.851376" stroke-miterlimit="10"/>
<path d="M209.123 230.357C209.123 230.357 206.928 215.428 186.656 212.364" stroke="#1D1D1B" stroke-width="0.851376" stroke-miterlimit="10"/>
<path d="M199.878 176.156C199.878 176.156 195.293 192.557 172.953 181.962C172.953 181.962 170.732 180.764 170.242 180.337C170.242 180.337 168.25 179.122 167.284 179.445" stroke="#1D1D1B" stroke-width="0.851376" stroke-miterlimit="10"/>
<path d="M203.095 175.218C203.095 175.218 205.86 175.643 207.718 176.911" stroke="#1D1D1B" stroke-width="0.851376" stroke-miterlimit="10"/>
<path d="M208.563 170.997C208.563 170.997 207.534 168.13 204.956 167.391" stroke="#1D1D1B" stroke-width="0.851376" stroke-miterlimit="10"/>
<path d="M196.24 166.604C196.24 166.604 193.42 166.988 191.924 169.253C191.924 169.253 186.028 179.455 173.845 176.731C173.845 176.731 171.885 175.972 169.928 176.549C167.97 177.125 174.42 174.141 177.639 168.654C177.639 168.654 180.484 164.731 186.099 166.174C186.099 166.174 190.109 167.338 196.238 166.605L196.24 166.604Z" fill="white" stroke="#1D1D1B" stroke-width="0.851376" stroke-miterlimit="10"/>
<path d="M196.24 166.604C196.24 166.604 191.62 184.59 169.627 176.75C169.627 176.75 172.866 173.607 174.933 169.693C174.933 169.693 178.207 161.727 187.051 164.681C187.051 164.681 191.555 166.66 196.238 166.605L196.24 166.604Z" stroke="#1D1D1B" stroke-width="0.851376" stroke-miterlimit="10"/>
<path opacity="0.51" d="M195.894 151.929C195.894 151.929 187.488 146.39 180.055 154.013C180.055 154.013 172.218 161.646 166.662 164.021C166.662 164.021 162.152 165.887 160.401 165.828C160.401 165.828 158.318 165.906 157.08 161.4C157.08 161.4 156.49 159.215 157.272 158.262C157.272 158.262 157.929 156.814 161.62 156.07C161.62 156.07 165.486 155.178 170.146 149.955C170.146 149.955 173.788 144.919 181.024 143.652C181.024 143.652 186.992 142.91 195.897 151.928L195.894 151.929Z" fill="#9C9B9B" stroke="#1D1D1B" stroke-width="0.851376" stroke-miterlimit="10"/>
<path d="M195.894 151.929C195.894 151.929 187.488 146.39 180.055 154.013C180.055 154.013 172.218 161.646 166.662 164.021C166.662 164.021 162.152 165.887 160.401 165.828C160.401 165.828 158.318 165.906 157.08 161.4C157.08 161.4 156.49 159.215 157.272 158.262C157.272 158.262 157.929 156.814 161.62 156.07C161.62 156.07 165.486 155.178 170.146 149.955C170.146 149.955 173.788 144.919 181.024 143.652C181.024 143.652 186.992 142.91 195.897 151.928L195.894 151.929Z" stroke="#1D1D1B" stroke-width="0.851376" stroke-miterlimit="10"/>
<path d="M190.406 276.366C190.406 276.366 193.965 282.421 206.571 269.679" stroke="#1D1D1B" stroke-width="0.851376" stroke-miterlimit="10"/>
<path d="M229.737 196.058C229.406 192.095 229.53 189.715 229.53 189.715C229.837 180.596 228.897 175.549 223.745 167.644C218.592 159.739 218.061 152.64 218.061 152.64C218.061 152.64 216.15 141.198 226.356 139.329C226.356 139.329 235.444 138.549 237.293 154.015C237.293 154.015 237.599 158.55 238.779 163.102C238.779 163.102 240.952 169.306 238.589 180.529C238.589 180.529 237.167 184.671 237.63 189.08C237.63 189.08 237.988 190.703 238.583 192.392C238.583 192.392 240.863 197.149 237.363 200.062C237.363 200.062 232.354 203.178 230.232 197.262L229.732 196.053L229.737 196.058Z" fill="#F2BAA4" stroke="#1D1D1B" stroke-width="0.851376" stroke-miterlimit="10"/>
<path d="M184.955 131.363C184.955 131.363 174.019 124.831 159.003 138.57C159.003 138.57 149.861 147.526 138.726 151.426" stroke="#1D1D1B" stroke-width="0.851376" stroke-miterlimit="10"/>
<path d="M146.653 129.563C146.653 129.563 144.332 130.864 139.079 132.865C139.079 132.865 135.471 134.188 132.162 135.557" stroke="#1D1D1B" stroke-width="0.851376" stroke-miterlimit="10"/>
<path d="M145.311 117.966C145.311 117.966 141.101 118.611 138.311 119.448" stroke="#1D1D1B" stroke-width="0.851376" stroke-miterlimit="10"/>
<path d="M201.503 166.623C201.503 166.623 199.288 166.378 196.24 166.604" stroke="#1D1D1B" stroke-width="0.851376" stroke-miterlimit="10"/>
<path d="M187.953 106.128C178.273 99.4694 169.173 92.4169 158.944 81.4676C158.944 81.4676 163.626 75.6276 168.964 77.9156C168.964 77.9156 188.459 85.2349 205.436 104.67C205.436 104.67 220.537 126.841 216.437 143.435C216.437 143.435 210.066 121.344 187.951 106.132L187.953 106.128Z" fill="#9C9B9B" stroke="#1D1D1B" stroke-width="0.851376" stroke-miterlimit="10"/>
<path d="M183.047 175.827C185.295 174.897 186.363 172.321 185.433 170.073C184.504 167.825 181.928 166.757 179.68 167.687C177.432 168.617 176.364 171.192 177.293 173.44C178.223 175.688 180.799 176.757 183.047 175.827Z" fill="#332E24" stroke="#1D1D1B" stroke-width="0.851376" stroke-miterlimit="10"/>
<path d="M182.355 174.08C183.615 173.559 184.214 172.115 183.693 170.855C183.172 169.595 181.728 168.996 180.468 169.517C179.208 170.038 178.609 171.482 179.13 172.742C179.651 174.002 181.095 174.601 182.355 174.08Z" fill="#1D1D1B"/>
<path d="M178.553 171.378C178.938 171.218 179.192 170.947 179.119 170.772C179.047 170.596 178.676 170.584 178.291 170.743C177.905 170.902 177.652 171.174 177.724 171.349C177.797 171.524 178.168 171.537 178.553 171.378Z" fill="white"/>
<path d="M184.67 173.523C184.894 173.097 184.909 172.664 184.703 172.556C184.498 172.448 184.15 172.706 183.926 173.132C183.703 173.558 183.688 173.991 183.893 174.099C184.098 174.207 184.446 173.949 184.67 173.523Z" fill="white"/>
</g>
<path d="M335.245 163.435C335.245 163.435 331.821 157.132 332.047 147.579C332.047 147.579 329.27 143.8 331.671 136.124C331.671 136.124 334.517 130.081 330.03 123.813C330.03 123.813 326.072 117.83 328.421 109.416C328.421 109.416 322.83 106.398 319.761 98.6604C319.761 98.6604 306.872 95.8989 309.521 78.9459C309.521 78.9459 294.525 79.9511 294.679 59.3126C294.679 59.3126 295.683 41.8054 273.622 46.2682L262.364 47.0922L251.162 47.9121C229.725 49.4812 232.229 63.8835 232.229 63.8835C235.389 84.2794 220.404 85.4688 220.404 85.4688C225.493 101.858 213.144 106.464 213.144 106.464C211.237 114.568 206.142 118.366 206.142 118.366C209.689 126.349 206.647 132.844 206.647 132.844C203.121 139.701 206.816 145.263 206.816 145.263C210.309 152.507 208.112 156.65 208.112 156.65C209.726 166.069 207.257 172.803 207.257 172.803C202.721 182.927 212.606 195.261 212.606 195.261C217.967 202.09 218.977 210.212 218.977 210.212C221.112 222.281 226.278 230.234 226.278 230.234C233.752 243.16 263.409 252.659 263.409 252.659C268.346 258.41 271.998 256.198 271.998 256.198C273.94 255.572 276.883 255.19 277.616 255.101C278.357 255.082 281.321 255.034 283.334 255.368C283.334 255.368 287.267 257.025 291.316 250.617C291.316 250.617 319.274 236.904 324.787 223.024C324.787 223.024 328.739 214.4 329.094 202.152C329.094 202.152 328.911 193.97 333.22 186.432C333.22 186.432 341.204 172.791 335.242 163.435L335.245 163.435Z" fill="#F1C8C0" stroke="#1D1D1B" stroke-width="0.81388" stroke-miterlimit="10"/>
<path d="M273.57 199.411C273.57 199.411 269.051 199.741 267.002 196.418C267.002 196.418 265.541 191.664 260.134 191.782C260.134 191.782 256.551 192.183 262.244 195.933" stroke="#1D1D1B" stroke-width="0.81388" stroke-miterlimit="10"/>
<path d="M273.513 199.415C273.513 199.415 278.032 199.084 279.575 195.497C279.575 195.497 280.328 190.581 285.695 189.911C285.695 189.911 289.298 189.786 284.212 194.326" stroke="#1D1D1B" stroke-width="0.81388" stroke-miterlimit="10"/>
<path d="M262.625 199.241C262.625 199.241 256.501 197.189 256.167 192.63C256.167 192.63 255.446 186.57 259.103 183.387C259.103 183.387 262.504 180.499 262.813 177.142C262.813 177.142 261.91 162.899 264.042 152.189C264.042 152.189 265.639 145.544 259.013 138.529" stroke="#1D1D1B" stroke-width="0.81388" stroke-miterlimit="10"/>
<path d="M284.316 197.653C284.316 197.653 290.076 194.731 289.742 190.172C289.742 190.172 289.573 184.072 285.492 181.455C285.492 181.455 281.707 179.094 280.912 175.817C280.912 175.817 279.732 161.595 276.063 151.309C276.063 151.309 273.515 144.967 279.049 137.063" stroke="#1D1D1B" stroke-width="0.81388" stroke-miterlimit="10"/>
<path d="M218.645 143.007C218.645 143.007 221.151 143.101 224.384 139.81C224.384 139.81 226.53 136.875 230.894 137.666C230.894 137.666 240.649 140.007 248.353 137.081C248.353 137.081 252.683 135.513 253.06 131.18C253.06 131.18 253.324 129.215 251.503 128.933C251.503 128.933 249.671 128.512 248.036 130.854C248.036 130.854 247.441 134.091 233.478 131.226C233.478 131.226 225.846 129.423 218.432 140.107C218.432 140.107 216.142 143.748 218.645 143.007Z" fill="#908581" stroke="#1D1D1B" stroke-width="0.81388" stroke-miterlimit="10"/>
<path d="M253.316 153.714C253.316 153.714 245.473 158.27 236.874 158.53C236.874 158.53 230.538 159.364 224.076 155.854C224.076 155.854 222.895 154.923 220.916 154.418C220.916 154.418 225.494 153.713 227.904 151.222C227.904 151.222 237.951 142.987 246.464 149.216C246.464 149.216 249.993 152.012 253.316 153.714Z" fill="white" stroke="#1D1D1B" stroke-width="0.81388" stroke-miterlimit="10"/>
<path d="M252.92 153.504C237.293 127.5 221.809 154.236 221.809 154.236C221.809 154.236 225.382 162.146 237.877 160.861C237.877 160.861 246.401 160.248 252.953 153.915L252.923 153.503L252.92 153.504Z" stroke="#1D1D1B" stroke-width="0.81388" stroke-miterlimit="10"/>
<path d="M220.563 157.221C220.563 157.221 223.086 158.796 223.816 162.448C223.816 162.448 224.256 165.936 228.877 167.077" stroke="#1D1D1B" stroke-width="0.81388" stroke-miterlimit="10"/>
<path d="M253.066 155.49C253.066 155.49 250.464 157.07 248.762 160.388C248.762 160.388 246.064 165.262 241.867 166.124" stroke="#1D1D1B" stroke-width="0.81388" stroke-miterlimit="10"/>
<path d="M242.452 143.008C242.452 143.008 251.095 146.744 252.388 141.062" stroke="#1D1D1B" stroke-width="0.81388" stroke-miterlimit="10"/>
<path d="M252.258 125.918C252.258 125.918 257.946 135.319 248.85 137.557" stroke="#1D1D1B" stroke-width="0.81388" stroke-miterlimit="10"/>
<path d="M255.417 119.759C255.417 119.759 258.356 125.749 257.701 130.704" stroke="#1D1D1B" stroke-width="0.81388" stroke-miterlimit="10"/>
<path d="M254.388 191.093C254.388 191.093 252.095 198.344 241.988 204.502C241.988 204.502 238.563 206.42 239.599 211.067" stroke="#1D1D1B" stroke-width="0.81388" stroke-miterlimit="10"/>
<path d="M248.386 220.701C248.386 220.701 247.093 217.602 250.555 216.513" stroke="#1D1D1B" stroke-width="0.81388" stroke-miterlimit="10"/>
<path d="M286.749 214.422C286.749 214.422 281.796 211.264 278.753 213.99C278.753 213.99 276.944 215.773 274.753 215.947C272.56 216.094 270.511 214.593 270.511 214.593C267.107 212.342 262.663 216.185 262.663 216.185C255.473 220.416 250.15 218.559 250.15 218.559C250.15 218.559 256.233 221.029 258.273 224.215L275.294 222.969L292.259 221.727C293.813 218.279 299.472 214.948 299.472 214.948C299.472 214.948 294.478 217.561 286.746 214.422L286.749 214.422Z" fill="#E89C9C" stroke="#1D1D1B" stroke-width="0.81388" stroke-miterlimit="10"/>
<path d="M251.985 219.409C250.912 218.867 250.15 218.558 250.15 218.558C250.15 218.558 250.94 218.949 251.985 219.409Z" fill="#E89C9C" stroke="#1D1D1B" stroke-width="0.81388" stroke-miterlimit="10"/>
<path d="M297.779 216.057C298.747 215.45 299.472 214.948 299.472 214.948C299.472 214.948 298.763 215.368 297.779 216.057Z" fill="#E89C9C" stroke="#1D1D1B" stroke-width="0.81388" stroke-miterlimit="10"/>
<path d="M293.459 218.166C293.459 218.166 289.615 218.795 285.873 217.957C285.873 217.957 281.464 217.028 278.572 219.111C278.572 219.111 277.098 219.739 275.044 219.93C272.985 220.042 271.435 219.634 271.435 219.634C268.271 217.994 264.044 219.554 264.044 219.554C260.464 220.929 256.569 220.866 256.569 220.866C255.66 220.932 253.543 220.095 251.985 219.409C253.948 220.397 256.955 222.157 258.273 224.215C258.273 224.215 260.642 227.853 269.13 226.38C270.091 226.212 271.064 226.124 272.041 226.126C272.854 226.126 274.001 226.11 275.462 226.041C275.462 226.041 275.481 226.04 275.492 226.039C275.502 226.038 275.511 226.038 275.521 226.037C276.977 225.892 278.114 225.741 278.918 225.623C279.884 225.478 280.86 225.426 281.835 225.45C290.448 225.674 292.262 221.727 292.262 221.727C293.265 219.499 295.984 217.32 297.782 216.057C296.341 216.962 294.368 218.099 293.459 218.166Z" fill="#E89C9C" stroke="#1D1D1B" stroke-width="0.81388" stroke-miterlimit="10"/>
<path d="M275.896 231.189C275.896 231.189 274.23 231.286 272.782 231.765" stroke="#1D1D1B" stroke-width="0.81388" stroke-miterlimit="10"/>
<path d="M273.485 235.68C274.619 235.303 275.167 235.206 276.189 235.196" stroke="#1D1D1B" stroke-width="0.81388" stroke-miterlimit="10"/>
<path d="M262.06 241.507C262.124 241.457 262.999 239.994 265.187 238.523" stroke="#1D1D1B" stroke-width="0.81388" stroke-miterlimit="10"/>
<path d="M235.056 60.4749C235.926 66.7112 241.242 77.8339 268.562 75.4317C268.562 75.4317 279.81 73.4959 288.781 78.3966C288.781 78.3966 296.523 81.7198 282.606 69.959C282.606 69.959 290.62 69.3724 293.268 71.401C293.268 71.401 294.952 72.7058 292.619 63.7912C292.619 63.7912 292.033 59.5742 294.677 59.3127C294.52 79.9514 309.519 78.9461 309.519 78.9461C306.87 95.9018 319.759 98.6605 319.759 98.6605C322.825 106.401 328.418 109.416 328.418 109.416C326.072 117.83 330.027 123.813 330.027 123.813C334.515 130.084 331.668 136.125 331.668 136.125C329.268 143.8 332.044 147.579 332.044 147.579C332.044 147.579 344.282 151.593 347.829 135.499C347.829 135.499 356.463 116.808 346.757 98.0717C346.757 98.0717 343.927 93.5566 343.798 88.0087C343.798 88.0087 345.538 66.2123 322.048 56.5422C322.048 56.5422 316.109 40.4654 290.805 39.0777L290.169 39.1243C281.912 28.7744 264.878 30.4456 264.878 30.4456C243.012 31.2136 235.368 42.8851 235.368 42.8851C208.496 47.3518 204.746 65.128 204.746 65.128C182.917 78.1152 187.809 99.4261 187.809 99.4261C188.49 104.934 186.347 109.813 186.347 109.813C179.473 129.763 190.736 146.997 190.736 146.997C196.587 162.406 208.112 156.65 208.112 156.65C208.112 156.65 210.309 152.507 206.816 145.263C206.816 145.263 203.12 139.699 206.647 132.844C206.647 132.844 209.692 126.348 206.143 118.366C206.143 118.366 211.234 114.566 213.144 106.464C213.144 106.464 225.493 101.855 220.404 85.4687C220.404 85.4687 235.387 84.2796 232.229 63.8835C232.229 63.8835 232.308 62.096 234.165 60.94L235.056 60.4776L235.056 60.4749Z" fill="#908581" stroke="#1D1D1B" stroke-width="0.81388" stroke-miterlimit="10"/>
<path d="M212.606 195.261C212.606 195.261 202.721 182.927 207.257 172.803C207.257 172.803 209.726 166.069 208.112 156.65C208.112 156.65 206.559 161.372 203.993 154.775C203.993 154.775 203.71 153.779 201.804 154.264C201.804 154.264 200.492 155.007 199.183 151.053C199.183 151.053 195.908 142.356 190.197 146.572C190.197 146.572 186.798 148.858 190.12 161.996C190.12 161.996 191.05 165.216 191.447 170.649C191.447 170.649 190.824 179.862 200.604 190.723C200.604 190.723 203.293 193.304 203.437 196.536C203.437 196.536 203.714 201.254 207.305 202.365C208.613 202.77 210.051 202.575 211.217 201.853C212.651 200.964 214.183 199.081 212.603 195.264L212.606 195.261Z" fill="#F0C7C0" stroke="#1D1D1B" stroke-width="0.81388" stroke-miterlimit="10"/>
<path d="M239.295 158.19C242.358 157.965 244.66 155.3 244.436 152.237C244.211 149.174 241.546 146.872 238.483 147.096C235.42 147.32 233.118 149.985 233.342 153.049C233.566 156.112 236.232 158.414 239.295 158.19Z" fill="#8D7873" stroke="#1D1D1B" stroke-width="0.81388" stroke-miterlimit="10"/>
<path d="M239.087 155.827C240.804 155.702 242.094 154.208 241.968 152.491C241.842 150.774 240.349 149.484 238.632 149.61C236.915 149.735 235.625 151.229 235.75 152.946C235.876 154.663 237.37 155.953 239.087 155.827Z" fill="#1D1D1B"/>
<path d="M236.141 151.04C236.666 151.002 237.077 150.777 237.059 150.538C237.042 150.299 236.602 150.136 236.078 150.175C235.553 150.213 235.142 150.438 235.16 150.677C235.177 150.916 235.617 151.079 236.141 151.04Z" fill="white"/>
<path d="M242.623 156.039C243.061 155.617 243.251 155.104 243.048 154.894C242.845 154.684 242.326 154.856 241.888 155.278C241.451 155.701 241.26 156.214 241.463 156.424C241.666 156.634 242.186 156.462 242.623 156.039Z" fill="white"/>
<path d="M319.64 135.615C319.64 135.615 317.174 136.073 313.496 133.287C313.496 133.287 310.945 130.697 306.743 132.114C306.743 132.114 297.433 135.85 289.385 134.078C289.385 134.078 284.873 133.157 283.869 128.925C283.869 128.925 283.322 127.02 285.083 126.475C285.083 126.475 286.834 125.792 288.792 127.871C288.792 127.871 289.852 130.987 303.249 126.119C303.249 126.119 310.537 123.224 319.428 132.714C319.428 132.714 322.224 135.983 319.64 135.615Z" fill="#908581" stroke="#1D1D1B" stroke-width="0.81388" stroke-miterlimit="10"/>
<path d="M286.897 151.256C286.897 151.256 295.32 154.622 303.865 153.627C303.865 153.627 310.256 153.529 316.137 149.116C316.137 149.116 317.17 148.023 319.054 147.235C319.054 147.235 314.422 147.204 311.675 145.09C311.675 145.09 300.537 138.406 293.021 145.808C293.021 145.808 289.937 149.089 286.897 151.256Z" fill="white" stroke="#1D1D1B" stroke-width="0.81388" stroke-miterlimit="10"/>
<path d="M287.258 150.99C298.932 122.988 318.145 147.184 318.145 147.184C318.145 147.184 315.761 155.53 303.212 156.079C303.212 156.079 294.69 156.714 287.286 151.402L287.255 150.99L287.258 150.99Z" stroke="#1D1D1B" stroke-width="0.81388" stroke-miterlimit="10"/>
<path d="M319.811 149.957C319.811 149.957 317.545 151.883 317.354 155.601C317.354 155.601 317.427 159.116 313.021 160.918" stroke="#1D1D1B" stroke-width="0.81388" stroke-miterlimit="10"/>
<path d="M287.404 152.976C287.404 152.976 290.208 154.161 292.375 157.196C292.375 157.196 295.754 161.625 300.031 161.866" stroke="#1D1D1B" stroke-width="0.81388" stroke-miterlimit="10"/>
<path d="M296.084 139.083C296.084 139.083 288.077 144.037 285.971 138.604" stroke="#1D1D1B" stroke-width="0.81388" stroke-miterlimit="10"/>
<path d="M283.896 123.602C283.896 123.602 279.638 133.731 288.962 134.621" stroke="#1D1D1B" stroke-width="0.81388" stroke-miterlimit="10"/>
<path d="M279.874 117.969C279.874 117.969 277.839 124.323 279.209 129.13" stroke="#1D1D1B" stroke-width="0.81388" stroke-miterlimit="10"/>
<path d="M291.28 188.392C291.28 188.392 294.604 195.232 305.499 199.854C305.499 199.854 309.168 201.253 308.819 206" stroke="#1D1D1B" stroke-width="0.81388" stroke-miterlimit="10"/>
<path d="M301.528 216.811C301.528 216.811 302.357 213.557 298.773 212.984" stroke="#1D1D1B" stroke-width="0.81388" stroke-miterlimit="10"/>
<path d="M275.839 231.193C275.839 231.193 277.501 231.047 279.003 231.31" stroke="#1D1D1B" stroke-width="0.81388" stroke-miterlimit="10"/>
<path d="M278.878 235.285C277.701 235.077 277.145 235.061 276.132 235.2" stroke="#1D1D1B" stroke-width="0.81388" stroke-miterlimit="10"/>
<path d="M291.03 239.387C290.959 239.346 289.88 238.027 287.501 236.89" stroke="#1D1D1B" stroke-width="0.81388" stroke-miterlimit="10"/>
<path d="M333.223 186.432C333.223 186.432 341.207 172.791 335.245 163.435C335.245 163.435 331.821 157.132 332.047 147.579C332.047 147.579 334.271 152.024 335.849 145.124C335.849 145.124 335.984 144.097 337.941 144.299C337.941 144.299 339.346 144.844 340.066 140.741C340.066 140.741 342.04 131.66 348.304 134.999C348.304 134.999 351.999 136.766 350.625 150.248C350.625 150.248 350.175 153.569 350.572 159.002C350.572 159.002 352.53 168.026 344.436 180.196C344.436 180.196 342.152 183.14 342.48 186.359C342.48 186.359 342.893 191.067 339.502 192.689C338.267 193.28 336.816 193.296 335.557 192.752C334.009 192.082 332.219 190.442 333.226 186.435L333.223 186.432Z" fill="#F0C7C0" stroke="#1D1D1B" stroke-width="0.81388" stroke-miterlimit="10"/>
<path d="M301.42 153.642C304.484 153.418 306.785 150.753 306.561 147.69C306.337 144.626 303.672 142.325 300.608 142.549C297.545 142.773 295.244 145.438 295.468 148.502C295.692 151.565 298.357 153.866 301.42 153.642Z" fill="#8D7873" stroke="#1D1D1B" stroke-width="0.81388" stroke-miterlimit="10"/>
<path d="M301.282 151.275C302.999 151.149 304.289 149.655 304.164 147.938C304.038 146.222 302.544 144.932 300.827 145.057C299.11 145.183 297.82 146.677 297.946 148.394C298.072 150.111 299.565 151.401 301.282 151.275Z" fill="#1D1D1B"/>
<path d="M297.796 146.528C298.321 146.489 298.732 146.264 298.714 146.025C298.697 145.786 298.257 145.623 297.733 145.662C297.208 145.7 296.797 145.925 296.815 146.164C296.832 146.403 297.272 146.566 297.796 146.528Z" fill="white"/>
<path d="M304.275 151.526C304.712 151.104 304.902 150.591 304.699 150.38C304.496 150.17 303.977 150.342 303.54 150.765C303.102 151.188 302.912 151.701 303.115 151.911C303.318 152.121 303.837 151.949 304.275 151.526Z" fill="white"/>
<path d="M371.945 287.756C371.945 287.756 382.498 289.729 388.422 284.754C388.422 284.754 416.018 275.756 428.163 255.065C428.163 255.065 433.181 246.707 435.092 235.261C435.092 235.261 435.592 231.14 439.63 224.355C439.63 224.355 447.019 212.231 444.549 197.471C444.549 197.471 443.423 187.357 447.095 176.698C447.095 176.698 457.891 152.092 429.597 123.029C429.597 123.029 408.738 107.055 387.523 108.699C379.662 109.308 373.981 110.073 373.981 110.073C359.019 112.712 350.432 121.91 350.432 121.91C348.031 124.702 340.504 130.335 340.504 130.335C330.015 136.552 329.251 152.908 329.251 152.908C329.072 161.431 326.193 163.245 326.193 163.245C318.739 170.196 317.977 178.949 317.977 178.949C317.722 182.962 316.024 186.285 316.024 186.285C311.042 200.396 316.226 213.614 316.226 213.614C319.032 220.994 318.812 225.14 318.812 225.14C318.717 236.744 322.217 245.844 322.217 245.844C330.606 268.318 356.233 281.951 356.233 281.951C361.205 287.871 371.943 287.753 371.943 287.753" fill="#564636"/>
<path d="M371.945 287.756C371.945 287.756 382.498 289.729 388.422 284.754C388.422 284.754 416.018 275.756 428.163 255.065C428.163 255.065 433.181 246.707 435.092 235.261C435.092 235.261 435.592 231.14 439.63 224.355C439.63 224.355 447.019 212.231 444.549 197.471C444.549 197.471 443.423 187.357 447.095 176.698C447.095 176.698 457.891 152.092 429.597 123.029C429.597 123.029 408.738 107.055 387.523 108.699C379.662 109.308 373.981 110.073 373.981 110.073C359.019 112.712 350.432 121.91 350.432 121.91C348.031 124.702 340.504 130.335 340.504 130.335C330.015 136.552 329.251 152.908 329.251 152.908C329.072 161.431 326.193 163.245 326.193 163.245C318.739 170.196 317.977 178.949 317.977 178.949C317.722 182.962 316.024 186.285 316.024 186.285C311.042 200.396 316.226 213.614 316.226 213.614C319.032 220.994 318.812 225.14 318.812 225.14C318.717 236.744 322.217 245.844 322.217 245.844C330.606 268.318 356.233 281.951 356.233 281.951C361.205 287.871 371.943 287.753 371.943 287.753" stroke="#1D1D1B" stroke-width="0.823771" stroke-miterlimit="10"/>
<path d="M365.13 228.258C356.102 222.828 363.099 215.204 363.099 215.204C366.133 211.879 369.049 207.489 369.049 207.489C369.396 198.652 372.748 194.087 372.748 194.087C376.391 186.171 372.93 177.425 372.93 177.425" stroke="#1D1D1B" stroke-width="0.823771" stroke-miterlimit="10"/>
<path d="M388.935 230.329C398.765 226.54 393.19 217.822 393.19 217.822C390.775 214.024 388.662 209.195 388.662 209.195C389.847 200.431 387.334 195.356 387.334 195.356C385.112 186.93 390.032 178.913 390.032 178.913" stroke="#1D1D1B" stroke-width="0.823771" stroke-miterlimit="10"/>
<path d="M377.002 229.644C377.002 229.644 371.408 229.157 370.294 226.34C370.294 226.34 369.613 223.935 366.215 223.077C366.215 223.077 364.093 222.658 364.247 224.127C364.247 224.127 364.232 225.909 368.275 226.354" stroke="#1D1D1B" stroke-width="0.823771" stroke-miterlimit="10"/>
<path d="M377.002 229.644C377.002 229.644 382.596 230.131 384.18 227.548C384.18 227.548 385.266 225.297 388.761 225.039C388.761 225.039 390.924 224.993 390.519 226.413C390.519 226.413 390.225 228.171 386.166 227.911" stroke="#1D1D1B" stroke-width="0.823771" stroke-miterlimit="10"/>
<path d="M392.326 248.758C392.326 248.758 387.264 242.218 380.82 245.13C380.82 245.13 380.04 245.602 379.002 246.003C377.256 246.678 376.526 246.672 375.522 246.651C374.53 246.496 373.81 246.375 372.207 245.411C371.253 244.838 370.567 244.238 370.567 244.238C364.72 240.256 358.607 245.824 358.607 245.824C358.607 245.824 355.979 248.437 351.474 250.636L374.914 253.671L398.526 254.73C394.471 251.786 392.331 248.758 392.331 248.758L392.326 248.758Z" fill="#513A3A" stroke="#1D1D1B" stroke-width="0.823771" stroke-miterlimit="10"/>
<path d="M381.972 252.923C381.972 252.923 380.205 253.814 375.208 253.233C375.039 253.213 374.864 253.198 374.694 253.188C369.673 252.895 368.086 251.715 368.086 251.715C360.067 247.357 351.236 250.717 351.236 250.717C351.236 250.717 355.483 250.431 357.604 255.166C357.604 255.166 359.199 258.948 365.166 259.391C365.166 259.391 368.246 259.565 370.099 259.304C370.099 259.304 371.519 258.954 374.08 259.262C374.307 259.29 374.536 259.31 374.764 259.322C377.34 259.46 378.678 260.051 378.678 260.051C380.458 260.627 383.522 260.988 383.522 260.988C389.476 261.583 391.7 258.133 391.7 258.133C394.607 253.835 398.741 254.851 398.741 254.851C398.741 254.851 390.623 250.016 381.972 252.923Z" fill="#513A3A" stroke="#1D1D1B" stroke-width="0.823771" stroke-miterlimit="10"/>
<path d="M316.024 186.29C316.024 186.29 317.722 182.965 317.977 178.955C317.977 178.955 318.739 170.201 326.193 163.251C326.193 163.251 329.071 161.437 329.251 152.913C329.251 152.913 330.017 136.561 340.503 130.34C340.503 130.34 348.03 124.708 350.431 121.915C350.431 121.915 359.021 112.715 373.98 110.078C373.98 110.078 379.661 109.313 387.523 108.704C408.738 107.061 429.596 123.035 429.596 123.035C457.891 152.098 447.095 176.704 447.095 176.704C447.095 176.704 441.629 186.151 447.421 200.447C447.421 200.447 453.924 211.429 447.827 223.282C447.827 223.282 446.056 225.452 445.625 228.755C445.625 228.755 445.758 230.456 448.366 228.395C448.366 228.395 453.254 222.908 453.708 215.536C453.708 215.536 453.773 208.318 456.428 202.074C456.428 202.074 461.319 189.551 457.206 175.329C457.206 175.329 455.185 166.214 459.23 152.071C459.23 152.071 466.581 132.303 448.397 105.104C448.397 105.104 457.449 85.9059 437.108 76.6775C437.108 76.6775 441.201 72.9515 439.349 66.7376C439.349 66.7376 438.664 64.3793 438.585 62.0268C438.585 62.0268 439.669 58.1797 431.166 56.6901C431.166 56.6901 429.455 40.7781 410.793 53.6026C410.793 53.6026 396.755 46.7031 381.842 65.2507C381.842 65.2507 350.502 71.1784 336.999 85.6287C336.999 85.6287 326.824 96.3555 323.064 105.317C323.064 105.317 320.171 111.609 315.579 115.856C315.579 115.856 297.396 127.485 300.882 163.443C300.882 163.443 301.542 168.815 300.71 173.497C300.71 173.497 300.355 175.963 299.029 178.243C299.029 178.243 294.619 183.631 299.957 195.074C299.957 195.074 297.176 213.255 307.656 216.573C307.656 216.573 313.127 213.529 307.182 205.835C307.182 205.835 301.333 202.418 316.013 186.289L316.024 186.29Z" fill="#DAE2E5" stroke="#1D1D1B" stroke-width="0.823771" stroke-miterlimit="10"/>
<path d="M314.652 172.668C314.652 172.668 320.155 165.231 320.147 153.196C320.147 153.196 318.808 137.038 332.082 130.062C332.082 130.062 339.356 125.731 340.509 118.935C340.509 118.935 340.602 109.795 353.85 107.147C353.85 107.147 359.034 106.614 361.409 103.582C361.409 103.582 371.158 90.2162 413.726 107.291" stroke="#1D1D1B" stroke-width="0.823771" stroke-miterlimit="10"/>
<path d="M299.965 195.072C299.965 195.072 301.5 183.103 309.657 171.847C309.657 171.847 314.49 167.271 313.023 152.576" stroke="#1D1D1B" stroke-width="0.823771" stroke-miterlimit="10"/>
<path d="M309.417 162.469C309.417 162.469 305.307 129.529 320.268 123.863C320.268 123.863 329.714 120.884 333.643 117.004C333.643 117.004 339.4 109.059 346.153 106.692" stroke="#1D1D1B" stroke-width="0.823771" stroke-miterlimit="10"/>
<path d="M341.094 106.252C341.094 106.252 346.776 97.8794 344.093 96.5903C344.093 96.5903 342.715 95.1997 338.405 101.054C338.405 101.054 334.021 107.748 327.927 112.284" stroke="#1D1D1B" stroke-width="0.823771" stroke-miterlimit="10"/>
<path d="M381.847 65.2511C381.847 65.2511 371.169 80.9313 375.203 92.8229C375.203 92.8229 392.363 94.0349 403.692 91.0792C403.692 91.0792 411.397 87.7144 421.127 95.5978C421.127 95.5978 427.353 101.677 437.748 104.081C437.748 104.081 440.581 103.859 441.683 110.617C441.683 110.617 443.833 110.71 448.403 105.102" stroke="#1D1D1B" stroke-width="0.823771" stroke-miterlimit="10"/>
<path d="M375.201 92.8226C375.201 92.8226 368.152 92.4215 361.002 90.4598" stroke="#1D1D1B" stroke-width="0.823771" stroke-miterlimit="10"/>
<path d="M376.606 75.6217C373.286 78.4888 371.634 82.3085 371.634 82.3085C367.841 83.0342 364.382 88.0114 364.382 88.0114" stroke="#1D1D1B" stroke-width="0.823771" stroke-miterlimit="10"/>
<path d="M327.653 108.178C327.653 108.178 339.211 98.2768 342.842 92.1183C342.842 92.1183 344.728 87.4258 353.65 85.1758C353.65 85.1758 360.017 83.1857 362.657 81.1332C362.657 81.1332 367.661 76.5523 376.499 75.91" stroke="#1D1D1B" stroke-width="0.823771" stroke-miterlimit="10"/>
<path d="M373.598 93.9179C373.801 93.8281 387.74 97.0228 403.422 94.7215C403.422 94.7215 408.643 93.4807 414.075 99.5376C414.075 99.5376 419.285 105.997 429.003 106.983C429.003 106.983 441.493 107.414 446.606 120.901C446.606 120.901 444.215 114.969 442.835 113.021C442.835 113.021 442.231 111.891 441.682 110.622" stroke="#1D1D1B" stroke-width="0.823771" stroke-miterlimit="10"/>
<path d="M449.527 127.721C449.527 127.721 454.646 141.678 453.775 166.232C453.775 166.232 453.612 171.336 455.521 176.896C455.521 176.896 459.319 186.268 456.753 198.301" stroke="#1D1D1B" stroke-width="0.823771" stroke-miterlimit="10"/>
<path d="M451.988 178.055C451.988 178.055 452.892 186.144 452.075 190.645C452.075 190.645 451.504 193.567 451.986 196.459C452.176 197.603 452.595 198.7 453.204 199.688C453.856 200.748 455.124 203.689 453.573 209.003" stroke="#1D1D1B" stroke-width="0.823771" stroke-miterlimit="10"/>
<path d="M316.226 213.617C316.226 213.617 312.488 204.086 314.411 192.569L315.746 187.366L316.022 186.287C303.447 200.102 305.934 204.59 306.908 205.596C307.186 205.882 307.455 206.175 307.704 206.486C308.822 207.89 309.014 208.698 309.362 210.525C310.026 214.015 308.398 216.001 308.398 216.001C307.375 223.511 311.599 223.459 311.599 223.459C315.473 223.797 315.416 220.484 315.416 220.484C316.186 217.315 317.895 218.856 317.895 218.856C317.516 217.357 316.979 215.604 316.223 213.617L316.226 213.617Z" fill="#564636" stroke="#1D1D1B" stroke-width="0.823771" stroke-miterlimit="10"/>
<path d="M444.552 197.474C446.48 212.313 439.633 224.358 439.633 224.358C438.545 226.184 437.714 227.818 437.081 229.23C437.081 229.23 439.034 228.008 439.241 231.261C439.241 231.261 438.614 234.514 442.487 234.851C442.487 234.851 446.159 235.543 446.838 229.323C446.838 229.323 445.479 227.684 447.724 223.419C447.724 223.419 454.335 214.946 448.047 201.678C448.047 201.678 444.413 192.104 444.701 187.719C444.701 187.719 444.211 194.865 444.549 197.477L444.552 197.474Z" fill="#564636" stroke="#1D1D1B" stroke-width="0.823771" stroke-miterlimit="10"/>
<path d="M338.668 170.852C338.866 171.013 347.293 165.55 360.249 172.73" stroke="#1D1D1B" stroke-width="0.823771" stroke-miterlimit="10"/>
<path d="M335.922 179.764C335.922 179.764 341.949 193.519 362.396 181.224C362.396 181.224 358.48 169.993 348.637 168.825C347.404 168.68 346.162 168.767 344.967 169.104C342.197 169.891 337.535 172.314 335.922 179.764Z" fill="#564636" stroke="#1D1D1B" stroke-width="0.823771" stroke-miterlimit="10"/>
<path d="M362.396 181.224C356.632 172.101 349.911 171.833 349.911 171.833C337.931 171.212 335.919 179.764 335.919 179.764C348.193 189.136 362.393 181.224 362.393 181.224L362.396 181.224Z" fill="white" stroke="#1D1D1B" stroke-width="0.823771" stroke-miterlimit="10"/>
<path d="M332.819 165.28C332.819 165.28 337.586 156.456 349.172 157.549C349.347 157.564 349.522 157.582 349.695 157.592C350.647 157.639 355.608 158.123 359.615 163.036C359.615 163.036 363.503 169.03 369.197 169.385C369.197 169.385 371.289 169.614 370.881 165.943C370.881 165.943 369.536 155.774 351.475 153.885C351.475 153.885 337.855 152.7 332.819 165.28Z" fill="#1E1914" stroke="#1D1D1B" stroke-width="0.823771" stroke-miterlimit="10"/>
<path d="M337.193 175.925C337.193 175.925 335.718 175.678 334.647 174.579" stroke="#1D1D1B" stroke-width="0.823771" stroke-miterlimit="10"/>
<path d="M333.711 170.421C334.028 168.963 334.866 167.128 336.519 164.825" stroke="#1D1D1B" stroke-width="0.823771" stroke-miterlimit="10"/>
<path d="M360.426 182.351C362.904 181.37 365.179 182.337 365.179 182.337C362.292 181.058 361.679 179.549 361.679 179.549C361.679 179.549 362.054 180.53 362.396 181.221L360.426 182.351Z" fill="#1D1D1B"/>
<path d="M335.157 180.472C335.157 180.472 333.419 182.644 335.363 186.19" stroke="#1D1D1B" stroke-width="0.823771" stroke-miterlimit="10"/>
<path d="M365.035 183.987C365.035 183.987 361.649 183.339 358.331 189.103" stroke="#1D1D1B" stroke-width="0.823771" stroke-miterlimit="10"/>
<path d="M350.354 184.134C353.451 184.404 356.18 182.112 356.45 179.014C356.719 175.917 354.427 173.188 351.33 172.919C348.232 172.649 345.503 174.941 345.234 178.038C344.964 181.136 347.256 183.865 350.354 184.134Z" fill="#1E1E1E" stroke="#1D1D1B" stroke-width="0.823771" stroke-miterlimit="10"/>
<path d="M350.529 181.738C352.265 181.889 353.795 180.604 353.946 178.868C354.097 177.132 352.812 175.603 351.076 175.451C349.34 175.3 347.811 176.585 347.66 178.321C347.509 180.057 348.793 181.587 350.529 181.738Z" fill="#1D1D1B"/>
<path d="M348.357 176.483C348.887 176.529 349.334 176.37 349.355 176.129C349.376 175.887 348.963 175.654 348.433 175.607C347.903 175.561 347.456 175.72 347.435 175.962C347.414 176.203 347.827 176.437 348.357 176.483Z" fill="white"/>
<path d="M354.029 182.521C354.534 182.17 354.807 181.688 354.638 181.445C354.469 181.202 353.922 181.291 353.417 181.643C352.912 181.994 352.639 182.476 352.808 182.719C352.977 182.962 353.523 182.873 354.029 182.521Z" fill="white"/>
<path d="M425.585 178.415C425.362 178.539 418.005 171.703 404.004 176.537" stroke="#1D1D1B" stroke-width="0.823771" stroke-miterlimit="10"/>
<path d="M426.751 187.667C426.751 187.667 418.438 200.174 400.423 184.533C400.423 184.533 406.219 174.147 416.116 174.697C417.356 174.766 418.564 175.067 419.683 175.606C422.275 176.859 426.449 180.05 426.751 187.667Z" fill="#564636" stroke="#1D1D1B" stroke-width="0.823771" stroke-miterlimit="10"/>
<path d="M400.423 184.533C407.675 176.542 414.342 177.44 414.342 177.44C426.249 178.897 426.754 187.668 426.754 187.668C413.045 194.779 400.426 184.533 400.426 184.533L400.423 184.533Z" fill="white" stroke="#1D1D1B" stroke-width="0.823771" stroke-miterlimit="10"/>
<path d="M432.268 173.933C432.268 173.933 429.096 164.418 417.496 163.494C417.321 163.479 417.145 163.467 416.973 163.446C416.027 163.328 411.058 162.948 406.262 167.095C406.262 167.095 401.397 172.327 395.727 171.694C395.727 171.694 393.628 171.558 394.664 168.012C394.664 168.012 397.745 158.228 415.86 159.488C415.86 159.488 429.48 160.673 432.268 173.933Z" fill="#1E1914" stroke="#1D1D1B" stroke-width="0.823771" stroke-miterlimit="10"/>
<path d="M426.162 183.666C426.162 183.666 427.658 183.678 428.902 182.78" stroke="#1D1D1B" stroke-width="0.823771" stroke-miterlimit="10"/>
<path d="M430.542 178.846C430.482 177.356 429.973 175.404 428.743 172.849" stroke="#1D1D1B" stroke-width="0.823771" stroke-miterlimit="10"/>
<path d="M402.165 185.983C399.894 184.589 397.486 185.148 397.486 185.148C400.551 184.387 401.416 183.007 401.416 183.007C401.416 183.007 400.877 183.908 400.42 184.53L402.165 185.983Z" fill="#1D1D1B"/>
<path d="M427.382 188.497C427.382 188.497 428.718 190.937 426.192 194.093" stroke="#1D1D1B" stroke-width="0.823771" stroke-miterlimit="10"/>
<path d="M397.345 186.798C397.345 186.798 400.793 186.745 403.066 192.996" stroke="#1D1D1B" stroke-width="0.823771" stroke-miterlimit="10"/>
<path d="M411.683 189.554C414.781 189.823 417.51 187.531 417.779 184.434C418.049 181.336 415.757 178.607 412.659 178.338C409.562 178.068 406.833 180.361 406.564 183.458C406.294 186.555 408.586 189.284 411.683 189.554Z" fill="#1E1E1E" stroke="#1D1D1B" stroke-width="0.823771" stroke-miterlimit="10"/>
<path d="M412.022 187.089C413.758 187.24 415.288 185.955 415.439 184.219C415.59 182.483 414.305 180.953 412.569 180.802C410.833 180.651 409.303 181.936 409.152 183.672C409.001 185.408 410.286 186.938 412.022 187.089Z" fill="#1D1D1B"/>
<path d="M409.303 181.786C409.833 181.832 410.28 181.674 410.301 181.432C410.322 181.19 409.909 180.957 409.379 180.911C408.849 180.864 408.402 181.023 408.381 181.265C408.36 181.506 408.772 181.74 409.303 181.786Z" fill="white"/>
<path d="M414.974 187.825C415.479 187.473 415.752 186.991 415.583 186.748C415.414 186.505 414.867 186.594 414.362 186.946C413.856 187.298 413.584 187.779 413.753 188.022C413.922 188.265 414.468 188.176 414.974 187.825Z" fill="white"/>
<defs>
<clipPath id="clip0_250_149">
<rect width="206.233" height="242.185" fill="white" transform="translate(518.776 51.5106) rotate(22.1145)"/>
</clipPath>
<clipPath id="clip1_250_149">
<rect width="216.533" height="248.318" fill="white" transform="translate(1.30371 107.276) rotate(-22.4723)"/>
</clipPath>
</defs>
</svg>
