<svg width="218" height="250" viewBox="0 0 218 250" fill="none" xmlns="http://www.w3.org/2000/svg">
<path d="M184.2 125.617C192.372 95.8543 183.032 71.6343 183.032 71.6343C161.146 18.82 110.854 21.7371 110.854 21.7371C110.854 21.7371 60.5629 18.82 38.6772 71.6343C38.6772 71.6343 29.3401 95.8543 37.5087 125.617C37.5087 125.617 39.7458 132.426 37.9944 141.763C36.2429 151.1 37.3144 156.157 41.1058 164.523C41.1058 164.523 45.2401 173.18 46.6972 186.383C46.6972 186.383 46.9029 235.331 110.849 238.831C174.794 235.329 175 186.383 175 186.383C176.46 173.18 180.592 164.523 180.592 164.523C184.386 156.157 185.454 151.1 183.703 141.763C181.952 132.426 184.189 125.617 184.189 125.617H184.2Z" fill="#F2BAA4" stroke="#1D1D1B" stroke-width="0.857143" stroke-miterlimit="10"/>
<path d="M102.437 125.617C102.437 125.617 104.334 138.457 97.9144 155.817C97.9144 155.817 89.1601 156.4 89.743 163.257C89.743 163.257 89.4515 170.843 98.643 171.72C98.643 171.72 102.352 177.263 110.854 177.263" stroke="#1D1D1B" stroke-width="0.857143" stroke-miterlimit="10"/>
<path d="M119.277 125.617C119.277 125.617 117.38 138.457 123.8 155.817C123.8 155.817 132.554 156.4 131.971 163.257C131.971 163.257 132.263 170.843 123.071 171.72C123.071 171.72 119.363 177.263 110.86 177.263" stroke="#1D1D1B" stroke-width="0.857143" stroke-miterlimit="10"/>
<path d="M107.689 181.789C107.689 181.789 107.543 187.331 106.375 190.98" stroke="#1D1D1B" stroke-width="0.857143" stroke-miterlimit="10"/>
<path d="M135.411 197.363C130.366 197.98 127.166 197.103 127.166 197.103C117.1 194.477 110.857 197.543 110.857 197.543C110.857 197.543 104.617 194.477 94.5486 197.103C94.5486 197.103 91.3486 197.98 86.3029 197.363C86.1344 197.343 86.0572 197.571 86.1915 197.674C88.1201 199.166 96.4229 205.06 106.377 204.294L110.857 204.403L115.337 204.294C125.289 205.06 133.594 199.166 135.523 197.674C135.657 197.571 135.58 197.343 135.411 197.363Z" fill="#E89C9C" stroke="#1D1D1B" stroke-width="0.857143" stroke-miterlimit="10"/>
<path d="M123.363 199.877C123.363 199.877 117.234 199.326 112.566 200.623C112.566 200.623 112.069 200.64 110.857 200.623C109.649 200.64 109.149 200.623 109.149 200.623C104.48 199.326 98.3515 199.877 98.3515 199.877C92.0772 199.586 84.4915 196.523 84.4915 196.523C97.6229 207.174 100.286 204.649 110.857 204.4C121.429 204.646 124.091 207.172 137.223 196.523C137.223 196.523 129.637 199.586 123.363 199.877Z" fill="#E89C9C" stroke="#1D1D1B" stroke-width="0.857143" stroke-miterlimit="10"/>
<path d="M75.74 194.48C75.74 194.48 72.0371 179.746 89.7171 169.094" stroke="#1D1D1B" stroke-width="0.857143" stroke-miterlimit="10"/>
<path d="M63.4827 140.497C63.4827 140.497 74.0598 153.991 90.7655 135.537C90.7655 135.537 92.3712 133.569 92.6627 132.983C92.6627 132.983 94.0484 131.086 95.0712 131.014" stroke="#1D1D1B" stroke-width="0.857143" stroke-miterlimit="10"/>
<path d="M60.1283 140.863C60.1283 140.863 57.7197 142.323 56.4797 144.217" stroke="#1D1D1B" stroke-width="0.857143" stroke-miterlimit="10"/>
<path d="M53.4169 139.04C53.4169 139.04 53.2712 135.977 55.3855 134.297" stroke="#1D1D1B" stroke-width="0.857143" stroke-miterlimit="10"/>
<path d="M63.1914 130.211C63.1914 130.211 74.4114 145.166 91.8543 129.409C91.8543 129.409 87.6314 127.731 84.2028 124.886C84.2028 124.886 78.0914 118.734 71 124.886C71 124.886 67.5714 128.46 63.1943 130.211H63.1914Z" stroke="#1D1D1B" stroke-width="0.857143" stroke-miterlimit="10"/>
<path d="M63.1914 130.211C63.1914 130.211 65.9628 129.483 68.2257 131.014C68.2257 131.014 77.6371 138.237 87.9228 131.014C87.9228 131.014 89.4543 129.554 91.4971 129.337C93.54 129.12 86.3914 128.826 81.2857 124.96C81.2857 124.96 77.1286 122.406 72.46 125.909C72.46 125.909 69.1771 128.534 63.1943 130.211H63.1914Z" fill="white" stroke="#1D1D1B" stroke-width="0.857143" stroke-miterlimit="10"/>
<path opacity="0.51" d="M57.8659 116.426C57.8659 116.426 63.5545 108.037 73.403 112.269C73.403 112.269 83.6316 116.354 89.7145 116.426C89.7145 116.426 94.6287 116.426 96.2345 115.697C96.2345 115.697 98.203 114.969 97.6202 110.3C97.6202 110.3 97.3287 108.04 96.2345 107.454C96.2345 107.454 95.0659 106.36 91.3459 107.089C91.3459 107.089 87.4059 107.746 81.0602 104.68C81.0602 104.68 75.7345 101.397 68.5145 103.003C68.5145 103.003 62.6773 104.609 57.863 116.426H57.8659Z" fill="#9C9B9B" stroke="#1D1D1B" stroke-width="0.857143" stroke-miterlimit="10"/>
<path d="M57.8659 116.426C57.8659 116.426 63.5545 108.037 73.403 112.269C73.403 112.269 83.6316 116.354 89.7145 116.426C89.7145 116.426 94.6287 116.426 96.2345 115.697C96.2345 115.697 98.203 114.969 97.6202 110.3C97.6202 110.3 97.3287 108.04 96.2345 107.454C96.2345 107.454 95.0659 106.36 91.3459 107.089C91.3459 107.089 87.4059 107.746 81.0602 104.68C81.0602 104.68 75.7345 101.397 68.5145 103.003C68.5145 103.003 62.6773 104.609 57.863 116.426H57.8659Z" stroke="#1D1D1B" stroke-width="0.857143" stroke-miterlimit="10"/>
<path d="M110.857 230.08C110.857 230.08 109.877 237.083 93.2456 230.08" stroke="#1D1D1B" stroke-width="0.857143" stroke-miterlimit="10"/>
<path d="M43.3631 170.503C42.1459 166.689 41.1145 164.523 41.1145 164.523C37.3202 156.157 36.2517 151.1 38.0031 141.763C39.7545 132.426 37.5174 125.617 37.5174 125.617C37.5174 125.617 34.8917 114.237 24.6774 116.426C24.6774 116.426 15.9231 119.197 20.1545 134.297C20.1545 134.297 21.6145 138.634 22.2688 143.323C22.2688 143.323 22.6345 149.931 29.1517 159.463C29.1517 159.463 32.0688 162.769 33.3345 167.049C33.3345 167.049 33.6259 168.697 33.7231 170.497C33.7231 170.497 33.4316 175.8 37.8088 177.163C37.8088 177.163 43.6688 178.134 43.3659 171.814V170.497L43.3631 170.503Z" fill="#F2BAA4" stroke="#1D1D1B" stroke-width="0.857143" stroke-miterlimit="10"/>
<path d="M60.1284 93.0829C60.1284 93.0829 67.7884 82.7972 87.0455 89.8C87.0455 89.8 98.997 94.6143 110.857 93.9572" stroke="#1D1D1B" stroke-width="0.857143" stroke-miterlimit="10"/>
<path d="M95.0686 76.6685C95.0686 76.6685 97.7286 76.9857 103.386 76.8257C103.386 76.8257 107.251 76.6685 110.857 76.6685" stroke="#1D1D1B" stroke-width="0.857143" stroke-miterlimit="10"/>
<path d="M91.8542 65.3629C91.8542 65.3629 96.02 64.3429 98.9371 64.0486" stroke="#1D1D1B" stroke-width="0.857143" stroke-miterlimit="10"/>
<path d="M58.3027 132.254C58.3027 132.254 60.2684 131.174 63.1913 130.211" stroke="#1D1D1B" stroke-width="0.857143" stroke-miterlimit="10"/>
<path d="M47.6285 70.7601C54.0714 60.8401 59.8228 50.7772 65.1256 36.6543C65.1256 36.6543 58.5228 33.0229 54.4371 37.2058C54.4371 37.2058 39.1171 51.5172 30.8028 76.1315C30.8028 76.1315 25.2856 102.569 35.4856 116.429C35.4856 116.429 32.9114 93.4258 47.6314 70.7629L47.6285 70.7601Z" fill="#9C9B9B" stroke="#1D1D1B" stroke-width="0.857143" stroke-miterlimit="10"/>
<path d="M79.0141 133.714C81.4631 133.714 83.4484 131.729 83.4484 129.28C83.4484 126.831 81.4631 124.846 79.0141 124.846C76.5651 124.846 74.5798 126.831 74.5798 129.28C74.5798 131.729 76.5651 133.714 79.0141 133.714Z" fill="#332E24" stroke="#1D1D1B" stroke-width="0.857143" stroke-miterlimit="10"/>
<path d="M78.9855 131.823C80.3583 131.823 81.4712 130.71 81.4712 129.337C81.4712 127.964 80.3583 126.851 78.9855 126.851C77.6127 126.851 76.4998 127.964 76.4998 129.337C76.4998 130.71 77.6127 131.823 78.9855 131.823Z" fill="#1D1D1B"/>
<path d="M76.9226 127.846C77.3423 127.846 77.6826 127.691 77.6826 127.5C77.6826 127.309 77.3423 127.154 76.9226 127.154C76.5029 127.154 76.1626 127.309 76.1626 127.5C76.1626 127.691 76.5029 127.846 76.9226 127.846Z" fill="white"/>
<path d="M81.789 132.197C82.1611 131.887 82.3415 131.49 82.1919 131.31C82.0424 131.131 81.6195 131.237 81.2474 131.547C80.8754 131.858 80.695 132.254 80.8445 132.434C80.9941 132.613 81.4169 132.507 81.789 132.197Z" fill="white"/>
<path d="M114.026 181.789C114.026 181.789 114.172 187.331 115.34 190.98" stroke="#1D1D1B" stroke-width="0.857143" stroke-miterlimit="10"/>
<path d="M145.974 194.48C145.974 194.48 149.677 179.746 131.997 169.094" stroke="#1D1D1B" stroke-width="0.857143" stroke-miterlimit="10"/>
<path d="M158.232 140.497C158.232 140.497 147.654 153.991 130.949 135.537C130.949 135.537 129.343 133.569 129.052 132.983C129.052 132.983 127.666 131.086 126.643 131.014" stroke="#1D1D1B" stroke-width="0.857143" stroke-miterlimit="10"/>
<path d="M161.585 140.863C161.585 140.863 163.994 142.323 165.234 144.217" stroke="#1D1D1B" stroke-width="0.857143" stroke-miterlimit="10"/>
<path d="M168.297 139.04C168.297 139.04 168.443 135.977 166.329 134.297" stroke="#1D1D1B" stroke-width="0.857143" stroke-miterlimit="10"/>
<path d="M158.523 130.211C158.523 130.211 155.751 129.483 153.489 131.014C153.489 131.014 144.077 138.237 133.791 131.014C133.791 131.014 132.26 129.554 130.217 129.337C128.174 129.12 135.323 128.826 140.429 124.96C140.429 124.96 144.586 122.406 149.254 125.909C149.254 125.909 152.537 128.534 158.52 130.211H158.523Z" fill="white" stroke="#1D1D1B" stroke-width="0.857143" stroke-miterlimit="10"/>
<path d="M158.523 130.211C158.523 130.211 147.303 145.166 129.86 129.409C129.86 129.409 134.083 127.731 137.512 124.886C137.512 124.886 143.623 118.734 150.714 124.886C150.714 124.886 154.143 128.46 158.52 130.211H158.523Z" stroke="#1D1D1B" stroke-width="0.857143" stroke-miterlimit="10"/>
<path opacity="0.51" d="M163.848 116.426C163.848 116.426 158.16 108.037 148.311 112.269C148.311 112.269 138.083 116.354 132 116.426C132 116.426 127.086 116.426 125.48 115.697C125.48 115.697 123.511 114.969 124.094 110.3C124.094 110.3 124.386 108.04 125.48 107.454C125.48 107.454 126.648 106.36 130.368 107.089C130.368 107.089 134.308 107.746 140.654 104.68C140.654 104.68 145.98 101.397 153.2 103.003C153.2 103.003 159.037 104.609 163.851 116.426H163.848Z" fill="#9C9B9B" stroke="#1D1D1B" stroke-width="0.857143" stroke-miterlimit="10"/>
<path d="M163.848 116.426C163.848 116.426 158.16 108.037 148.311 112.269C148.311 112.269 138.083 116.354 132 116.426C132 116.426 127.086 116.426 125.48 115.697C125.48 115.697 123.511 114.969 124.094 110.3C124.094 110.3 124.386 108.04 125.48 107.454C125.48 107.454 126.648 106.36 130.368 107.089C130.368 107.089 134.308 107.746 140.654 104.68C140.654 104.68 145.98 101.397 153.2 103.003C153.2 103.003 159.037 104.609 163.851 116.426H163.848Z" stroke="#1D1D1B" stroke-width="0.857143" stroke-miterlimit="10"/>
<path d="M110.857 230.08C110.857 230.08 111.837 237.083 128.469 230.08" stroke="#1D1D1B" stroke-width="0.857143" stroke-miterlimit="10"/>
<path d="M178.351 170.503C179.569 166.689 180.6 164.523 180.6 164.523C184.394 156.157 185.463 151.1 183.711 141.763C181.96 132.426 184.197 125.617 184.197 125.617C184.197 125.617 186.823 114.237 197.037 116.426C197.037 116.426 205.791 119.197 201.56 134.297C201.56 134.297 200.1 138.634 199.446 143.323C199.446 143.323 199.08 149.931 192.563 159.463C192.563 159.463 189.646 162.769 188.38 167.049C188.38 167.049 188.089 168.697 187.991 170.497C187.991 170.497 188.283 175.8 183.906 177.163C183.906 177.163 178.046 178.134 178.349 171.814V170.497L178.351 170.503Z" fill="#F2BAA4" stroke="#1D1D1B" stroke-width="0.857143" stroke-miterlimit="10"/>
<path d="M161.586 93.0829C161.586 93.0829 153.926 82.7972 134.669 89.8C134.669 89.8 122.717 94.6143 110.857 93.9572" stroke="#1D1D1B" stroke-width="0.857143" stroke-miterlimit="10"/>
<path d="M126.646 76.6685C126.646 76.6685 123.986 76.9857 118.329 76.8257C118.329 76.8257 114.463 76.6685 110.857 76.6685" stroke="#1D1D1B" stroke-width="0.857143" stroke-miterlimit="10"/>
<path d="M129.86 65.3629C129.86 65.3629 125.694 64.3429 122.777 64.0486" stroke="#1D1D1B" stroke-width="0.857143" stroke-miterlimit="10"/>
<path d="M163.412 132.254C163.412 132.254 161.446 131.174 158.523 130.211" stroke="#1D1D1B" stroke-width="0.857143" stroke-miterlimit="10"/>
<path d="M174.086 70.7601C167.643 60.8401 161.892 50.7772 156.589 36.6543C156.589 36.6543 163.192 33.0229 167.277 37.2058C167.277 37.2058 182.597 51.5172 190.912 76.1315C190.912 76.1315 196.429 102.569 186.229 116.429C186.229 116.429 188.803 93.4258 174.083 70.7629L174.086 70.7601Z" fill="#9C9B9B" stroke="#1D1D1B" stroke-width="0.857143" stroke-miterlimit="10"/>
<path d="M142.7 133.714C145.149 133.714 147.135 131.729 147.135 129.28C147.135 126.831 145.149 124.846 142.7 124.846C140.251 124.846 138.266 126.831 138.266 129.28C138.266 131.729 140.251 133.714 142.7 133.714Z" fill="#332E24" stroke="#1D1D1B" stroke-width="0.857143" stroke-miterlimit="10"/>
<path d="M142.728 131.823C144.101 131.823 145.214 130.71 145.214 129.337C145.214 127.964 144.101 126.851 142.728 126.851C141.356 126.851 140.243 127.964 140.243 129.337C140.243 130.71 141.356 131.823 142.728 131.823Z" fill="#1D1D1B"/>
<path d="M140.231 127.846C140.651 127.846 140.991 127.691 140.991 127.5C140.991 127.309 140.651 127.154 140.231 127.154C139.811 127.154 139.471 127.309 139.471 127.5C139.471 127.691 139.811 127.846 140.231 127.846Z" fill="white"/>
<path d="M145.097 132.195C145.469 131.885 145.649 131.488 145.5 131.309C145.35 131.13 144.927 131.236 144.555 131.546C144.183 131.856 144.003 132.253 144.152 132.432C144.302 132.612 144.725 132.506 145.097 132.195Z" fill="white"/>
</svg>
