<svg width="630" height="874" viewBox="0 0 630 874" fill="none" xmlns="http://www.w3.org/2000/svg">
<path d="M73.2001 391.3C73.2001 391.3 34.8001 368 19.5001 406.3C19.5001 406.3 -0.39992 444.6 27.2001 505.9C27.2001 505.9 51.7001 554.9 53.2001 573.3C53.2001 573.3 53.2001 613.9 83.8001 597.8C83.8001 597.8 101.3 576.9 107.1 587.8L119.1 478.9L73.2001 391.4V391.3Z" fill="#F4E9C6" stroke="#4B352A" stroke-width="3" stroke-miterlimit="10"/>
<path d="M556.8 391.3C556.8 391.3 595.2 368 610.5 406.3C610.5 406.3 630.4 444.6 602.8 505.9C602.8 505.9 578.3 554.9 576.8 573.3C576.8 573.3 576.8 613.9 546.2 597.8C546.2 597.8 528.7 576.9 522.9 587.8L499.5 564L522.4 403.4L556.8 391.3Z" fill="#F4E9C6" stroke="#4B352A" stroke-width="3" stroke-miterlimit="10"/>
<path d="M535.5 191.9C535.5 191.9 478.3 58.6 315 57.1C151.7 58.6 94.5 191.9 94.5 191.9C36.3 336.7 81.5 420.2 81.5 420.2C99.9 457.7 93.8 496 93.8 496C86.1 558.8 112.9 598.6 112.9 598.6C125.9 623.1 128.2 640.7 128.2 640.7C146.6 793.1 261.5 799.2 261.5 799.2C283.7 812.2 315 812.2 315 812.2C315 812.2 346.3 812.2 368.5 799.2C368.5 799.2 483.4 793.1 501.8 640.7C501.8 640.7 504.1 623.1 517.1 598.6C517.1 598.6 543.9 558.8 536.3 496C536.3 496 530.2 457.7 548.6 420.2C548.6 420.2 593.8 336.7 535.6 191.9H535.5Z" fill="#F3E8C6" stroke="#4B352A" stroke-width="3" stroke-miterlimit="10"/>
<path d="M315 873.6V360.4V0.400024" fill="black"/>
<path d="M315 873.6V360.4V0.400024" stroke="#4B352A" stroke-width="2" stroke-miterlimit="10"/>
<path d="M569.1 438L483.2 374.4V420.7H60.2V455.4H483.2V501.6L569.1 438Z" fill="#4B352A"/>
<path d="M139.8 368.1H121.4V420.7H139.8V368.1Z" fill="#4B352A"/>
<path d="M252.9 455.5H234.5V508.1H252.9V455.5Z" fill="#4B352A"/>
<path d="M395.5 368.1H377.1V420.7H395.5V368.1Z" fill="#4B352A"/>
<path d="M73.8 352.2C76.3 351 77.5 350.3 80 349.1C87.9 339.4 97 330.6 106.8 322.8C105.5 323.5 104.9 323.9 103.7 324.7C104.7 324 105.2 323.6 106.2 322.9C113 318.1 116.6 315.8 124.2 311.5C128.2 309.2 130.6 308.2 131.4 308.5C132.2 308.8 131.1 310.7 128.2 314.2C126.3 316.5 124.2 318.5 121.8 320.2C119.4 321.9 116.8 323.6 114 325.2C113.9 325.3 113.8 325.4 113.7 325.6C116.8 324.6 118.9 324.5 119.9 325.3C120.9 326.1 120.7 327.7 119.2 330.2C116.6 334.3 113.3 337.8 109.1 340.5C104.9 343.2 100.1 345.2 95 346.8C85.4 349.7 80.8 351.2 72 354.4C72.7 353.5 73 353.1 73.8 352.3V352.2ZM107.1 327.8C109.5 326.8 111.5 325.6 113.3 324.4C115 323.1 116.9 321.3 119.1 318.9C121.5 316.2 123 314.5 123.6 313.6C124.2 312.7 123.8 312.7 122.4 313.6C118.8 315.7 117.1 316.7 113.6 318.8C108.4 323.3 106 325.7 101.4 330.5C103.6 329.5 104.8 328.9 107.1 327.9V327.8ZM104.8 339.8C106.5 338.2 108.4 335.7 110.7 332.4C111.9 330.7 112.5 329.6 112.5 329.1C112.5 328.6 112 328.4 111.2 328.6C110.4 328.8 109 329.2 107.3 330C103.7 331.5 102 332.2 98.6 333.7C94.2 338.5 92.2 341 88.4 346.1C92.8 344.8 95.1 344.2 99.7 343C101.5 342.5 103.2 341.5 104.9 339.9L104.8 339.8Z" fill="#801624"/>
<path d="M128.3 334.1C125.5 331.9 126.2 327.5 130.5 320.9C132.4 317.9 134.5 315.2 136.6 312.7C138.8 310.2 140.8 307.9 142.7 306.2C144.3 304.8 146.6 303.1 149.4 301.2C152.2 299.2 155 297.4 157.6 295.7C160.2 294 162 293 162.9 292.7C170.9 289.5 176.1 288.9 178.6 290.9C181.1 292.9 180.8 297.7 177.6 305.3C175.2 311.1 172.3 316.7 168.7 321.9C167.1 323.3 164.8 324.9 161.7 326.9C158.6 328.8 155.6 330.5 152.7 332C149.8 333.5 147.9 334.3 146.8 334.5C137.2 336.4 131 336.2 128.2 334L128.3 334.1ZM153.3 327.8C156.2 326.4 157.8 325.4 158.3 325C161.3 320.5 164.1 315.1 166.8 309.1C169.6 303 170.9 298.8 170.5 296.5C170.1 294.2 167.5 294 162.6 295.8C159.5 296.9 157.1 298 155.4 299.1C153.5 300.2 151.3 302.3 148.7 305.2C146.1 308.1 143.4 311.8 140.7 316.4C138 320.8 136.6 324.2 136.2 326.5C135.9 328.8 136.6 330.2 138.4 330.7C140.2 331.2 143.3 331.1 147.7 330.1C148.5 329.9 150.3 329.1 153.2 327.7L153.3 327.8Z" fill="#801624"/>
<path d="M179.2 325.2C182.2 324.1 183.7 323.6 186.7 322.5C190.4 309.6 194.8 297 199.9 284.6C197.6 284.6 196.5 284.6 194.3 284.8C194.8 283.7 195.1 283.1 195.6 282C205.5 279.2 210.6 277.9 221.1 275.7C226.8 274.5 230.9 274.6 233.1 276C235.3 277.4 235.9 280.6 234.7 285.5C233.7 289.4 231.8 292.7 228.8 295.4C225.8 298.1 222.2 300 218.1 301.2C218.1 301.4 218.1 301.5 218 301.7C222.2 308 226.2 313.3 229.3 317.2C231.8 317.5 233.1 317.6 235.7 317.9C235.5 319.4 235.4 320.1 235.1 321.5C228.6 322.1 225.3 322.4 218.9 323C218.1 321.5 216.5 318.9 214.4 315.2C210.9 309.4 209 305.6 208.1 303.4C205.6 303.8 204.4 304 201.9 304.4C200 310.7 199.1 313.9 197.4 320.4C200.4 320.5 201.9 320.6 204.9 320.8C204.6 322.3 204.4 323.1 204 324.7C193.4 326 188.2 326.7 178.1 328.3C178.4 327.1 178.6 326.5 179 325.2H179.2ZM212.4 298.4C215.5 297.9 217.9 297 219.6 295.6C221.3 294.3 222.5 292 223.4 288.7C224.4 285 224.7 282.5 224.2 281C223.7 279.5 222.4 279 220.4 279.4C215.9 280.6 213.7 281.2 209.4 282.5C206.9 289.3 205.6 292.8 203.4 299.9C207 299.3 208.8 298.9 212.4 298.3V298.4Z" fill="#801624"/>
<path d="M241.9 317.7C245.1 316.7 246.7 316.3 249.9 315.3C251.8 301.6 253.8 287.9 256.4 274.3C253.7 274 252.4 273.8 249.9 273.6C250.2 272.4 250.3 271.8 250.6 270.6C260.8 269.1 271.1 268 281.4 267.3C285.6 267 289.4 267.5 293 268.9C296.6 270.3 299.5 272.7 301.8 276.2C304 279.7 305.2 284.4 305 290.2C304.8 299.5 302.3 306.7 297.4 311.4C292.5 316.1 285.5 318.6 276.8 319C265 319.5 253.3 320.2 241.6 321.1C241.8 319.8 241.9 319.1 242.1 317.8L241.9 317.7ZM288.5 308C290.9 303.7 292.2 298 292.6 291C292.8 287.2 292.6 283.8 291.8 280.7C291.1 277.6 290 275.2 288.5 273.4C287 271.6 285.2 270.8 283.1 271C276.6 271.9 273.3 272.4 266.8 273.4C264.7 286.9 263.1 300.5 261.6 314.1C268.6 314.2 272.2 314.3 279.4 314.6C283.1 314.5 286.2 312.2 288.5 307.9V308Z" fill="#801624"/>
<path d="M315.6 314.7C318.9 314 320.5 313.6 323.8 312.9C323.6 298.9 323.3 284.9 323 270.9C320 270.2 318.6 269.9 315.6 269.2V266.1C330.9 266.3 346 267.1 361.2 268.3C361.5 273.9 361.6 276.7 361.8 282.5C359.3 282.3 358 282.2 355.5 282C354.5 277.8 354 275.6 353 271.5C345.5 271.4 341.7 271.4 334 271.5C334.4 278 334.6 281.4 334.9 288.2C342.1 288.6 345.7 288.8 352.7 289.4C352.9 291 352.9 291.8 353.1 293.4C346 293.2 342.4 293.1 335.1 293.1C335.5 300.7 335.6 304.6 335.9 312.5C344.9 313.3 349.4 313.7 358.4 314.7C358.8 310.1 359 307.8 359.4 303.4C362.1 303.6 363.4 303.6 366.1 303.8C367 310 367.4 313.2 368.3 319.6C350.8 318.7 333.3 318.2 315.7 318.1V314.7H315.6Z" fill="#801624"/>
<path d="M372.4 316.5C375.4 316 377 315.7 380 315.3C384.1 301.2 387.9 287.2 390.2 272.7C392.4 272.8 394.7 273 396.9 273.2C399.1 273.4 400.7 273.6 401.6 273.7C401.9 273.7 402.5 274.1 403.5 274.7C413.9 290.1 424.1 305.6 434.2 321.2C437.2 322.3 438.8 322.8 441.8 323.9C442.1 325.1 442.3 325.8 442.6 327C432 325.5 426.5 324.8 415.5 323.6C415.2 322.1 415.1 321.4 414.8 319.9C417.9 319.6 419.5 319.4 422.5 319.2C419.6 314.3 418.1 311.9 415.2 307.1C406.6 305.9 402.2 305.3 393.4 304.4C392.5 308.9 392 311.2 390.9 315.9C394.5 316.9 396.3 317.4 399.9 318.4C400.1 319.9 400.3 320.6 400.5 322.1C389.6 321.1 384.1 320.7 372.9 320C372.8 318.6 372.7 318 372.5 316.6L372.4 316.5ZM412.3 302.4C406.8 293.2 404 288.6 398.6 279.6C398.1 279.6 397.8 279.5 397.3 279.4C396.5 287.4 395.8 291.5 394.2 300.1C401.5 301 405.2 301.4 412.3 302.5V302.4Z" fill="#801624"/>
<path d="M449 315C445.8 305.4 441.9 295.8 437.7 286.6C435 285.3 433.6 284.7 430.8 283.5C430.3 282.4 430.1 281.8 429.6 280.7C438.4 283.1 442.7 284.4 451 287.2C451.7 288.4 452 289 452.7 290.2C450.5 290 449.4 289.8 447.1 289.6C451.4 297.9 455.3 306.7 458.6 315.4C460 319 461.5 321.6 463.1 323C464.7 324.4 466.6 325.4 468.5 325.7C469.7 325.9 471.9 326.1 474.9 326.2C477.9 326.3 480.7 326.4 483.3 326.5C478.3 315.9 473 306.1 467 296C464.2 294.6 462.8 293.9 460 292.5C459.3 291.3 458.9 290.7 458.2 289.6C466.4 292.5 470.3 294.1 478 297.5C478.7 298.5 479.1 298.9 479.8 299.9C478 299.5 477.1 299.3 475.2 298.9C482.6 309.5 489 320.7 494.5 332.4C497.3 333.6 498.7 334.2 501.5 335.4C502 336.5 502.3 337 502.8 338.1C497.4 336.8 494.6 336.2 489 335C487.4 333.1 486.6 332.1 485 330.1C484.5 330.1 484 330.1 483.3 330.3C482.7 330.4 482 330.5 481.3 330.5C474.9 331.4 471 332 470.2 331.8C460.6 330.2 452.1 324.4 449 314.8V315Z" fill="#801624"/>
<path d="M504.8 336.3C507 336.3 508.1 336.4 510.3 336.5C512.8 331.4 513.6 329 514.3 325.1C506.1 318.5 498 311.8 489.8 305C487.6 303.7 486.5 303 484.3 301.7C483.5 300.7 483.2 300.3 482.4 299.3C490.2 302.8 494 304.7 501.2 308.7C502.2 309.7 502.7 310.2 503.6 311.1C501.8 310.3 500.8 310 498.8 309.3C506 315 509.6 317.9 516.7 323.5C516.8 323.5 516.9 323.5 517 323.6C516.6 321 516.2 319.9 515 317.8C512.4 316.2 511.1 315.3 508.5 313.7C507.5 312.7 507 312.3 506 311.3C512.8 315.2 516 317.2 522.2 321.5C523.2 322.2 523.7 322.6 524.7 323.4C523.5 322.6 522.8 322.3 521.5 321.5C523.2 323.7 523.6 325.1 523.7 328.3C532.5 335.2 541.3 342 550.1 348.9C552.6 350.1 553.8 350.8 556.3 352C557 352.9 557.4 353.3 558.1 354.1C550 351.2 545.8 349.7 537 347.1C536.3 346 536 345.5 535.2 344.4C537.3 344.7 538.3 344.8 540.4 345.2C533 339.2 529.2 336.1 521.5 329.9C521.4 329.9 521.3 329.9 521.2 329.8C520.8 332.9 520.4 334.6 519 338.4C522 339.7 523.4 340.4 526.3 341.6C527 342.7 527.3 343.3 528 344.4C519.6 342 515.2 340.9 506.3 338.7C505.8 337.6 505.5 337.1 505 336L504.8 336.3Z" fill="#801624"/>
<path d="M160.2 545.1C147.9 531.6 135.9 518 124.3 503.9C121.5 502.7 120.2 502.1 117.4 500.9C116.8 499.9 116.6 499.3 116 498.3C125.1 500.6 129.8 501.7 139.5 503.8C140 505.1 140.3 505.7 140.8 507C138.2 507 136.9 507 134.3 506.8C140.5 514.9 146.8 522.9 153.3 530.8C155.1 532.9 157.8 536.5 161.7 541.3C162.1 541.4 162.3 541.5 162.7 541.7C161.5 538 161 536.1 160.2 532.2C158 521.5 157.9 514.3 157.7 512.1C154.4 510.9 152.7 510.2 149.4 509C148.9 507.7 148.6 507 148.1 505.8C157.6 507.7 162.5 508.6 172.5 510.2C172.9 511.4 173.1 512 173.4 513.2C170.8 513.4 169.5 513.4 167 513.5C166.8 521 167 524.6 167.7 531.5C168.5 539 169.2 542.5 171.1 549.1C169.3 548.6 167.4 548.1 165.6 547.5C163.8 546.9 162.4 546.5 161.7 546.2C161.5 546.2 160.9 545.7 159.9 545.1H160.2Z" fill="#801624"/>
<path d="M194.8 554.5C197 554.5 198.1 554.6 200.4 554.7C195.2 542.3 190.9 529.7 187.2 516.8C184.1 515.7 182.6 515.1 179.5 514C179.1 512.8 179 512.2 178.6 510.9C188.8 512.5 193.9 513.2 204.5 514.5C204.8 516 205 516.7 205.3 518.1C202.3 518.4 200.9 518.5 198 518.7C201.2 531.5 205.2 544.2 209.8 556.5C212.8 557.7 214.3 558.3 217.2 559.5C217.7 560.8 217.9 561.5 218.4 562.8C209.3 560.8 204.8 559.7 196.1 557.2C195.6 556.1 195.3 555.5 194.8 554.4V554.5Z" fill="#801624"/>
<path d="M227.3 564.7C225.8 559.1 225.1 556.3 223.8 550.5C226.3 550.9 227.5 551.1 230 551.5C231.6 555.2 232.5 557.1 234.1 560.7C237 561.5 240 562.2 243.1 562.9C246.2 563.6 248.8 564.1 250.8 564.3C251.2 564.3 251.8 564.1 252.4 563.5C253 562.9 253.5 562.1 253.9 561.2C254.3 560.3 254.4 559.3 254.3 558.4C253.9 556.3 252.5 554.4 250.1 552.7C247.6 551 243.9 549 239.1 546.6C235.2 544.7 232 543 229.5 541.5C227 540 224.8 538.3 222.8 536.4C220.8 534.4 219.5 532.3 219 529.9C218.7 528.3 218.3 526.6 218.6 525.6C218.9 524.6 220.8 523.3 223.1 521.9C225.4 520.5 227.9 519.4 230.6 518.4C233.3 517.4 235.3 517 236.7 517.1C237.4 517.1 242.3 517.9 251.6 519.2C252.6 519.3 253.7 519.4 254.8 519.6C255.9 519.8 257 519.9 258.1 520.1C258.4 526.2 258.6 529.2 259 535.2C256.2 535 254.9 534.9 252.2 534.7C251 531.1 250.4 529.3 249.1 525.7C246.4 525.2 243.3 524.6 239.6 523.9C236 523.3 233.3 522.9 231.5 522.7C230.4 522.7 229.6 523 229.1 523.9C228.6 524.8 228.5 526.3 228.9 528.4C229.3 530.7 230.8 532.7 233.3 534.4C235.8 536.2 239.4 538.2 244.1 540.4C248.7 542.6 252.2 544.4 254.7 545.7C257.2 547 259.5 548.7 261.5 550.7C263.5 552.6 264.7 554.9 265 557.4C265.2 558.8 265.3 560.4 265 561.4C264.6 562.6 262.8 564 260.7 565.3C258.6 566.6 256.4 567.6 254.1 568.3C251.8 569 250 569.3 248.6 569.1C243.2 568.3 236.1 566.9 227.6 564.8L227.3 564.7Z" fill="#801624"/>
<path d="M270.7 568C273.4 567.6 274.8 567.4 277.6 567C282.4 551.6 287.9 536.4 293.9 521.5C296.7 521.3 299.5 521 302.4 520.8C305.2 520.6 307.3 520.4 308.4 520.4C308.7 520.4 309.5 520.6 310.5 521.1C317.4 536.6 324.2 552.2 330.3 568.1C333.2 568.7 334.6 568.9 337.4 569.5C337.4 570.7 337.3 571.4 337.2 572.6C326.7 573.1 321.3 573.2 310.6 573.1C310.6 571.7 310.6 571 310.6 569.6C313.8 569 315.4 568.6 318.7 567.9C316.9 563.3 315.9 561 314 556.2C304.8 556.2 300.3 556.1 291.3 555.7C289.8 560.3 289.1 562.6 287.8 567.1C291.2 567.9 292.8 568.3 296.2 569.1C296.2 570.5 296.3 571.2 296.4 572.6C286.2 572.2 281.2 571.9 271.3 570.9C271.1 569.7 271 569.1 270.8 567.8L270.7 568ZM312 551.7C308.3 542.5 306.4 537.8 302.4 528.1C301.8 528.1 301.5 528.1 300.8 528.1C297.3 537.6 295.7 542.3 292.7 551.3C300.3 551.6 304.2 551.6 312 551.7Z" fill="#801624"/>
<path d="M352.6 569.8C349.2 568.3 346.5 565.9 344.6 562.5C342.7 559.1 341.9 554.7 342.3 549.3C342.6 545.4 343.1 541.8 344 538.4C344.9 535 345.9 532 347.3 530.2C348.4 528.8 350.9 527.1 353.9 525.4C356.9 523.7 359.9 522.1 362.9 520.9C365.9 519.6 368.1 518.9 369.3 518.9C372 518.8 375.9 518.7 380.8 518.6C385.7 518.5 390.5 518.3 395 518.1C393.5 524.1 392.7 527.1 391.1 533C388.5 533.3 387.2 533.4 384.6 533.6C384.6 530.3 384.6 528.6 384.4 525.2C382.3 525.1 379.2 525 375.2 525.1C371.1 525.1 368.3 525.1 366.8 525.2C365.1 525.2 363.8 525.5 362.7 526C360.6 526.9 358.9 529.1 357.5 532.6C356.1 536.1 355.2 540.5 354.7 545.8C353.9 553.9 354.6 559.3 356.6 562.1C358.6 565 361.7 566.2 365.8 565.8C370.8 565 373.3 564.5 378.2 563.6C379.2 558.5 379.7 555.9 380.7 550.6C376.5 550.6 374.4 550.4 370 550.3C370.2 548.8 370.3 548 370.6 546.4C381.6 545.5 387.1 544.9 397.7 543.5C397.4 544.8 397.3 545.4 397 546.7C394.5 547.5 393.3 547.8 390.8 548.5C389.6 554.4 388.9 557.3 387.5 563.1C385.8 564.1 381.8 565.8 375.6 568C369.4 570.2 365.7 571.3 364.4 571.4C359.9 571.9 355.9 571.4 352.5 569.9L352.6 569.8Z" fill="#801624"/>
<path d="M400.2 562.5C403 561.4 404.4 560.8 407.3 559.7C411.4 546.7 414.7 533.5 417.7 520.2C414.9 519.9 413.5 519.7 410.6 519.4C410.8 518.1 411 517.4 411.2 516.2C426.8 514.5 442.4 512.5 457.9 510C455.6 515.7 454.4 518.5 451.9 524.1C449.5 524.6 448.4 524.8 446 525.2C446.8 521.3 447.2 519.4 447.9 515.4C440.3 517.1 436.4 517.9 428.6 519.4C427 526 426.1 529.2 424.3 535.6C430.8 534.7 434 534.2 440.3 533.1C439.8 534.6 439.5 535.3 439 536.8C432.7 538.3 429.4 538.9 422.9 540.2C420.8 547.2 419.6 550.6 417.2 557.4C424.3 556.3 427.8 555.7 434.5 554.3C436.8 550.3 438 548.3 440.3 544.2C442.5 543.7 443.6 543.4 445.9 542.8C443.7 548.1 442.6 550.6 440.2 555.7C426.7 559.7 413.1 562.8 399.3 565.6C399.7 564.4 399.8 563.8 400.2 562.6V562.5Z" fill="#801624"/>
<path d="M447.4 553.2C450.5 548 451.9 545.3 454.8 539.9C457 539.3 458.2 539 460.4 538.3C459.4 541.3 458.9 542.8 457.7 545.7C460 545.2 462.4 544.5 464.9 543.9C467.4 543.2 469.4 542.5 471 541.9C471.4 541.8 472 541.3 473 540.5C474 539.7 475 538.8 476 537.8C477 536.8 477.8 535.9 478.3 535.2C479.4 533.5 479.5 532.3 478.3 531.7C477.2 531.1 475.2 530.7 472.1 530.2C469.7 529.8 467.7 529.4 466.2 528.8C464.7 528.3 463.6 527.4 462.8 526.1C462 524.8 462.1 523.1 462.9 521C463.5 519.6 464.1 518 465 516.9C466 515.6 468.4 514 471.3 512C474.2 510 477.2 508.3 480.1 506.7C483 505.1 485.1 504.2 486.3 503.9C486.9 503.8 491 503.2 498.4 502C499.2 501.9 500 501.7 500.9 501.5C501.8 501.3 502.6 501.2 503.5 501.1C500.9 506.1 499.5 508.6 496.6 513.4C494.4 514 493.3 514.3 491.1 515C492 512.3 492.4 510.9 493.2 508.1C491.2 508.3 488.7 508.7 485.7 509.1C482.7 509.5 480.5 509.9 478.9 510.2C478 510.4 477 511 476 512C475 513 474.1 514.5 473.4 516.3C472.6 518.3 472.8 519.7 474.2 520.6C475.6 521.5 477.7 522.1 480.6 522.6C483.4 523.1 485.5 523.4 486.8 523.8C488.1 524.1 489 524.8 489.5 525.7C490 526.6 489.5 528.1 488.1 530C487.3 531.1 486.4 532.3 485.3 533.4C483.9 534.8 481.7 536.4 478.9 538.4C476.1 540.4 473.4 542.3 470.7 544C468 545.7 466.1 546.8 465 547.2C460.5 549 454.7 551 447.3 552.9L447.4 553.2Z" fill="#801624"/>
<path d="M0.899902 438H629.1" stroke="#4B352A" stroke-width="2" stroke-miterlimit="10"/>
</svg>
