<svg width="216" height="270" viewBox="0 0 216 270" fill="none" xmlns="http://www.w3.org/2000/svg">
<path d="M173.157 157.709C173.157 157.709 169.819 151.361 170.172 141.812C170.172 141.812 167.447 137.995 169.95 130.353C169.95 130.353 172.877 124.349 168.474 118.021C168.474 118.021 164.597 111.985 167.059 103.604C167.059 103.604 161.509 100.511 158.545 92.7327C158.545 92.7327 145.694 89.7986 148.57 72.8827C148.57 72.8827 133.562 73.6866 133.993 53.052C133.993 53.052 135.231 35.5599 113.112 39.7263L101.844 40.3992L90.6324 41.0688C69.176 42.3501 71.4866 56.7848 71.4866 56.7848C74.3731 77.2213 59.373 78.2095 59.373 78.2095C64.2421 94.6656 51.8316 99.1056 51.8316 99.1056C49.8164 107.184 44.6715 110.912 44.6715 110.912C48.1107 118.942 44.982 125.396 44.982 125.396C41.3637 132.205 44.9845 137.816 44.9845 137.816C48.3795 145.106 46.1275 149.219 46.1275 149.219C47.6153 158.659 45.0558 165.359 45.0558 165.359C40.3843 175.422 50.1027 187.887 50.1027 187.887C55.3715 194.788 56.2731 202.923 56.2731 202.923C58.2457 215.019 63.3042 223.041 63.3042 223.041C70.6047 236.066 100.132 245.962 100.132 245.962C104.991 251.779 108.672 249.616 108.672 249.616C110.623 249.015 113.57 248.673 114.304 248.594C115.046 248.585 118.01 248.577 120.019 248.938C120.019 248.938 123.928 250.648 128.063 244.294C128.063 244.294 156.203 230.957 161.901 217.153C161.901 217.153 165.969 208.583 166.488 196.341C166.488 196.341 166.415 188.156 170.825 180.677C170.825 180.677 178.991 167.144 173.155 157.709L173.157 157.709Z" fill="#F1C8C0" stroke="#1D1D1B" stroke-width="0.81388" stroke-miterlimit="10"/>
<path d="M111.006 192.854C111.006 192.854 106.483 193.124 104.478 189.773C104.478 189.773 103.082 185 97.6733 185.046C97.6733 185.046 94.0852 185.399 99.7275 189.226" stroke="#1D1D1B" stroke-width="0.81388" stroke-miterlimit="10"/>
<path d="M110.949 192.858C110.949 192.858 115.471 192.588 117.063 189.022C117.063 189.022 117.882 184.116 123.257 183.518C123.257 183.518 126.862 183.441 121.715 187.912" stroke="#1D1D1B" stroke-width="0.81388" stroke-miterlimit="10"/>
<path d="M100.064 192.537C100.064 192.537 93.9683 190.404 93.6957 185.841C93.6957 185.841 93.0561 179.772 96.7553 176.638C96.7553 176.638 100.195 173.796 100.549 170.443C100.549 170.443 99.8364 156.19 102.112 145.509C102.112 145.509 103.798 138.886 97.2673 131.783" stroke="#1D1D1B" stroke-width="0.81388" stroke-miterlimit="10"/>
<path d="M121.775 191.241C121.775 191.241 127.573 188.397 127.301 183.834C127.301 183.834 127.214 177.732 123.168 175.06C123.168 175.06 119.414 172.648 118.664 169.361C118.664 169.361 117.675 155.125 114.144 144.791C114.144 144.791 111.682 138.415 117.321 130.585" stroke="#1D1D1B" stroke-width="0.81388" stroke-miterlimit="10"/>
<path d="M56.8418 135.719C56.8418 135.719 59.347 135.847 62.6237 132.599C62.6237 132.599 64.8092 129.694 69.1621 130.542C69.1621 130.542 78.8844 133.014 86.6273 130.192C86.6273 130.192 90.978 128.682 91.4125 124.354C91.4125 124.354 91.7031 122.394 89.8856 122.086C89.8856 122.086 88.0599 121.641 86.3938 123.961C86.3938 123.961 85.755 127.19 71.8317 124.138C71.8317 124.138 64.225 122.233 56.6684 132.816C56.6684 132.816 54.3293 136.426 56.8418 135.719Z" fill="#908581" stroke="#1D1D1B" stroke-width="0.81388" stroke-miterlimit="10"/>
<path d="M91.3669 146.89C91.3669 146.89 83.4631 151.341 74.8618 151.485C74.8618 151.485 68.5144 152.234 62.1004 148.638C62.1004 148.638 60.9323 147.691 58.96 147.159C58.96 147.159 63.5473 146.516 65.9905 144.057C65.9905 144.057 76.1468 135.958 84.5756 142.3C84.5756 142.3 88.0666 145.144 91.3669 146.89Z" fill="white" stroke="#1D1D1B" stroke-width="0.81388" stroke-miterlimit="10"/>
<path d="M90.9736 146.674C75.6972 120.463 59.8549 146.989 59.8549 146.989C59.8549 146.989 63.3224 154.946 75.8335 153.829C75.8335 153.829 84.3647 153.331 91.0009 147.086L90.9763 146.674L90.9736 146.674Z" stroke="#1D1D1B" stroke-width="0.81388" stroke-miterlimit="10"/>
<path d="M58.5701 149.958C58.5701 149.958 61.0714 151.567 61.752 155.227C61.752 155.227 62.1455 158.721 66.7506 159.924" stroke="#1D1D1B" stroke-width="0.81388" stroke-miterlimit="10"/>
<path d="M91.0925 148.662C91.0925 148.662 88.4698 150.208 86.7233 153.503C86.7233 153.503 83.9601 158.339 79.7522 159.145" stroke="#1D1D1B" stroke-width="0.81388" stroke-miterlimit="10"/>
<path d="M80.6469 136.04C80.6469 136.04 89.2395 139.891 90.608 134.227" stroke="#1D1D1B" stroke-width="0.81388" stroke-miterlimit="10"/>
<path d="M90.6821 119.082C90.6821 119.082 96.2432 128.558 87.1183 130.674" stroke="#1D1D1B" stroke-width="0.81388" stroke-miterlimit="10"/>
<path d="M93.9233 112.966C93.9233 112.966 96.781 118.995 96.0599 123.941" stroke="#1D1D1B" stroke-width="0.81388" stroke-miterlimit="10"/>
<path d="M91.9367 184.28C91.9367 184.28 89.5468 191.499 79.3588 197.522C79.3588 197.522 75.9076 199.394 76.8817 204.054" stroke="#1D1D1B" stroke-width="0.81388" stroke-miterlimit="10"/>
<path d="M85.5384 213.804C85.5384 213.804 84.2869 210.689 87.7633 209.647" stroke="#1D1D1B" stroke-width="0.81388" stroke-miterlimit="10"/>
<path d="M123.982 208.041C123.982 208.041 119.072 204.817 115.992 207.501C115.992 207.501 114.16 209.261 111.967 209.405C109.773 209.523 107.744 207.994 107.744 207.994C104.37 205.698 99.8747 209.48 99.8747 209.48C92.6287 213.615 87.3307 211.686 87.3307 211.686C87.3307 211.686 93.3807 214.238 95.3771 217.451L112.414 216.434L129.394 215.42C130.994 211.992 136.697 208.738 136.697 208.738C136.697 208.738 131.669 211.283 123.98 208.041L123.982 208.041Z" fill="#E89C9C" stroke="#1D1D1B" stroke-width="0.81388" stroke-miterlimit="10"/>
<path d="M89.1548 212.561C88.0888 212.005 87.3306 211.686 87.3306 211.686C87.3306 211.686 88.1155 212.088 89.1548 212.561Z" fill="#E89C9C" stroke="#1D1D1B" stroke-width="0.81388" stroke-miterlimit="10"/>
<path d="M134.99 209.824C135.965 209.23 136.697 208.738 136.697 208.738C136.697 208.738 135.982 209.148 134.99 209.824Z" fill="#E89C9C" stroke="#1D1D1B" stroke-width="0.81388" stroke-miterlimit="10"/>
<path d="M130.641 211.875C130.641 211.875 126.789 212.452 123.059 211.564C123.059 211.564 118.663 210.576 115.744 212.62C115.744 212.62 114.261 213.228 112.205 213.391C110.144 213.476 108.6 213.047 108.6 213.047C105.458 211.365 101.21 212.868 101.21 212.868C97.6122 214.195 93.7189 214.08 93.7189 214.08C92.809 214.134 90.7026 213.268 89.1548 212.561C91.1042 213.575 94.0871 215.376 95.377 217.451C95.377 217.451 97.6969 221.12 106.204 219.761C107.168 219.606 108.142 219.532 109.118 219.547C109.931 219.558 111.078 219.557 112.54 219.508C112.54 219.508 112.559 219.507 112.57 219.506C112.581 219.506 112.589 219.505 112.6 219.505C114.057 219.379 115.196 219.243 116.002 219.136C116.97 219.004 117.946 218.965 118.921 219.002C127.53 219.341 129.396 215.419 129.396 215.419C130.43 213.205 133.177 211.063 134.992 209.824C133.539 210.709 131.551 211.82 130.641 211.875Z" fill="#E89C9C" stroke="#1D1D1B" stroke-width="0.81388" stroke-miterlimit="10"/>
<path d="M112.905 224.661C112.905 224.661 111.238 224.736 109.784 225.195" stroke="#1D1D1B" stroke-width="0.81388" stroke-miterlimit="10"/>
<path d="M110.434 229.119C111.573 228.757 112.122 228.667 113.145 228.672" stroke="#1D1D1B" stroke-width="0.81388" stroke-miterlimit="10"/>
<path d="M98.9321 234.793C98.9971 234.743 99.8916 233.293 102.099 231.851" stroke="#1D1D1B" stroke-width="0.81388" stroke-miterlimit="10"/>
<path d="M74.3593 53.4144C75.1455 59.6618 80.3118 70.8549 107.661 68.8193C107.661 68.8193 118.934 67.0346 127.838 72.0552C127.838 72.0552 135.536 75.4819 121.777 63.5355C121.777 63.5355 129.799 63.0565 132.42 65.1204C132.42 65.1204 134.086 66.4477 131.872 57.5026C131.872 57.5026 131.343 53.2782 133.99 53.0521C133.556 73.6869 148.567 72.8828 148.567 72.8828C145.691 89.8014 158.542 92.7329 158.542 92.7329C161.504 100.514 167.056 103.604 167.056 103.604C164.597 111.985 168.472 118.021 168.472 118.021C172.875 124.352 169.948 130.353 169.948 130.353C167.444 137.996 170.17 141.812 170.17 141.812C170.17 141.812 182.353 145.99 186.116 129.945C186.116 129.945 195 111.371 185.546 92.5063C185.546 92.5063 182.776 87.9536 182.722 82.4045C182.722 82.4045 184.754 60.6334 161.396 50.649C161.396 50.649 155.673 34.494 130.39 32.767L129.753 32.805C121.636 22.3453 104.581 23.7878 104.581 23.7878C82.7067 24.2625 74.9072 35.8304 74.9072 35.8304C47.9774 39.9362 43.989 57.6605 43.989 57.6605C21.9885 70.3537 26.5942 91.7284 26.5942 91.7284C27.2009 97.2445 24.9929 102.094 24.9929 102.094C17.8514 121.95 28.8828 139.335 28.8828 139.335C34.5257 154.821 46.1276 149.219 46.1276 149.219C46.1276 149.219 48.3796 145.106 44.9846 137.816C44.9846 137.816 41.3636 132.203 44.9821 125.396C44.9821 125.396 48.1135 118.942 44.6716 110.912C44.6716 110.912 49.8136 107.181 51.8317 99.1056C51.8317 99.1056 64.2421 94.6628 59.3731 78.2094C59.3731 78.2094 74.3705 77.2214 71.4867 56.7848C71.4867 56.7848 71.5893 54.9985 73.4623 53.8675L74.3594 53.4171L74.3593 53.4144Z" fill="#908581" stroke="#1D1D1B" stroke-width="0.81388" stroke-miterlimit="10"/>
<path d="M50.1027 187.887C50.1027 187.887 40.3842 175.422 45.0557 165.359C45.0557 165.359 47.6153 158.659 46.1275 149.219C46.1275 149.219 44.5112 153.92 42.0334 147.29C42.0334 147.29 41.7644 146.289 39.8514 146.749C39.8514 146.749 38.5304 147.474 37.274 143.503C37.274 143.503 34.1159 134.763 28.3486 138.902C28.3486 138.902 24.9194 141.142 28.0656 154.323C28.0656 154.323 28.9517 157.556 29.2765 162.994C29.2765 162.994 28.5297 172.197 38.1629 183.189C38.1629 183.189 40.8168 185.805 40.9175 189.039C40.9175 189.039 41.1315 193.76 44.7066 194.919C46.0092 195.342 47.45 195.166 48.6254 194.46C50.071 193.591 51.6285 191.728 50.1001 187.89L50.1027 187.887Z" fill="#F0C7C0" stroke="#1D1D1B" stroke-width="0.81388" stroke-miterlimit="10"/>
<path d="M77.2867 151.177C80.3528 150.994 82.6899 148.36 82.5068 145.294C82.3237 142.228 79.6897 139.891 76.6236 140.074C73.5576 140.257 71.2205 142.891 71.4036 145.957C71.5867 149.023 74.2206 151.36 77.2867 151.177Z" fill="#8D7873" stroke="#1D1D1B" stroke-width="0.81388" stroke-miterlimit="10"/>
<path d="M77.1102 148.812C78.8287 148.71 80.1387 147.233 80.036 145.515C79.9334 143.796 78.4571 142.486 76.7386 142.589C75.0201 142.692 73.7101 144.168 73.8128 145.887C73.9154 147.605 75.3917 148.915 77.1102 148.812Z" fill="#1D1D1B"/>
<path d="M74.2294 143.986C74.7543 143.955 75.1683 143.736 75.154 143.496C75.1397 143.257 74.7026 143.088 74.1776 143.12C73.6526 143.151 73.2386 143.371 73.2529 143.61C73.2672 143.849 73.7044 144.018 74.2294 143.986Z" fill="white"/>
<path d="M80.6437 149.072C81.0868 148.655 81.2838 148.145 81.0837 147.932C80.8836 147.719 80.3621 147.884 79.9189 148.301C79.4757 148.718 79.2787 149.228 79.4788 149.441C79.679 149.654 80.2005 149.489 80.6437 149.072Z" fill="white"/>
<path d="M157.927 129.682C157.927 129.682 155.455 130.107 151.815 127.272C151.815 127.272 149.299 124.648 145.078 126.009C145.078 126.009 135.719 129.62 127.696 127.74C127.696 127.74 123.196 126.758 122.25 122.513C122.25 122.513 121.728 120.601 123.496 120.079C123.496 120.079 125.256 119.42 127.186 121.525C127.186 121.525 128.205 124.655 141.666 119.967C141.666 119.967 148.991 117.171 157.754 126.779C157.754 126.779 160.506 130.085 157.927 129.682Z" fill="#908581" stroke="#1D1D1B" stroke-width="0.81388" stroke-miterlimit="10"/>
<path d="M124.977 144.883C124.977 144.883 133.355 148.361 141.912 147.481C141.912 147.481 148.303 147.469 154.244 143.135C154.244 143.135 155.291 142.056 157.186 141.293C157.186 141.293 152.555 141.2 149.836 139.05C149.836 139.05 138.788 132.217 131.174 139.518C131.174 139.518 128.046 142.756 124.977 144.883Z" fill="white" stroke="#1D1D1B" stroke-width="0.81388" stroke-miterlimit="10"/>
<path d="M125.342 144.622C137.391 116.779 156.277 141.231 156.277 141.231C156.277 141.231 153.781 149.544 141.226 149.924C141.226 149.924 132.696 150.444 125.364 145.034L125.34 144.622L125.342 144.622Z" stroke="#1D1D1B" stroke-width="0.81388" stroke-miterlimit="10"/>
<path d="M157.906 144.025C157.906 144.025 155.614 145.92 155.374 149.636C155.374 149.636 155.399 153.152 150.97 154.895" stroke="#1D1D1B" stroke-width="0.81388" stroke-miterlimit="10"/>
<path d="M125.461 146.61C125.461 146.61 128.249 147.832 130.375 150.896C130.375 150.896 133.694 155.369 137.968 155.668" stroke="#1D1D1B" stroke-width="0.81388" stroke-miterlimit="10"/>
<path d="M134.327 132.834C134.327 132.834 126.254 137.681 124.221 132.22" stroke="#1D1D1B" stroke-width="0.81388" stroke-miterlimit="10"/>
<path d="M122.348 117.191C122.348 117.191 117.954 127.262 127.266 128.277" stroke="#1D1D1B" stroke-width="0.81388" stroke-miterlimit="10"/>
<path d="M118.402 111.505C118.402 111.505 116.282 117.83 117.587 122.655" stroke="#1D1D1B" stroke-width="0.81388" stroke-miterlimit="10"/>
<path d="M128.862 182.075C128.862 182.075 132.094 188.959 142.926 193.725C142.926 193.725 146.576 195.174 146.163 199.916" stroke="#1D1D1B" stroke-width="0.81388" stroke-miterlimit="10"/>
<path d="M138.728 210.628C138.728 210.628 139.6 207.385 136.024 206.764" stroke="#1D1D1B" stroke-width="0.81388" stroke-miterlimit="10"/>
<path d="M112.848 224.664C112.848 224.664 114.512 224.541 116.01 224.823" stroke="#1D1D1B" stroke-width="0.81388" stroke-miterlimit="10"/>
<path d="M115.832 228.796C114.658 228.573 114.102 228.549 113.088 228.675" stroke="#1D1D1B" stroke-width="0.81388" stroke-miterlimit="10"/>
<path d="M127.928 233.061C127.857 233.019 126.797 231.686 124.433 230.517" stroke="#1D1D1B" stroke-width="0.81388" stroke-miterlimit="10"/>
<path d="M170.828 180.677C170.828 180.677 178.994 167.144 173.158 157.709C173.158 157.709 169.819 151.361 170.173 141.811C170.173 141.811 172.337 146.286 174.008 139.408C174.008 139.408 174.156 138.383 176.11 138.611C176.11 138.611 177.508 139.175 178.283 135.082C178.283 135.082 180.378 126.029 186.597 129.451C186.597 129.451 190.269 131.268 188.713 144.729C188.713 144.729 188.218 148.045 188.543 153.482C188.543 153.482 190.38 162.532 182.123 174.592C182.123 174.592 179.8 177.505 180.085 180.728C180.085 180.728 180.434 185.441 177.022 187.017C175.779 187.592 174.328 187.589 173.077 187.027C171.538 186.337 169.77 184.673 170.831 180.68L170.828 180.677Z" fill="#F0C7C0" stroke="#1D1D1B" stroke-width="0.81388" stroke-miterlimit="10"/>
<path d="M139.468 147.464C142.534 147.281 144.871 144.647 144.688 141.58C144.505 138.514 141.871 136.177 138.805 136.36C135.738 136.544 133.401 139.178 133.584 142.244C133.768 145.31 136.402 147.647 139.468 147.464Z" fill="#8D7873" stroke="#1D1D1B" stroke-width="0.81388" stroke-miterlimit="10"/>
<path d="M139.361 145.095C141.08 144.992 142.39 143.516 142.287 141.797C142.185 140.079 140.708 138.769 138.99 138.871C137.271 138.974 135.961 140.45 136.064 142.169C136.167 143.887 137.643 145.197 139.361 145.095Z" fill="#1D1D1B"/>
<path d="M135.939 140.301C136.464 140.27 136.878 140.05 136.864 139.811C136.849 139.572 136.412 139.403 135.887 139.434C135.362 139.466 134.948 139.685 134.963 139.925C134.977 140.164 135.414 140.332 135.939 140.301Z" fill="white"/>
<path d="M142.35 145.386C142.793 144.969 142.99 144.459 142.79 144.246C142.59 144.033 142.068 144.198 141.625 144.615C141.182 145.032 140.985 145.542 141.185 145.755C141.385 145.968 141.907 145.803 142.35 145.386Z" fill="white"/>
</svg>
