<svg width="43" height="35" viewBox="0 0 43 35" fill="none" xmlns="http://www.w3.org/2000/svg">
<path d="M19.472 11.024C19.472 16.304 17.456 21.2 13.424 25.712C9.392 30.224 5.936 33.056 3.056 34.208L0.895997 31.184C3.776 29.648 6.224 27.44 8.24 24.56C10.16 21.68 11.264 18.704 11.552 15.632C10.784 16.112 9.584 16.352 7.952 16.352C6.224 16.352 4.736 15.584 3.488 14.048C2.24 12.608 1.616 10.688 1.616 8.288C1.616 5.888 2.528 3.92 4.352 2.384C6.08 0.944002 8.24 0.224001 10.832 0.224001C13.424 0.224001 15.536 1.136 17.168 2.96C18.704 4.784 19.472 7.472 19.472 11.024ZM34.016 0.224001C36.512 0.224001 38.576 1.568 40.208 4.25601C41.84 6.94401 42.656 9.92 42.656 13.184C42.656 16.448 41.984 19.328 40.64 21.824C39.296 24.416 37.616 26.528 35.6 28.16C31.76 31.232 28.64 33.248 26.24 34.208L24.08 31.184C26.96 29.648 29.408 27.44 31.424 24.56C33.344 21.68 34.448 18.704 34.736 15.632C33.968 16.112 32.768 16.352 31.136 16.352C29.408 16.352 27.92 15.584 26.672 14.048C25.424 12.608 24.8 10.688 24.8 8.288C24.8 5.888 25.712 3.92 27.536 2.384C29.264 0.944002 31.424 0.224001 34.016 0.224001Z" fill="#F0F639"/>
</svg>
