<svg width="41" height="32" viewBox="0 0 41 32" fill="none" xmlns="http://www.w3.org/2000/svg">
<path d="M34.592 0.319996L39.776 4.928C37.952 6.07999 36.32 7.23199 34.88 8.384C33.536 9.536 32.384 10.688 31.424 11.84C30.464 12.992 29.648 14.288 28.976 15.728C28.4 17.072 28.016 18.608 27.824 20.336L25.952 20.624C26.72 18.992 27.632 17.936 28.688 17.456C29.84 16.88 31.28 16.592 33.008 16.592C35.024 16.592 36.752 17.264 38.192 18.608C39.632 19.952 40.352 21.776 40.352 24.08C40.352 26.288 39.584 28.112 38.048 29.552C36.608 30.896 34.688 31.568 32.288 31.568C29.792 31.568 27.728 30.8 26.096 29.264C24.464 27.632 23.648 25.088 23.648 21.632C23.648 19.328 23.936 17.168 24.512 15.152C25.088 13.04 25.904 11.12 26.96 9.392C28.016 7.664 29.168 6.032 30.416 4.49599C31.76 2.96 33.152 1.568 34.592 0.319996ZM11.552 0.319996L16.736 4.928C14.912 6.07999 13.28 7.23199 11.84 8.384C10.496 9.536 9.344 10.688 8.384 11.84C7.424 12.992 6.608 14.288 5.936 15.728C5.36 17.072 4.976 18.608 4.784 20.336L2.912 20.624C3.68 18.992 4.592 17.936 5.648 17.456C6.8 16.88 8.24 16.592 9.968 16.592C11.984 16.592 13.712 17.264 15.152 18.608C16.592 19.952 17.312 21.776 17.312 24.08C17.312 26.288 16.544 28.112 15.008 29.552C13.568 30.896 11.648 31.568 9.248 31.568C6.752 31.568 4.688 30.8 3.056 29.264C1.424 27.632 0.608 25.088 0.608 21.632C0.608 19.328 0.896 17.168 1.472 15.152C2.048 13.04 2.864 11.12 3.92 9.392C4.976 7.664 6.128 6.032 7.376 4.49599C8.72 2.96 10.112 1.568 11.552 0.319996Z" fill="#F0F639"/>
</svg>
