<svg width="168" height="226" viewBox="0 0 168 226" fill="none" xmlns="http://www.w3.org/2000/svg">
<path d="M83.9432 225.325C83.9432 225.325 91.2756 225.67 95.7894 222.221C95.7894 222.221 107.056 221.656 121.142 211.16C121.142 211.16 131.56 202.419 134.839 184.987C134.839 184.987 136.189 179.456 138.504 175.144C138.504 175.144 148.537 161.166 141.784 144.102C141.784 144.102 140.819 142.665 140.819 139.248C140.819 139.248 136.456 102.895 101.112 90.8255C101.112 90.8255 94.1294 88.5832 90.6559 88.4121H77.18C73.7065 88.5855 66.7242 90.8255 66.7242 90.8255C31.3796 102.897 27.0169 139.248 27.0169 139.248C27.0169 142.665 26.0522 144.102 26.0522 144.102C19.2991 161.169 29.3317 175.144 29.3317 175.144C31.6466 179.456 32.9967 184.987 32.9967 184.987C36.2762 202.419 46.6942 211.16 46.6942 211.16C60.7772 221.656 72.0466 222.221 72.0466 222.221C76.5629 225.67 83.8928 225.325 83.8928 225.325H83.9381H83.9432Z" fill="#F8DACE" stroke="#1D1D1B" stroke-width="0.755658" stroke-miterlimit="10"/>
<path d="M76.3461 132.15C76.0892 132.494 79.3033 134.793 77.7617 141.805C77.7617 141.805 75.9607 148.359 75.3184 160.543C75.3184 160.543 74.2882 163.877 72.1018 165.716C72.1018 165.716 68.1145 169.395 70.1724 175.719C70.1724 175.719 71.1623 178.823 73.8827 179.627" stroke="#1D1D1B" stroke-width="0.755658" stroke-miterlimit="10"/>
<path d="M94.0336 178.708C94.0336 178.708 96.3157 177.184 94.3233 176.38C94.3233 176.38 93.1344 175.95 91.8145 177.544C91.8145 177.544 89.1873 180.863 83.9406 180.863H83.8952C78.6484 180.863 76.0213 177.544 76.0213 177.544C74.7039 175.948 73.5125 176.38 73.5125 176.38C71.5201 177.184 73.8021 178.708 73.8021 178.708" stroke="#1D1D1B" stroke-width="0.755658" stroke-miterlimit="10"/>
<path d="M106.104 196.234C102.817 197.211 100.746 197.923 99.5801 198.35C98.9453 198.582 98.3332 198.857 97.7363 199.163C92.8421 201.669 88.0613 200.399 88.0613 200.399C86.0034 200.016 83.9405 200.055 83.9405 200.055H83.8951C83.8951 200.055 81.8322 200.016 79.7743 200.399C79.7743 200.399 74.996 201.669 70.0993 199.163C69.5049 198.859 68.8903 198.585 68.2555 198.35C67.0893 197.923 65.0188 197.211 61.7317 196.234L83.8951 195.075L106.101 196.234H106.104Z" fill="#E89C9C" stroke="#1D1D1B" stroke-width="0.755658" stroke-miterlimit="10"/>
<path d="M83.9431 196.57C84.3436 196.59 84.8146 196.45 84.8146 196.45C85.5753 196.243 86.2201 196.124 86.2201 196.124C90.8498 195.377 95.1394 196.468 95.1394 196.468C102.386 198.02 107.635 195.721 107.635 195.721C107.635 195.721 103.348 197.216 98.2577 195.318C98.2577 195.318 92.9732 192.558 87.3788 193.249C87.3788 193.249 86.5727 193.411 85.9858 193.578C85.666 193.668 85.336 193.729 85.001 193.751C84.734 193.769 84.4065 193.776 83.9431 193.767H83.8977C83.4342 193.776 83.1068 193.769 82.8398 193.751C82.5048 193.729 82.1748 193.668 81.8549 193.578C81.268 193.411 80.462 193.249 80.462 193.249C74.8676 192.56 69.583 195.318 69.583 195.318C64.4924 197.216 60.2053 195.721 60.2053 195.721C60.2053 195.721 65.4521 198.02 72.7014 196.468C72.7014 196.468 76.991 195.377 81.6207 196.124C81.6207 196.124 82.268 196.241 83.0262 196.45C83.0262 196.45 83.4972 196.592 83.8977 196.57H83.9431Z" fill="#E89C9C" stroke="#1D1D1B" stroke-width="0.755658" stroke-miterlimit="10"/>
<path d="M41.8755 141.002C41.8755 141.002 45.7117 152.267 69.5829 141.805C69.5829 141.805 53.4522 126.4 41.8755 141.002Z" fill="white" stroke="#1D1D1B" stroke-width="0.755658" stroke-miterlimit="10"/>
<path d="M41.8756 141.002C41.8756 141.002 41.3618 148.014 50.4926 148.359C50.4926 148.359 59.4749 149.163 69.5831 141.805C69.5831 141.805 63.9988 132.724 52.9385 132.15C52.9385 132.15 44.0645 131.461 41.8781 141.002H41.8756Z" stroke="#1D1D1B" stroke-width="0.755658" stroke-miterlimit="10"/>
<path d="M40.0745 135.714C40.0745 135.714 50.2355 129.16 63.7417 133.53C63.7417 133.53 69.53 136.749 70.6862 129.162" stroke="#1D1D1B" stroke-width="0.755658" stroke-miterlimit="10"/>
<path d="M35.7874 133.185C35.6565 133.397 42.3037 123.606 64.5982 127.438C64.5982 127.438 68.4571 128.354 68.9709 126.517V126.134C68.9709 126.134 70.0011 122.609 49.6764 123.606C49.6764 123.606 41.5304 123.912 35.7849 133.185H35.7874Z" fill="#C68E13" stroke="#1D1D1B" stroke-width="0.755658" stroke-miterlimit="10"/>
<path d="M62.6841 151.488C64.6639 150.054 66.7772 148.186 68.9812 145.754" stroke="#1D1D1B" stroke-width="0.755658" stroke-miterlimit="10"/>
<path d="M40.0745 143.456C40.0745 143.456 39.5179 145.63 40.3113 148.271" stroke="#1D1D1B" stroke-width="0.755658" stroke-miterlimit="10"/>
<path d="M39.8855 141.693C39.8855 141.693 41.9661 140.696 42.3137 139.469C42.6613 138.242 41.3615 142.452 42.3943 143.791C43.427 145.131 39.8855 141.693 39.8855 141.693Z" fill="#1D1D1B"/>
<path d="M63.8704 176.329C63.8704 176.329 68.8678 173.94 69.5831 172.272" stroke="#1D1D1B" stroke-width="0.755658" stroke-miterlimit="10"/>
<path d="M61.7341 189.111C61.7341 189.111 63.9029 184.354 68.3058 180.863" stroke="#1D1D1B" stroke-width="0.755658" stroke-miterlimit="10"/>
<path d="M60.2053 193.94C60.2053 193.94 58.8552 196.98 59.0467 200.719" stroke="#1D1D1B" stroke-width="0.755658" stroke-miterlimit="10"/>
<path d="M89.5425 204.632C89.5425 204.632 87.399 203.738 83.9431 203.769H83.8978C80.4444 203.738 78.2983 204.632 78.2983 204.632" stroke="#1D1D1B" stroke-width="0.755658" stroke-miterlimit="10"/>
<path d="M90.8499 212.047C88.064 210.935 83.9407 211.185 83.9407 211.185H83.8953C83.8953 211.185 79.7745 210.935 76.9861 212.047" stroke="#1D1D1B" stroke-width="0.755658" stroke-miterlimit="10"/>
<path d="M72.0491 15.64L26.891 60.8386L20.3293 83.1757L71.0919 71.1067L119.305 73.5786L147.554 84.9272L133.149 58.9228L97.5475 29.6068L83.2328 13.3977L72.0491 15.64Z" fill="white"/>
<path d="M83.8977 71.1067C38.9713 71.7956 23.7196 99.1575 23.7196 99.1575C-32.5089 172.272 33.3366 186.626 33.3366 186.626C33.2182 186.088 33.1074 185.543 33.0016 184.987C33.0016 184.987 31.6515 179.456 29.3367 175.144C29.3367 175.144 19.3041 161.166 26.0571 144.102C26.0571 144.102 27.0219 142.665 27.0219 139.248C27.0219 139.248 31.3845 102.895 66.7292 90.8255C66.7292 90.8255 73.7114 88.5833 77.1849 88.4122C77.1849 88.4122 72.7039 89.7337 72.7467 92.7233C72.7467 92.7233 73.0465 93.9886 70.4747 94.4861C70.4747 94.4861 66.6586 95.1367 68.2027 100.272C68.2027 100.272 69.4823 98.2525 72.0767 97.935C72.3815 97.8968 72.6913 97.9103 72.9961 97.9553C75.0162 98.2457 84.1622 99.234 83.9456 92.7233C83.9456 92.7233 86.0916 100.742 95.9656 99.6775C95.9656 99.6775 100.661 99.5042 101.882 94.2114C101.92 94.0448 101.706 93.93 101.568 94.0493C100.96 94.5739 99.7187 95.1367 97.3711 94.4861C94.8573 93.7905 95.0991 92.7233 95.0991 92.7233C95.1419 89.7337 90.6609 88.4122 90.6609 88.4122C94.1344 88.5855 101.117 90.8255 101.117 90.8255C136.461 102.897 140.824 139.248 140.824 139.248C140.824 142.665 141.789 144.102 141.789 144.102C148.542 161.169 138.509 175.144 138.509 175.144C136.194 179.456 134.844 184.987 134.844 184.987C134.741 185.543 134.628 186.088 134.509 186.626C134.509 186.626 200.355 172.27 144.126 99.1575C144.126 99.1575 128.829 71.7978 83.9028 71.1067" fill="#C68E13"/>
<path d="M83.8977 71.1067C38.9713 71.7956 23.7196 99.1575 23.7196 99.1575C-32.5089 172.272 33.3366 186.626 33.3366 186.626C33.2182 186.088 33.1074 185.543 33.0016 184.987C33.0016 184.987 31.6515 179.456 29.3367 175.144C29.3367 175.144 19.3041 161.166 26.0571 144.102C26.0571 144.102 27.0219 142.665 27.0219 139.248C27.0219 139.248 31.3845 102.895 66.7292 90.8255C66.7292 90.8255 73.7114 88.5833 77.1849 88.4122C77.1849 88.4122 72.7039 89.7337 72.7467 92.7233C72.7467 92.7233 73.0465 93.9886 70.4747 94.4861C70.4747 94.4861 66.6586 95.1367 68.2027 100.272C68.2027 100.272 69.4823 98.2525 72.0767 97.935C72.3815 97.8968 72.6913 97.9103 72.9961 97.9553C75.0162 98.2457 84.1622 99.234 83.9456 92.7233C83.9456 92.7233 86.0916 100.742 95.9656 99.6775C95.9656 99.6775 100.661 99.5042 101.882 94.2114C101.92 94.0448 101.706 93.93 101.568 94.0493C100.96 94.5739 99.7187 95.1367 97.3711 94.4861C94.8573 93.7905 95.0991 92.7233 95.0991 92.7233C95.1419 89.7337 90.6609 88.4122 90.6609 88.4122C94.1344 88.5855 101.117 90.8255 101.117 90.8255C136.461 102.897 140.824 139.248 140.824 139.248C140.824 142.665 141.789 144.102 141.789 144.102C148.542 161.169 138.509 175.144 138.509 175.144C136.194 179.456 134.844 184.987 134.844 184.987C134.741 185.543 134.628 186.088 134.509 186.626C134.509 186.626 200.355 172.27 144.126 99.1575C144.126 99.1575 128.829 71.7978 83.9028 71.1067" stroke="#1D1D1B" stroke-width="0.755658" stroke-miterlimit="10"/>
<path d="M29.3342 175.144C29.3342 175.144 19.3015 161.166 26.0546 144.102C26.0546 144.102 27.0193 142.665 27.0193 139.248C27.0193 139.248 24.5106 138.935 24.3191 135.142C24.3191 135.142 24.1252 130.945 17.823 131.693C17.823 131.693 9.39739 132.091 12.7424 148.273C12.7424 148.273 13.2563 150.892 13.7727 151.983C13.7727 151.983 14.8658 154.455 14.9943 156.18C15.1228 157.904 15.6366 162.848 18.3393 167.33C18.3393 167.33 20.5257 170.664 19.8834 173.366C19.8834 173.366 18.9187 178.654 23.4199 179.631C23.4199 179.631 27.2788 180.32 27.7297 176.067C27.7297 176.067 27.2158 172.792 29.3367 175.147L29.3342 175.144Z" fill="#F8DACE" stroke="#1D1D1B" stroke-width="0.755658" stroke-miterlimit="10"/>
<path d="M83.8976 63.7495C24.8454 63.5199 11.9363 92.4892 11.9363 92.4892V116.474C11.9363 116.474 27.1149 89.3532 83.6407 89.0425H84.1596C140.683 89.3554 155.861 116.474 155.861 116.474V92.4892C155.861 92.4892 142.952 63.5199 83.9001 63.7495" fill="#D29C42"/>
<path d="M83.8976 63.7495C24.8454 63.5199 11.9363 92.4892 11.9363 92.4892V116.474C11.9363 116.474 27.1149 89.3532 83.6407 89.0425H84.1596C140.683 89.3554 155.861 116.474 155.861 116.474V92.4892C155.861 92.4892 142.952 63.5199 83.9001 63.7495" stroke="#1D1D1B" stroke-width="0.755658" stroke-miterlimit="10"/>
<path d="M83.9203 27.8824C42.1022 45.5863 25.7951 78.0338 25.7951 78.0338C15.1856 85.2469 11.959 92.4892 11.959 92.4892C11.959 92.4892 6.89605 50.2307 83.7767 1.06078L83.9001 1L84.0135 1.05403C160.904 50.2262 155.887 92.4892 155.887 92.4892C155.887 92.4892 152.66 85.2469 142.051 78.0338C142.051 78.0338 125.741 45.5863 83.9253 27.8824" fill="#D29C42"/>
<path d="M83.9203 27.8824C42.1022 45.5863 25.7951 78.0338 25.7951 78.0338C15.1856 85.2469 11.959 92.4892 11.959 92.4892C11.959 92.4892 6.89605 50.2307 83.7767 1.06078L83.9001 1L84.0135 1.05403C160.904 50.2262 155.887 92.4892 155.887 92.4892C155.887 92.4892 152.66 85.2469 142.051 78.0338C142.051 78.0338 125.741 45.5863 83.9253 27.8824" stroke="#1D1D1B" stroke-width="0.755658" stroke-miterlimit="10"/>
<path d="M84.1193 27.9679C83.8976 27.7383 83.7364 27.9611 83.7364 27.9611C76.807 30.908 70.5779 34.2579 65.0112 37.7969V64.7783C65.0112 64.7783 75.671 63.4636 83.9178 63.7495C84.5022 63.7293 85.0991 63.7157 85.7011 63.7112C93.6204 63.6414 102.824 64.7761 102.824 64.7761V37.7947C97.2627 34.2579 91.0411 30.9103 84.1168 27.9656L84.1193 27.9679Z" fill="#D29C42" stroke="#1D1D1B" stroke-width="0.755658" stroke-miterlimit="10"/>
<path d="M57.087 144.5C59.9388 144.5 62.2507 142.434 62.2507 139.885C62.2507 137.336 59.9388 135.27 57.087 135.27C54.2352 135.27 51.9233 137.336 51.9233 139.885C51.9233 142.434 54.2352 144.5 57.087 144.5Z" fill="#695A53" stroke="#1D1D1B" stroke-width="0.755658" stroke-miterlimit="10"/>
<path d="M57.0568 142.53C58.6552 142.53 59.9509 141.372 59.9509 139.944C59.9509 138.515 58.6552 137.357 57.0568 137.357C55.4584 137.357 54.1626 138.515 54.1626 139.944C54.1626 141.372 55.4584 142.53 57.0568 142.53Z" fill="#1D1D1B"/>
<path d="M54.6537 138.393C55.1419 138.393 55.5378 138.231 55.5378 138.032C55.5378 137.833 55.1419 137.672 54.6537 137.672C54.1654 137.672 53.7695 137.833 53.7695 138.032C53.7695 138.231 54.1654 138.393 54.6537 138.393Z" fill="white"/>
<path d="M60.3159 142.922C60.7497 142.599 60.9605 142.186 60.7868 141.999C60.6131 141.813 60.1206 141.924 59.6868 142.248C59.253 142.571 59.0422 142.984 59.2159 143.17C59.3896 143.356 59.8821 143.245 60.3159 142.922Z" fill="white"/>
<path d="M91.4948 132.15C91.7518 132.494 88.5377 134.793 90.0792 141.805C90.0792 141.805 91.8802 148.359 92.5225 160.543C92.5225 160.543 93.5528 163.877 95.7391 165.716C95.7391 165.716 99.7265 169.395 97.6686 175.718C97.6686 175.718 96.6787 178.823 93.9583 179.627" stroke="#1D1D1B" stroke-width="0.755658" stroke-miterlimit="10"/>
<path d="M125.965 141.002C125.965 141.002 122.129 152.267 98.2578 141.805C98.2578 141.805 114.389 126.4 125.965 141.002Z" fill="white" stroke="#1D1D1B" stroke-width="0.755658" stroke-miterlimit="10"/>
<path d="M125.965 141.002C125.965 141.002 126.479 148.014 117.348 148.359C117.348 148.359 108.366 149.163 98.2578 141.805C98.2578 141.805 103.842 132.724 114.902 132.15C114.902 132.15 123.776 131.461 125.963 141.002H125.965Z" stroke="#1D1D1B" stroke-width="0.755658" stroke-miterlimit="10"/>
<path d="M127.766 135.714C127.766 135.714 117.605 129.16 104.099 133.53C104.099 133.53 98.3109 136.749 97.1548 129.162" stroke="#1D1D1B" stroke-width="0.755658" stroke-miterlimit="10"/>
<path d="M132.053 133.185C132.184 133.397 125.537 123.606 103.243 127.438C103.243 127.438 99.3837 128.354 98.8698 126.517V126.134C98.8698 126.134 97.8396 122.609 118.164 123.606C118.164 123.606 126.31 123.912 132.056 133.185H132.053Z" fill="#C68E13" stroke="#1D1D1B" stroke-width="0.755658" stroke-miterlimit="10"/>
<path d="M105.157 151.488C103.177 150.054 101.064 148.186 98.8599 145.754" stroke="#1D1D1B" stroke-width="0.755658" stroke-miterlimit="10"/>
<path d="M127.766 143.456C127.766 143.456 128.323 145.63 127.53 148.271" stroke="#1D1D1B" stroke-width="0.755658" stroke-miterlimit="10"/>
<path d="M127.955 141.693C127.955 141.693 125.875 140.696 125.527 139.469C125.18 138.242 126.479 142.452 125.447 143.791C124.411 145.133 127.955 141.693 127.955 141.693Z" fill="#1D1D1B"/>
<path d="M103.971 176.329C103.971 176.329 98.9732 173.94 98.2578 172.272" stroke="#1D1D1B" stroke-width="0.755658" stroke-miterlimit="10"/>
<path d="M106.104 189.111C106.104 189.111 103.935 184.354 99.5325 180.863" stroke="#1D1D1B" stroke-width="0.755658" stroke-miterlimit="10"/>
<path d="M107.636 193.94C107.636 193.94 108.986 196.979 108.794 200.719" stroke="#1D1D1B" stroke-width="0.755658" stroke-miterlimit="10"/>
<path d="M138.504 175.144C138.504 175.144 148.537 161.166 141.784 144.102C141.784 144.102 140.819 142.665 140.819 139.248C140.819 139.248 143.328 138.935 143.519 135.142C143.519 135.142 143.713 130.945 150.015 131.693C150.015 131.693 158.441 132.091 155.096 148.273C155.096 148.273 154.582 150.892 154.066 151.983C154.066 151.983 152.973 154.455 152.844 156.18C152.716 157.904 152.202 162.848 149.499 167.33C149.499 167.33 147.313 170.664 147.955 173.366C147.955 173.366 148.92 178.654 144.419 179.631C144.419 179.631 140.56 180.32 140.109 176.067C140.109 176.067 140.623 172.792 138.502 175.147L138.504 175.144Z" fill="#F8DACE" stroke="#1D1D1B" stroke-width="0.755658" stroke-miterlimit="10"/>
<path d="M110.752 144.5C113.603 144.5 115.915 142.434 115.915 139.885C115.915 137.336 113.603 135.27 110.752 135.27C107.9 135.27 105.588 137.336 105.588 139.885C105.588 142.434 107.9 144.5 110.752 144.5Z" fill="#695A53" stroke="#1D1D1B" stroke-width="0.755658" stroke-miterlimit="10"/>
<path d="M110.784 142.53C112.382 142.53 113.678 141.372 113.678 139.944C113.678 138.515 112.382 137.357 110.784 137.357C109.186 137.357 107.89 138.515 107.89 139.944C107.89 141.372 109.186 142.53 110.784 142.53Z" fill="#1D1D1B"/>
<path d="M107.877 138.393C108.366 138.393 108.761 138.231 108.761 138.032C108.761 137.833 108.366 137.672 107.877 137.672C107.389 137.672 106.993 137.833 106.993 138.032C106.993 138.231 107.389 138.393 107.877 138.393Z" fill="white"/>
<path d="M113.54 142.922C113.974 142.598 114.184 142.185 114.011 141.999C113.837 141.813 113.345 141.924 112.911 142.247C112.477 142.57 112.266 142.984 112.44 143.17C112.614 143.356 113.106 143.245 113.54 142.922Z" fill="white"/>
</svg>
