<svg width="490" height="328" viewBox="0 0 490 328" fill="none" xmlns="http://www.w3.org/2000/svg">
<path d="M368.188 282.511C368.188 282.511 378.713 284.626 384.703 279.731C384.703 279.731 412.417 271.103 424.838 250.578C424.838 250.578 429.969 242.287 432.033 230.868C432.033 230.868 432.588 226.754 436.717 220.024C436.717 220.024 444.268 208 441.996 193.209C441.996 193.209 441.005 183.08 444.821 172.472C444.821 172.472 455.946 148.013 428.043 118.573C428.043 118.573 407.401 102.321 386.166 103.679C378.297 104.182 372.606 104.871 372.606 104.871C357.61 107.31 348.901 116.392 348.901 116.392C346.462 119.152 338.861 124.682 338.861 124.682C328.29 130.759 327.306 147.103 327.306 147.103C327.012 155.623 324.11 157.398 324.11 157.398C316.563 164.248 315.684 172.991 315.684 172.991C315.375 177 313.633 180.299 313.633 180.299C308.462 194.342 313.468 207.629 313.468 207.629C316.175 215.046 315.899 219.188 315.899 219.188C315.649 230.79 319.026 239.936 319.026 239.936C327.112 262.521 352.554 276.496 352.554 276.496C357.447 282.482 368.185 282.508 368.185 282.508" fill="#564636"/>
<path d="M368.188 282.511C368.188 282.511 378.713 284.626 384.703 279.731C384.703 279.731 412.417 271.103 424.838 250.578C424.838 250.578 429.969 242.287 432.033 230.868C432.033 230.868 432.588 226.754 436.717 220.024C436.717 220.024 444.268 208 441.996 193.209C441.996 193.209 441.005 183.08 444.821 172.472C444.821 172.472 455.946 148.013 428.043 118.573C428.043 118.573 407.401 102.321 386.166 103.679C378.297 104.182 372.606 104.871 372.606 104.871C357.61 107.31 348.901 116.392 348.901 116.392C346.462 119.152 338.861 124.682 338.861 124.682C328.29 130.759 327.306 147.103 327.306 147.103C327.012 155.623 324.11 157.398 324.11 157.398C316.563 164.248 315.684 172.991 315.684 172.991C315.375 177 313.633 180.299 313.633 180.299C308.462 194.342 313.468 207.629 313.468 207.629C316.175 215.046 315.899 219.188 315.899 219.188C315.649 230.79 319.026 239.936 319.026 239.936C327.112 262.521 352.554 276.496 352.554 276.496C357.447 282.482 368.185 282.508 368.185 282.508" stroke="#1D1D1B" stroke-width="0.823771" stroke-miterlimit="10"/>
<path d="M362.171 222.927C353.216 217.377 360.315 209.847 360.315 209.847C363.394 206.564 366.368 202.212 366.368 202.212C366.833 193.381 370.246 188.862 370.246 188.862C373.996 180.995 370.652 172.203 370.652 172.203" stroke="#1D1D1B" stroke-width="0.823771" stroke-miterlimit="10"/>
<path d="M385.946 225.318C395.826 221.661 390.368 212.869 390.368 212.869C388.005 209.038 385.957 204.182 385.957 204.182C387.259 195.435 384.814 190.326 384.814 190.326C382.706 181.871 387.733 173.921 387.733 173.921" stroke="#1D1D1B" stroke-width="0.823771" stroke-miterlimit="10"/>
<path d="M374.023 224.472C374.023 224.472 368.436 223.911 367.36 221.079C367.36 221.079 366.712 218.665 363.325 217.761C363.325 217.761 361.209 217.314 361.343 218.785C361.343 218.785 361.304 220.566 365.341 221.066" stroke="#1D1D1B" stroke-width="0.823771" stroke-miterlimit="10"/>
<path d="M374.023 224.472C374.023 224.472 379.61 225.034 381.229 222.473C381.229 222.473 382.345 220.237 385.843 220.025C385.843 220.025 388.006 220.008 387.582 221.423C387.582 221.423 387.265 223.177 383.209 222.863" stroke="#1D1D1B" stroke-width="0.823771" stroke-miterlimit="10"/>
<path d="M389.089 243.79C389.089 243.79 384.115 237.183 377.633 240.008C377.633 240.008 376.847 240.47 375.803 240.857C374.049 241.508 373.319 241.493 372.315 241.458C371.325 241.289 370.607 241.159 369.017 240.174C368.071 239.588 367.393 238.979 367.393 238.979C361.6 234.919 355.413 240.404 355.413 240.404C355.413 240.404 352.75 242.982 348.216 245.12L371.613 248.469L395.208 249.845C391.194 246.847 389.094 243.791 389.094 243.791L389.089 243.79Z" fill="#513A3A" stroke="#1D1D1B" stroke-width="0.823771" stroke-miterlimit="10"/>
<path d="M378.68 247.816C378.68 247.816 376.901 248.683 371.913 248.035C371.744 248.013 371.57 247.995 371.4 247.984C366.383 247.623 364.812 246.422 364.812 246.422C356.852 241.956 347.976 245.198 347.976 245.198C347.976 245.198 352.227 244.969 354.285 249.732C354.285 249.732 355.828 253.536 361.789 254.058C361.789 254.058 364.867 254.273 366.723 254.038C366.723 254.038 368.147 253.706 370.704 254.049C370.93 254.08 371.16 254.103 371.387 254.117C373.961 254.291 375.291 254.899 375.291 254.899C377.063 255.5 380.122 255.901 380.122 255.901C386.068 256.576 388.338 253.156 388.338 253.156C391.302 248.898 395.422 249.969 395.422 249.969C395.422 249.969 387.37 245.025 378.68 247.816Z" fill="#513A3A" stroke="#1D1D1B" stroke-width="0.823771" stroke-miterlimit="10"/>
<path d="M313.632 180.305C313.632 180.305 315.374 177.003 315.683 172.996C315.683 172.996 316.563 164.253 324.109 157.404C324.109 157.404 327.012 155.628 327.305 147.108C327.305 147.108 328.291 130.767 338.86 124.688C338.86 124.688 346.462 119.157 348.9 116.397C348.9 116.397 357.612 107.313 372.606 104.877C372.606 104.877 378.296 104.188 386.165 103.685C407.4 102.326 428.043 118.579 428.043 118.579C455.945 148.018 444.82 172.477 444.82 172.477C444.82 172.477 439.227 181.85 444.828 196.223C444.828 196.223 451.183 207.291 444.927 219.061C444.927 219.061 443.127 221.207 442.652 224.504C442.652 224.504 442.762 226.207 445.397 224.181C445.397 224.181 450.358 218.76 450.911 211.395C450.911 211.395 451.074 204.178 453.812 197.971C453.812 197.971 458.87 185.514 454.949 171.238C454.949 171.238 453.05 162.097 457.284 148.01C457.284 148.01 464.9 128.342 447.082 100.901C447.082 100.901 456.391 81.8265 436.176 72.3261C436.176 72.3261 440.318 68.6553 438.55 62.4171C438.55 62.4171 437.896 60.0498 437.849 57.6965C437.849 57.6965 438.985 53.8643 430.502 52.2607C430.502 52.2607 429.005 36.3272 410.172 48.9002C410.172 48.9002 396.228 41.813 381.068 60.1589C381.068 60.1589 349.652 65.6657 335.955 79.9336C335.955 79.9336 325.637 90.5229 321.758 99.4332C321.758 99.4332 318.781 105.685 314.132 109.871C314.132 109.871 295.794 121.255 298.798 157.257C298.798 157.257 299.386 162.637 298.491 167.307C298.491 167.307 298.103 169.769 296.747 172.03C296.747 172.03 292.264 177.359 297.449 188.872C297.449 188.872 294.424 207.014 304.859 210.472C304.859 210.472 310.37 207.502 304.529 199.729C304.529 199.729 298.726 196.234 313.621 180.304L313.632 180.305Z" fill="#DAE2E5" stroke="#1D1D1B" stroke-width="0.823771" stroke-miterlimit="10"/>
<path d="M312.443 166.665C312.443 166.665 318.046 159.302 318.199 147.269C318.199 147.269 317.076 131.094 330.443 124.297C330.443 124.297 337.774 120.064 339.019 113.284C339.019 113.284 339.234 104.146 352.516 101.676C352.516 101.676 357.707 101.212 360.123 98.2127C360.123 98.2127 370.05 84.9788 412.385 102.623" stroke="#1D1D1B" stroke-width="0.823771" stroke-miterlimit="10"/>
<path d="M297.457 188.87C297.457 188.87 299.152 176.922 307.459 165.778C307.459 165.778 312.353 161.266 311.084 146.553" stroke="#1D1D1B" stroke-width="0.823771" stroke-miterlimit="10"/>
<path d="M307.346 156.397C307.346 156.397 303.678 123.405 318.713 117.94C318.713 117.94 328.198 115.088 332.179 111.261C332.179 111.261 338.042 103.394 344.826 101.118" stroke="#1D1D1B" stroke-width="0.823771" stroke-miterlimit="10"/>
<path d="M339.774 100.61C339.774 100.61 345.568 92.3143 342.902 90.9893C342.902 90.9893 341.543 89.5804 337.154 95.3761C337.154 95.3761 332.681 102.011 326.527 106.464" stroke="#1D1D1B" stroke-width="0.823771" stroke-miterlimit="10"/>
<path d="M381.073 60.1593C381.073 60.1593 370.186 75.6949 374.06 87.6395C374.06 87.6395 391.202 89.0816 402.57 86.2782C402.57 86.2782 410.319 83.017 419.942 91.0303C419.942 91.0303 426.086 97.1924 436.448 99.7355C436.448 99.7355 439.284 99.5515 440.295 106.323C440.295 106.323 442.443 106.446 447.088 100.899" stroke="#1D1D1B" stroke-width="0.823771" stroke-miterlimit="10"/>
<path d="M374.057 87.6393C374.057 87.6393 367.014 87.1436 359.891 85.0862" stroke="#1D1D1B" stroke-width="0.823771" stroke-miterlimit="10"/>
<path d="M375.694 70.4588C372.336 73.281 370.632 77.0782 370.632 77.0782C366.83 77.753 363.304 82.6833 363.304 82.6833" stroke="#1D1D1B" stroke-width="0.823771" stroke-miterlimit="10"/>
<path d="M326.308 102.355C326.308 102.355 337.998 92.6102 341.712 86.5009C341.712 86.5009 343.66 81.8341 352.612 79.704C352.612 79.704 359.004 77.7995 361.671 75.7826C361.671 75.7826 366.737 71.2692 375.582 70.7456" stroke="#1D1D1B" stroke-width="0.823771" stroke-miterlimit="10"/>
<path d="M372.44 88.7129C372.644 88.6259 386.539 92.0072 402.251 89.9165C402.251 89.9165 407.488 88.7459 412.838 94.8751C412.838 94.8751 417.961 101.404 427.665 102.52C427.665 102.52 440.148 103.118 445.08 116.673C445.08 116.673 442.768 110.709 441.415 108.743C441.415 108.743 440.825 107.605 440.294 106.329" stroke="#1D1D1B" stroke-width="0.823771" stroke-miterlimit="10"/>
<path d="M447.909 123.532C447.909 123.532 452.841 137.556 451.64 162.096C451.64 162.096 451.408 167.198 453.242 172.783C453.242 172.783 456.915 182.204 454.188 194.203" stroke="#1D1D1B" stroke-width="0.823771" stroke-miterlimit="10"/>
<path d="M449.695 173.894C449.695 173.894 450.489 181.994 449.613 186.484C449.613 186.484 449.003 189.398 449.445 192.296C449.62 193.442 450.025 194.546 450.62 195.541C451.258 196.61 452.487 199.568 450.864 204.861" stroke="#1D1D1B" stroke-width="0.823771" stroke-miterlimit="10"/>
<path d="M313.468 207.632C313.468 207.632 309.858 198.051 311.935 186.561L313.339 181.376L313.63 180.302C300.871 193.946 303.297 198.468 304.258 199.486C304.532 199.776 304.797 200.073 305.042 200.387C306.141 201.806 306.322 202.616 306.645 204.448C307.262 207.946 305.608 209.91 305.608 209.91C304.484 217.406 308.709 217.411 308.709 217.411C312.578 217.8 312.566 214.487 312.566 214.487C313.377 211.329 315.066 212.892 315.066 212.892C314.707 211.388 314.194 209.628 313.465 207.631L313.468 207.632Z" fill="#564636" stroke="#1D1D1B" stroke-width="0.823771" stroke-miterlimit="10"/>
<path d="M441.998 193.212C443.727 208.076 436.719 220.027 436.719 220.027C435.607 221.839 434.754 223.461 434.102 224.864C434.102 224.864 436.071 223.668 436.235 226.925C436.235 226.925 435.564 230.169 439.433 230.558C439.433 230.558 443.095 231.299 443.857 225.089C443.857 225.089 442.52 223.431 444.822 219.197C444.822 219.197 451.546 210.813 445.437 197.462C445.437 197.462 441.931 187.84 442.278 183.459C442.278 183.459 441.693 190.598 441.995 193.214L441.998 193.212Z" fill="#564636" stroke="#1D1D1B" stroke-width="0.823771" stroke-miterlimit="10"/>
<path d="M336.481 165.172C336.677 165.335 345.177 159.986 358.035 167.339" stroke="#1D1D1B" stroke-width="0.823771" stroke-miterlimit="10"/>
<path d="M333.616 174.046C333.616 174.046 339.458 187.88 360.068 175.861C360.068 175.861 356.303 164.579 346.477 163.279C345.246 163.116 344.002 163.187 342.803 163.508C340.023 164.258 335.328 166.618 333.616 174.046Z" fill="#564636" stroke="#1D1D1B" stroke-width="0.823771" stroke-miterlimit="10"/>
<path d="M360.068 175.861C354.427 166.661 347.71 166.303 347.71 166.303C335.74 165.522 333.613 174.046 333.613 174.046C345.76 183.582 360.065 175.861 360.065 175.861L360.068 175.861Z" fill="white" stroke="#1D1D1B" stroke-width="0.823771" stroke-miterlimit="10"/>
<path d="M330.707 159.521C330.707 159.521 335.593 150.762 347.163 152.011C347.338 152.028 347.512 152.049 347.685 152.06C348.637 152.12 353.59 152.671 357.531 157.637C357.531 157.637 361.339 163.683 367.028 164.114C367.028 164.114 369.116 164.371 368.757 160.695C368.757 160.695 367.548 150.509 349.515 148.378C349.515 148.378 335.912 147.01 330.707 159.521Z" fill="#1E1914" stroke="#1D1D1B" stroke-width="0.823771" stroke-miterlimit="10"/>
<path d="M334.938 170.224C334.938 170.224 333.467 169.957 332.411 168.844" stroke="#1D1D1B" stroke-width="0.823771" stroke-miterlimit="10"/>
<path d="M331.531 164.674C331.867 163.22 332.729 161.397 334.413 159.116" stroke="#1D1D1B" stroke-width="0.823771" stroke-miterlimit="10"/>
<path d="M358.083 176.961C360.574 176.014 362.836 177.011 362.836 177.011C359.966 175.693 359.373 174.177 359.373 174.177C359.373 174.177 359.735 175.162 360.068 175.858L358.083 176.961Z" fill="#1D1D1B"/>
<path d="M332.842 174.743C332.842 174.743 331.075 176.892 332.97 180.464" stroke="#1D1D1B" stroke-width="0.823771" stroke-miterlimit="10"/>
<path d="M362.67 178.659C362.67 178.659 359.293 177.966 355.897 183.685" stroke="#1D1D1B" stroke-width="0.823771" stroke-miterlimit="10"/>
<path d="M347.988 178.609C351.081 178.92 353.841 176.665 354.152 173.572C354.463 170.478 352.207 167.719 349.114 167.408C346.021 167.097 343.261 169.352 342.95 172.445C342.639 175.539 344.894 178.298 347.988 178.609Z" fill="#1E1E1E" stroke="#1D1D1B" stroke-width="0.823771" stroke-miterlimit="10"/>
<path d="M348.195 176.215C349.929 176.39 351.476 175.126 351.65 173.392C351.825 171.658 350.56 170.111 348.827 169.937C347.093 169.763 345.546 171.027 345.372 172.761C345.198 174.494 346.462 176.041 348.195 176.215Z" fill="#1D1D1B"/>
<path d="M346.094 170.932C346.623 170.985 347.072 170.832 347.097 170.591C347.121 170.35 346.711 170.111 346.182 170.057C345.652 170.004 345.203 170.157 345.179 170.398C345.154 170.64 345.564 170.879 346.094 170.932Z" fill="white"/>
<path d="M351.684 177.046C352.194 176.701 352.473 176.223 352.307 175.978C352.142 175.733 351.594 175.814 351.084 176.159C350.574 176.504 350.295 176.982 350.461 177.227C350.626 177.472 351.174 177.391 351.684 177.046Z" fill="white"/>
<path d="M423.289 173.9C423.064 174.021 415.8 167.086 401.735 171.733" stroke="#1D1D1B" stroke-width="0.823771" stroke-miterlimit="10"/>
<path d="M424.33 183.167C424.33 183.167 415.851 195.561 398.047 179.68C398.047 179.68 403.982 169.373 413.87 170.055C415.109 170.141 416.313 170.458 417.425 171.011C420 172.3 424.131 175.547 424.33 183.167Z" fill="#564636" stroke="#1D1D1B" stroke-width="0.823771" stroke-miterlimit="10"/>
<path d="M398.047 179.68C405.406 171.787 412.06 172.774 412.06 172.774C423.946 174.391 424.333 183.167 424.333 183.167C410.531 190.095 398.049 179.68 398.049 179.68L398.047 179.68Z" fill="white" stroke="#1D1D1B" stroke-width="0.823771" stroke-miterlimit="10"/>
<path d="M430.031 169.508C430.031 169.508 426.988 159.951 415.4 158.872C415.225 158.854 415.05 158.839 414.879 158.817C413.934 158.686 408.97 158.239 404.119 162.322C404.119 162.322 399.184 167.488 393.524 166.778C393.524 166.778 391.426 166.614 392.51 163.083C392.51 163.083 395.722 153.341 413.818 154.844C413.818 154.844 427.422 156.211 430.031 169.508Z" fill="#1E1914" stroke="#1D1D1B" stroke-width="0.823771" stroke-miterlimit="10"/>
<path d="M423.795 179.158C423.795 179.158 425.29 179.19 426.546 178.309" stroke="#1D1D1B" stroke-width="0.823771" stroke-miterlimit="10"/>
<path d="M428.24 174.398C428.199 172.906 427.717 170.948 426.521 168.377" stroke="#1D1D1B" stroke-width="0.823771" stroke-miterlimit="10"/>
<path d="M399.77 181.153C397.517 179.729 395.102 180.256 395.102 180.256C398.177 179.536 399.06 178.167 399.06 178.167C399.06 178.167 398.509 179.061 398.044 179.677L399.77 181.153Z" fill="#1D1D1B"/>
<path d="M424.95 184.005C424.95 184.005 426.254 186.462 423.685 189.585" stroke="#1D1D1B" stroke-width="0.823771" stroke-miterlimit="10"/>
<path d="M394.939 181.903C394.939 181.903 398.387 181.897 400.576 188.177" stroke="#1D1D1B" stroke-width="0.823771" stroke-miterlimit="10"/>
<path d="M409.239 184.851C412.332 185.162 415.092 182.906 415.403 179.813C415.714 176.72 413.459 173.96 410.365 173.649C407.272 173.338 404.512 175.594 404.201 178.687C403.89 181.78 406.146 184.54 409.239 184.851Z" fill="#1E1E1E" stroke="#1D1D1B" stroke-width="0.823771" stroke-miterlimit="10"/>
<path d="M409.611 182.391C411.344 182.565 412.891 181.301 413.065 179.567C413.24 177.833 411.976 176.287 410.242 176.112C408.508 175.938 406.961 177.202 406.787 178.936C406.613 180.67 407.877 182.216 409.611 182.391Z" fill="#1D1D1B"/>
<path d="M406.963 177.052C407.492 177.105 407.941 176.953 407.966 176.711C407.99 176.47 407.58 176.231 407.051 176.178C406.521 176.124 406.072 176.277 406.048 176.518C406.023 176.76 406.433 176.999 406.963 177.052Z" fill="white"/>
<path d="M412.552 183.166C413.062 182.821 413.341 182.343 413.175 182.098C413.01 181.853 412.462 181.934 411.952 182.279C411.442 182.624 411.163 183.102 411.329 183.347C411.494 183.592 412.042 183.511 412.552 183.166Z" fill="white"/>
<g clip-path="url(#clip0_224_2)">
<path d="M216.132 145.342C212.741 114.874 195.225 95.9528 195.225 95.9528C155.628 55.2518 110.287 76.4168 110.287 76.4168C110.287 76.4168 62.804 92.1977 62.0062 148.977C62.0062 148.977 62.2858 174.758 80.7567 199.224C80.7567 199.224 85.3221 204.686 87.1355 213.946C88.9489 223.206 91.7953 227.48 98.3671 233.808C98.3671 233.808 105.362 240.278 111.557 251.927C111.557 251.927 129.726 297.024 190.025 276.766C247.751 250.045 229.962 204.8 229.962 204.8C226.46 192.079 227.093 182.572 227.093 182.572C227.521 173.458 226.65 168.398 221.604 160.425C216.558 152.451 216.121 145.346 216.121 145.346L216.132 145.342Z" fill="#F2BAA4" stroke="#1D1D1B" stroke-width="0.851376" stroke-miterlimit="10"/>
<path d="M140.676 175.375C140.676 175.375 147.143 186.528 147.595 204.907C147.595 204.907 139.73 208.66 142.787 214.774C142.787 214.774 145.305 221.882 154.109 219.315C154.109 219.315 159.568 223.068 167.415 219.945" stroke="#1D1D1B" stroke-width="0.851376" stroke-miterlimit="10"/>
<path d="M156.217 169.189C156.217 169.189 159.183 181.736 171.484 195.398C171.484 195.398 179.777 192.721 181.758 199.263C181.758 199.263 184.813 206.156 176.653 210.342C176.653 210.342 175.267 216.82 167.42 219.943" stroke="#1D1D1B" stroke-width="0.851376" stroke-miterlimit="10"/>
<path d="M166.155 225.285C166.155 225.285 168.057 230.453 168.319 234.25" stroke="#1D1D1B" stroke-width="0.851376" stroke-miterlimit="10"/>
<path d="M197.46 229.474C193.03 231.897 189.755 232.263 189.755 232.263C179.501 233.537 174.866 238.66 174.866 238.66C174.866 238.66 167.981 238.122 159.654 244.244C159.654 244.244 157.023 246.229 152.14 247.513C151.977 247.556 151.99 247.795 152.152 247.841C154.479 248.509 164.307 250.899 173.212 246.536L177.386 244.99L181.481 243.245C190.946 240.296 196.445 231.805 197.677 229.721C197.764 229.576 197.608 229.394 197.46 229.474Z" fill="#E89C9C" stroke="#1D1D1B" stroke-width="0.851376" stroke-miterlimit="10"/>
<path d="M187.265 236.22C187.265 236.22 181.406 237.962 177.574 240.874C177.574 240.874 177.122 241.073 175.998 241.502C174.889 241.962 174.421 242.13 174.421 242.13C169.636 242.647 164.183 245.407 164.183 245.407C158.285 247.443 150.16 247.403 150.16 247.403C166.191 252.409 167.721 249.1 177.385 244.988C187.231 241.331 190.617 242.684 198.824 228.034C198.824 228.034 192.948 233.647 187.265 236.22Z" fill="#E89C9C" stroke="#1D1D1B" stroke-width="0.851376" stroke-miterlimit="10"/>
<path d="M141.333 248.732C141.333 248.732 132.504 236.495 144.907 220.171" stroke="#1D1D1B" stroke-width="0.851376" stroke-miterlimit="10"/>
<path d="M110.193 203.416C110.193 203.416 124.911 211.984 133.549 188.817C133.549 188.817 134.308 186.41 134.362 185.763C134.362 185.763 134.944 183.503 135.861 183.061" stroke="#1D1D1B" stroke-width="0.851376" stroke-miterlimit="10"/>
<path d="M107.231 204.986C107.231 204.986 105.545 207.218 105.096 209.421" stroke="#1D1D1B" stroke-width="0.851376" stroke-miterlimit="10"/>
<path d="M100.368 205.768C100.368 205.768 99.1086 202.995 100.443 200.668" stroke="#1D1D1B" stroke-width="0.851376" stroke-miterlimit="10"/>
<path d="M106.146 194.031C106.146 194.031 121.993 203.71 132.302 182.761C132.302 182.761 127.789 182.765 123.58 181.398C123.58 181.398 115.68 177.966 111.395 186.248C111.395 186.248 109.544 190.805 106.148 194.03L106.146 194.031Z" stroke="#1D1D1B" stroke-width="0.851376" stroke-miterlimit="10"/>
<path d="M106.146 194.031C106.146 194.031 108.436 192.34 111.086 192.922C111.086 192.922 122.425 196.131 129.264 185.687C129.264 185.687 130.141 183.777 131.947 182.827C133.752 181.876 127.047 184.23 120.915 182.538C120.915 182.538 116.14 181.708 113.119 186.655C113.119 186.655 111.054 190.284 106.148 194.03L106.146 194.031Z" fill="white" stroke="#1D1D1B" stroke-width="0.851376" stroke-miterlimit="10"/>
<path opacity="0.51" d="M96.1671 183.265C96.1671 183.265 98.3355 173.434 108.979 173.721C108.979 173.721 119.919 173.735 125.559 171.566C125.559 171.566 130.094 169.761 131.308 168.499C131.308 168.499 132.857 167.103 130.605 163.009C130.605 163.009 129.505 161.03 128.28 160.892C128.28 160.892 126.8 160.311 123.635 162.35C123.635 162.35 120.24 164.404 113.258 163.905C113.258 163.905 107.137 162.832 101.064 166.966C101.064 166.966 96.2667 170.592 96.1645 183.266L96.1671 183.265Z" fill="#9C9B9B" stroke="#1D1D1B" stroke-width="0.851376" stroke-miterlimit="10"/>
<path d="M96.1671 183.265C96.1671 183.265 98.3355 173.434 108.979 173.721C108.979 173.721 119.919 173.735 125.559 171.566C125.559 171.566 130.094 169.761 131.308 168.499C131.308 168.499 132.857 167.103 130.605 163.009C130.605 163.009 129.505 161.03 128.28 160.892C128.28 160.892 126.8 160.311 123.635 162.35C123.635 162.35 120.24 164.404 113.258 163.905C113.258 163.905 107.137 162.832 101.064 166.966C101.064 166.966 96.2667 170.592 96.1645 183.266L96.1671 183.265Z" stroke="#1D1D1B" stroke-width="0.851376" stroke-miterlimit="10"/>
<path d="M186.818 268.687C186.818 268.687 188.485 275.509 170.565 275.156" stroke="#1D1D1B" stroke-width="0.851376" stroke-miterlimit="10"/>
<path d="M102.646 238.498C100.122 235.425 98.3744 233.805 98.3744 233.805C91.8 227.478 88.9562 223.204 87.1429 213.943C85.3295 204.683 80.764 199.222 80.764 199.222C80.764 199.222 74.1607 189.684 65.5383 195.456C65.5383 195.456 58.4774 201.229 67.9289 213.61C67.9289 213.61 70.8694 217.076 73.1954 221.163C73.1954 221.163 75.9603 227.127 85.4758 233.529C85.4758 233.529 89.3821 235.508 92.1223 238.993C92.1223 238.993 92.9968 240.408 93.7476 242.033C93.7476 242.033 95.4265 247.034 99.9666 246.684C99.9666 246.684 105.731 245.428 103.13 239.707L102.647 238.491L102.646 238.498Z" fill="#F2BAA4" stroke="#1D1D1B" stroke-width="0.851376" stroke-miterlimit="10"/>
<path d="M89.6814 160.891C89.6814 160.891 92.9724 148.585 113.316 147.975C113.316 147.975 126.114 148.027 136.818 143.065" stroke="#1D1D1B" stroke-width="0.851376" stroke-miterlimit="10"/>
<path d="M115.896 132.909C115.896 132.909 118.468 132.225 123.629 129.999C123.629 129.999 127.139 128.434 130.467 127.11" stroke="#1D1D1B" stroke-width="0.851376" stroke-miterlimit="10"/>
<path d="M108.777 123.656C108.777 123.656 112.247 121.185 114.831 119.842" stroke="#1D1D1B" stroke-width="0.851376" stroke-miterlimit="10"/>
<path d="M102.384 197.712C102.384 197.712 103.802 195.993 106.145 194.031" stroke="#1D1D1B" stroke-width="0.851376" stroke-miterlimit="10"/>
<path d="M69.9456 144.882C72.2477 133.361 73.8591 121.961 73.5653 106.98C73.5653 106.98 66.138 106.054 63.9039 111.415C63.9039 111.415 55.0225 130.25 56.3909 156.019C56.3909 156.019 61.0102 182.444 75.5144 191.488C75.5144 191.488 64.6893 171.205 69.9493 144.883L69.9456 144.882Z" fill="#9C9B9B" stroke="#1D1D1B" stroke-width="0.851376" stroke-miterlimit="10"/>
<path d="M122.034 191.451C124.294 190.552 125.397 187.99 124.498 185.73C123.598 183.47 121.037 182.367 118.777 183.267C116.517 184.166 115.414 186.728 116.313 188.988C117.213 191.248 119.774 192.351 122.034 191.451Z" fill="#332E24" stroke="#1D1D1B" stroke-width="0.851376" stroke-miterlimit="10"/>
<path d="M121.313 189.716C122.58 189.212 123.199 187.776 122.694 186.509C122.19 185.242 120.754 184.624 119.487 185.128C118.22 185.633 117.602 187.068 118.106 188.335C118.611 189.602 120.047 190.221 121.313 189.716Z" fill="#1D1D1B"/>
<path d="M117.949 186.804C118.336 186.65 118.593 186.382 118.523 186.205C118.453 186.029 118.082 186.011 117.695 186.166C117.307 186.32 117.05 186.588 117.12 186.764C117.191 186.94 117.561 186.958 117.949 186.804Z" fill="white"/>
<path d="M124.037 189.032C124.267 188.609 124.287 188.176 124.084 188.066C123.88 187.955 123.528 188.208 123.299 188.631C123.07 189.054 123.049 189.487 123.253 189.597C123.457 189.708 123.808 189.455 124.037 189.032Z" fill="white"/>
<path d="M172.004 222.957C172.004 222.957 174.174 228.019 176.593 230.956" stroke="#1D1D1B" stroke-width="0.851376" stroke-miterlimit="10"/>
<path d="M206.149 222.934C206.149 222.934 204.154 207.976 183.926 204.64" stroke="#1D1D1B" stroke-width="0.851376" stroke-miterlimit="10"/>
<path d="M197.632 168.613C197.632 168.613 192.828 184.952 170.632 174.057C170.632 174.057 168.427 172.83 167.943 172.397C167.943 172.397 165.967 171.155 164.997 171.465" stroke="#1D1D1B" stroke-width="0.851376" stroke-miterlimit="10"/>
<path d="M200.862 167.718C200.862 167.718 203.621 168.181 205.461 169.474" stroke="#1D1D1B" stroke-width="0.851376" stroke-miterlimit="10"/>
<path d="M206.386 163.571C206.386 163.571 205.395 160.691 202.827 159.917" stroke="#1D1D1B" stroke-width="0.851376" stroke-miterlimit="10"/>
<path d="M194.123 159.014C194.123 159.014 191.298 159.359 189.772 161.604C189.772 161.604 183.74 171.726 171.594 168.839C171.594 168.839 169.645 168.054 167.68 168.604C165.715 169.154 172.204 166.257 175.496 160.814C175.496 160.814 178.394 156.929 183.989 158.447C183.989 158.447 187.983 159.665 194.12 159.015L194.123 159.014Z" fill="white" stroke="#1D1D1B" stroke-width="0.851376" stroke-miterlimit="10"/>
<path d="M194.123 159.014C194.123 159.014 189.261 176.936 167.376 168.801C167.376 168.801 170.657 165.702 172.776 161.817C172.776 161.817 176.157 153.895 184.96 156.967C184.96 156.967 189.437 159.006 194.12 159.015L194.123 159.014Z" stroke="#1D1D1B" stroke-width="0.851376" stroke-miterlimit="10"/>
<path opacity="0.51" d="M193.974 144.335C193.974 144.335 185.643 138.683 178.108 146.206C178.108 146.206 170.17 153.734 164.582 156.034C164.582 156.034 160.047 157.839 158.298 157.756C158.298 157.756 156.213 157.807 155.036 153.285C155.036 153.285 154.475 151.092 155.27 150.149C155.27 150.149 155.946 148.71 159.647 148.016C159.647 148.016 163.524 147.175 168.255 142.015C168.255 142.015 171.964 137.03 179.216 135.859C179.216 135.859 185.193 135.197 193.977 144.334L193.974 144.335Z" fill="#9C9B9B" stroke="#1D1D1B" stroke-width="0.851376" stroke-miterlimit="10"/>
<path d="M193.974 144.335C193.974 144.335 185.643 138.683 178.108 146.206C178.108 146.206 170.17 153.734 164.582 156.034C164.582 156.034 160.047 157.839 158.298 157.756C158.298 157.756 156.213 157.807 155.036 153.285C155.036 153.285 154.475 151.092 155.27 150.149C155.27 150.149 155.946 148.71 159.647 148.016C159.647 148.016 163.524 147.175 168.255 142.015C168.255 142.015 171.964 137.03 179.216 135.859C179.216 135.859 185.193 135.197 193.977 144.334L193.974 144.335Z" stroke="#1D1D1B" stroke-width="0.851376" stroke-miterlimit="10"/>
<path d="M186.817 268.687C186.817 268.687 190.294 274.789 203.07 262.218" stroke="#1D1D1B" stroke-width="0.851376" stroke-miterlimit="10"/>
<path d="M227.222 188.914C226.944 184.947 227.1 182.569 227.1 182.569C227.529 173.455 226.657 168.395 221.611 160.422C216.565 152.448 216.129 145.343 216.129 145.343C216.129 145.343 214.372 133.877 224.602 132.145C224.602 132.145 233.699 131.487 235.341 146.976C235.341 146.976 235.586 151.515 236.705 156.082C236.705 156.082 238.795 162.315 236.281 173.505C236.281 173.505 234.804 177.627 235.208 182.042C235.208 182.042 235.544 183.671 236.116 185.367C236.116 185.367 238.333 190.154 234.794 193.02C234.794 193.02 229.743 196.069 227.701 190.125L227.217 188.909L227.222 188.914Z" fill="#F2BAA4" stroke="#1D1D1B" stroke-width="0.851376" stroke-miterlimit="10"/>
<path d="M183.311 123.624C183.311 123.624 172.464 116.946 157.265 130.482C157.265 130.482 148.004 139.315 136.817 143.065" stroke="#1D1D1B" stroke-width="0.851376" stroke-miterlimit="10"/>
<path d="M145.037 121.31C145.037 121.31 142.699 122.58 137.42 124.51C137.42 124.51 133.794 125.785 130.467 127.11" stroke="#1D1D1B" stroke-width="0.851376" stroke-miterlimit="10"/>
<path d="M143.851 109.696C143.851 109.696 139.632 110.285 136.832 111.085" stroke="#1D1D1B" stroke-width="0.851376" stroke-miterlimit="10"/>
<path d="M199.385 159.103C199.385 159.103 197.174 158.829 194.123 159.014" stroke="#1D1D1B" stroke-width="0.851376" stroke-miterlimit="10"/>
<path d="M186.648 98.432C177.058 91.6438 168.054 84.4698 157.973 73.3843C157.973 73.3843 162.732 67.6076 168.039 69.967C168.039 69.967 187.434 77.5471 204.148 97.2086C204.148 97.2086 218.951 119.58 214.629 136.117C214.629 136.117 208.555 113.943 186.646 98.4356L186.648 98.432Z" fill="#9C9B9B" stroke="#1D1D1B" stroke-width="0.851376" stroke-miterlimit="10"/>
<path d="M180.807 168.058C183.067 167.159 184.17 164.597 183.271 162.337C182.371 160.077 179.81 158.974 177.55 159.874C175.29 160.773 174.187 163.335 175.086 165.595C175.986 167.855 178.547 168.958 180.807 168.058Z" fill="#332E24" stroke="#1D1D1B" stroke-width="0.851376" stroke-miterlimit="10"/>
<path d="M180.139 166.302C181.406 165.798 182.024 164.362 181.52 163.095C181.016 161.828 179.58 161.21 178.313 161.714C177.046 162.219 176.428 163.655 176.932 164.921C177.436 166.188 178.872 166.807 180.139 166.302Z" fill="#1D1D1B"/>
<path d="M176.374 163.549C176.761 163.395 177.018 163.127 176.948 162.951C176.878 162.775 176.507 162.757 176.12 162.911C175.732 163.065 175.475 163.333 175.545 163.509C175.615 163.686 175.986 163.703 176.374 163.549Z" fill="white"/>
<path d="M182.461 165.776C182.691 165.353 182.711 164.921 182.507 164.81C182.303 164.7 181.952 164.953 181.723 165.376C181.493 165.799 181.473 166.231 181.677 166.342C181.88 166.453 182.232 166.199 182.461 165.776Z" fill="white"/>
</g>
<path d="M333.157 157.709C333.157 157.709 329.819 151.361 330.172 141.812C330.172 141.812 327.447 137.996 329.95 130.353C329.95 130.353 332.877 124.349 328.474 118.021C328.474 118.021 324.597 111.985 327.059 103.604C327.059 103.604 321.509 100.511 318.545 92.7328C318.545 92.7328 305.694 89.7986 308.57 72.8827C308.57 72.8827 293.562 73.6866 293.993 53.0521C293.993 53.0521 295.231 35.5599 273.112 39.7263L261.844 40.3993L250.632 41.0688C229.176 42.3502 231.487 56.7849 231.487 56.7849C234.373 77.2213 219.373 78.2095 219.373 78.2095C224.242 94.6656 211.832 99.1057 211.832 99.1057C209.816 107.184 204.671 110.913 204.671 110.913C208.111 118.942 204.982 125.396 204.982 125.396C201.364 132.205 204.985 137.816 204.985 137.816C208.38 145.106 206.128 149.219 206.128 149.219C207.615 158.659 205.056 165.359 205.056 165.359C200.384 175.422 210.103 187.887 210.103 187.887C215.371 194.788 216.273 202.923 216.273 202.923C218.246 215.019 223.304 223.041 223.304 223.041C230.605 236.066 260.132 245.962 260.132 245.962C264.991 251.779 268.672 249.616 268.672 249.616C270.623 249.015 273.57 248.674 274.304 248.594C275.046 248.585 278.01 248.577 280.019 248.938C280.019 248.938 283.928 250.648 288.063 244.294C288.063 244.294 316.203 230.957 321.901 217.153C321.901 217.153 325.969 208.583 326.488 196.341C326.488 196.341 326.415 188.156 330.825 180.677C330.825 180.677 338.991 167.145 333.155 157.709L333.157 157.709Z" fill="#F1C8C0" stroke="#1D1D1B" stroke-width="0.81388" stroke-miterlimit="10"/>
<path d="M271.006 192.854C271.006 192.854 266.483 193.124 264.478 189.773C264.478 189.773 263.082 185 257.673 185.046C257.673 185.046 254.085 185.399 259.728 189.226" stroke="#1D1D1B" stroke-width="0.81388" stroke-miterlimit="10"/>
<path d="M270.949 192.858C270.949 192.858 275.471 192.588 277.063 189.022C277.063 189.022 277.882 184.116 283.257 183.518C283.257 183.518 286.862 183.442 281.715 187.913" stroke="#1D1D1B" stroke-width="0.81388" stroke-miterlimit="10"/>
<path d="M260.064 192.537C260.064 192.537 253.968 190.404 253.696 185.841C253.696 185.841 253.056 179.772 256.755 176.638C256.755 176.638 260.195 173.796 260.549 170.443C260.549 170.443 259.836 156.19 262.112 145.509C262.112 145.509 263.798 138.886 257.267 131.783" stroke="#1D1D1B" stroke-width="0.81388" stroke-miterlimit="10"/>
<path d="M281.775 191.241C281.775 191.241 287.573 188.397 287.301 183.834C287.301 183.834 287.214 177.732 283.168 175.06C283.168 175.06 279.414 172.648 278.664 169.361C278.664 169.361 277.675 155.125 274.144 144.791C274.144 144.791 271.682 138.415 277.321 130.585" stroke="#1D1D1B" stroke-width="0.81388" stroke-miterlimit="10"/>
<path d="M216.842 135.719C216.842 135.719 219.347 135.847 222.624 132.599C222.624 132.599 224.809 129.694 229.162 130.543C229.162 130.543 238.884 133.014 246.627 130.193C246.627 130.193 250.978 128.683 251.413 124.354C251.413 124.354 251.703 122.394 249.886 122.087C249.886 122.087 248.06 121.641 246.394 123.961C246.394 123.961 245.755 127.19 231.832 124.138C231.832 124.138 224.225 122.233 216.668 132.816C216.668 132.816 214.329 136.426 216.842 135.719Z" fill="#908581" stroke="#1D1D1B" stroke-width="0.81388" stroke-miterlimit="10"/>
<path d="M251.367 146.89C251.367 146.89 243.463 151.341 234.862 151.485C234.862 151.485 228.514 152.234 222.1 148.638C222.1 148.638 220.932 147.691 218.96 147.159C218.96 147.159 223.547 146.516 225.99 144.057C225.99 144.057 236.147 135.958 244.576 142.3C244.576 142.3 248.067 145.144 251.367 146.89Z" fill="white" stroke="#1D1D1B" stroke-width="0.81388" stroke-miterlimit="10"/>
<path d="M250.974 146.674C235.697 120.463 219.855 146.989 219.855 146.989C219.855 146.989 223.322 154.946 235.834 153.829C235.834 153.829 244.365 153.331 251.001 147.086L250.976 146.674L250.974 146.674Z" stroke="#1D1D1B" stroke-width="0.81388" stroke-miterlimit="10"/>
<path d="M218.57 149.958C218.57 149.958 221.071 151.567 221.752 155.228C221.752 155.228 222.145 158.721 226.751 159.924" stroke="#1D1D1B" stroke-width="0.81388" stroke-miterlimit="10"/>
<path d="M251.093 148.662C251.093 148.662 248.47 150.208 246.723 153.503C246.723 153.503 243.96 158.339 239.752 159.145" stroke="#1D1D1B" stroke-width="0.81388" stroke-miterlimit="10"/>
<path d="M240.647 136.04C240.647 136.04 249.239 139.891 250.608 134.227" stroke="#1D1D1B" stroke-width="0.81388" stroke-miterlimit="10"/>
<path d="M250.682 119.082C250.682 119.082 256.243 128.558 247.118 130.674" stroke="#1D1D1B" stroke-width="0.81388" stroke-miterlimit="10"/>
<path d="M253.923 112.966C253.923 112.966 256.781 118.995 256.06 123.941" stroke="#1D1D1B" stroke-width="0.81388" stroke-miterlimit="10"/>
<path d="M251.937 184.28C251.937 184.28 249.547 191.5 239.359 197.522C239.359 197.522 235.908 199.394 236.882 204.054" stroke="#1D1D1B" stroke-width="0.81388" stroke-miterlimit="10"/>
<path d="M245.538 213.805C245.538 213.805 244.287 210.689 247.763 209.647" stroke="#1D1D1B" stroke-width="0.81388" stroke-miterlimit="10"/>
<path d="M283.982 208.041C283.982 208.041 279.072 204.817 275.992 207.501C275.992 207.501 274.16 209.261 271.967 209.405C269.773 209.523 267.744 207.994 267.744 207.994C264.37 205.698 259.875 209.48 259.875 209.48C252.629 213.615 247.331 211.686 247.331 211.686C247.331 211.686 253.381 214.238 255.377 217.451L272.414 216.434L289.394 215.42C290.994 211.992 296.697 208.738 296.697 208.738C296.697 208.738 291.669 211.283 283.98 208.041L283.982 208.041Z" fill="#E89C9C" stroke="#1D1D1B" stroke-width="0.81388" stroke-miterlimit="10"/>
<path d="M249.155 212.561C248.089 212.005 247.331 211.686 247.331 211.686C247.331 211.686 248.116 212.088 249.155 212.561Z" fill="#E89C9C" stroke="#1D1D1B" stroke-width="0.81388" stroke-miterlimit="10"/>
<path d="M294.99 209.824C295.965 209.23 296.697 208.738 296.697 208.738C296.697 208.738 295.982 209.148 294.99 209.824Z" fill="#E89C9C" stroke="#1D1D1B" stroke-width="0.81388" stroke-miterlimit="10"/>
<path d="M290.641 211.875C290.641 211.875 286.789 212.453 283.059 211.564C283.059 211.564 278.663 210.576 275.744 212.62C275.744 212.62 274.261 213.228 272.205 213.391C270.144 213.476 268.6 213.047 268.6 213.047C265.458 211.365 261.21 212.869 261.21 212.869C257.612 214.195 253.719 214.08 253.719 214.08C252.809 214.134 250.703 213.268 249.155 212.561C251.104 213.575 254.087 215.376 255.377 217.451C255.377 217.451 257.697 221.12 266.204 219.762C267.168 219.606 268.142 219.532 269.118 219.547C269.931 219.558 271.078 219.557 272.54 219.508C272.54 219.508 272.559 219.507 272.57 219.506C272.581 219.506 272.589 219.505 272.6 219.505C274.057 219.379 275.196 219.244 276.002 219.136C276.97 219.004 277.946 218.965 278.921 219.002C287.53 219.341 289.396 215.42 289.396 215.42C290.43 213.205 293.177 211.063 294.992 209.824C293.539 210.71 291.551 211.82 290.641 211.875Z" fill="#E89C9C" stroke="#1D1D1B" stroke-width="0.81388" stroke-miterlimit="10"/>
<path d="M272.905 224.661C272.905 224.661 271.238 224.736 269.784 225.195" stroke="#1D1D1B" stroke-width="0.81388" stroke-miterlimit="10"/>
<path d="M270.434 229.119C271.573 228.757 272.122 228.668 273.145 228.672" stroke="#1D1D1B" stroke-width="0.81388" stroke-miterlimit="10"/>
<path d="M258.932 234.793C258.997 234.743 259.892 233.293 262.099 231.851" stroke="#1D1D1B" stroke-width="0.81388" stroke-miterlimit="10"/>
<path d="M234.359 53.4145C235.145 59.6619 240.312 70.8549 267.661 68.8194C267.661 68.8194 278.934 67.0346 287.838 72.0553C287.838 72.0553 295.536 75.482 281.777 63.5356C281.777 63.5356 289.799 63.0566 292.42 65.1204C292.42 65.1204 294.086 66.4478 291.872 57.5026C291.872 57.5026 291.343 53.2782 293.99 53.0522C293.556 73.6869 308.567 72.8829 308.567 72.8829C305.691 89.8015 318.542 92.7329 318.542 92.7329C321.504 100.514 327.056 103.604 327.056 103.604C324.597 111.985 328.472 118.021 328.472 118.021C332.875 124.352 329.948 130.353 329.948 130.353C327.444 137.996 330.17 141.812 330.17 141.812C330.17 141.812 342.353 145.99 346.116 129.945C346.116 129.945 355 111.371 345.546 92.5063C345.546 92.5063 342.776 87.9537 342.722 82.4045C342.722 82.4045 344.754 60.6335 321.396 50.6491C321.396 50.6491 315.673 34.494 290.39 32.7671L289.753 32.8051C281.636 22.3454 264.581 23.7879 264.581 23.7879C242.707 24.2626 234.907 35.8304 234.907 35.8304C207.977 39.9363 203.989 57.6606 203.989 57.6606C181.988 70.3537 186.594 91.7284 186.594 91.7284C187.201 97.2446 184.993 102.094 184.993 102.094C177.851 121.95 188.883 139.335 188.883 139.335C194.526 154.821 206.128 149.219 206.128 149.219C206.128 149.219 208.38 145.106 204.985 137.816C204.985 137.816 201.364 132.203 204.982 125.396C204.982 125.396 208.113 118.942 204.672 110.913C204.672 110.913 209.814 107.181 211.832 99.1056C211.832 99.1056 224.242 94.6629 219.373 78.2095C219.373 78.2095 234.37 77.2215 231.487 56.7848C231.487 56.7848 231.589 54.9986 233.462 53.8676L234.359 53.4172L234.359 53.4145Z" fill="#908581" stroke="#1D1D1B" stroke-width="0.81388" stroke-miterlimit="10"/>
<path d="M210.103 187.887C210.103 187.887 200.384 175.422 205.056 165.359C205.056 165.359 207.615 158.659 206.127 149.219C206.127 149.219 204.511 153.92 202.033 147.29C202.033 147.29 201.764 146.289 199.851 146.749C199.851 146.749 198.53 147.474 197.274 143.503C197.274 143.503 194.116 134.764 188.349 138.902C188.349 138.902 184.919 141.142 188.066 154.323C188.066 154.323 188.952 157.556 189.276 162.994C189.276 162.994 188.53 172.197 198.163 183.189C198.163 183.189 200.817 185.805 200.917 189.039C200.917 189.039 201.132 193.76 204.707 194.919C206.009 195.342 207.45 195.166 208.625 194.46C210.071 193.591 211.628 191.728 210.1 187.89L210.103 187.887Z" fill="#F0C7C0" stroke="#1D1D1B" stroke-width="0.81388" stroke-miterlimit="10"/>
<path d="M237.287 151.177C240.353 150.994 242.69 148.36 242.507 145.294C242.324 142.228 239.69 139.891 236.624 140.074C233.558 140.257 231.22 142.891 231.404 145.957C231.587 149.023 234.221 151.36 237.287 151.177Z" fill="#8D7873" stroke="#1D1D1B" stroke-width="0.81388" stroke-miterlimit="10"/>
<path d="M237.11 148.812C238.829 148.71 240.139 147.233 240.036 145.515C239.933 143.796 238.457 142.487 236.739 142.589C235.02 142.692 233.71 144.168 233.813 145.887C233.915 147.605 235.392 148.915 237.11 148.812Z" fill="#1D1D1B"/>
<path d="M234.229 143.986C234.754 143.955 235.168 143.736 235.154 143.496C235.14 143.257 234.703 143.088 234.178 143.12C233.653 143.151 233.239 143.371 233.253 143.61C233.267 143.849 233.704 144.018 234.229 143.986Z" fill="white"/>
<path d="M240.644 149.072C241.087 148.655 241.284 148.145 241.084 147.932C240.884 147.719 240.362 147.884 239.919 148.301C239.476 148.718 239.279 149.228 239.479 149.441C239.679 149.654 240.2 149.489 240.644 149.072Z" fill="white"/>
<path d="M317.927 129.682C317.927 129.682 315.455 130.107 311.815 127.272C311.815 127.272 309.299 124.648 305.078 126.009C305.078 126.009 295.719 129.62 287.696 127.74C287.696 127.74 283.196 126.758 282.25 122.513C282.25 122.513 281.728 120.601 283.496 120.079C283.496 120.079 285.256 119.42 287.186 121.525C287.186 121.525 288.205 124.655 301.666 119.967C301.666 119.967 308.991 117.171 317.754 126.779C317.754 126.779 320.506 130.085 317.927 129.682Z" fill="#908581" stroke="#1D1D1B" stroke-width="0.81388" stroke-miterlimit="10"/>
<path d="M284.977 144.883C284.977 144.883 293.355 148.361 301.912 147.481C301.912 147.481 308.303 147.469 314.244 143.135C314.244 143.135 315.291 142.056 317.186 141.293C317.186 141.293 312.555 141.2 309.836 139.05C309.836 139.05 298.788 132.217 291.174 139.518C291.174 139.518 288.046 142.756 284.977 144.883Z" fill="white" stroke="#1D1D1B" stroke-width="0.81388" stroke-miterlimit="10"/>
<path d="M285.342 144.622C297.391 116.779 316.277 141.231 316.277 141.231C316.277 141.231 313.781 149.544 301.226 149.924C301.226 149.924 292.696 150.444 285.364 145.034L285.34 144.622L285.342 144.622Z" stroke="#1D1D1B" stroke-width="0.81388" stroke-miterlimit="10"/>
<path d="M317.906 144.025C317.906 144.025 315.614 145.921 315.374 149.636C315.374 149.636 315.399 153.152 310.97 154.895" stroke="#1D1D1B" stroke-width="0.81388" stroke-miterlimit="10"/>
<path d="M285.461 146.61C285.461 146.61 288.249 147.832 290.375 150.896C290.375 150.896 293.694 155.369 297.968 155.668" stroke="#1D1D1B" stroke-width="0.81388" stroke-miterlimit="10"/>
<path d="M294.327 132.834C294.327 132.834 286.254 137.681 284.221 132.22" stroke="#1D1D1B" stroke-width="0.81388" stroke-miterlimit="10"/>
<path d="M282.348 117.191C282.348 117.191 277.954 127.262 287.266 128.277" stroke="#1D1D1B" stroke-width="0.81388" stroke-miterlimit="10"/>
<path d="M278.402 111.505C278.402 111.505 276.282 117.83 277.587 122.655" stroke="#1D1D1B" stroke-width="0.81388" stroke-miterlimit="10"/>
<path d="M288.862 182.075C288.862 182.075 292.094 188.959 302.926 193.726C302.926 193.726 306.576 195.174 306.163 199.916" stroke="#1D1D1B" stroke-width="0.81388" stroke-miterlimit="10"/>
<path d="M298.728 210.628C298.728 210.628 299.6 207.385 296.024 206.764" stroke="#1D1D1B" stroke-width="0.81388" stroke-miterlimit="10"/>
<path d="M272.848 224.664C272.848 224.664 274.512 224.541 276.01 224.823" stroke="#1D1D1B" stroke-width="0.81388" stroke-miterlimit="10"/>
<path d="M275.832 228.797C274.658 228.573 274.102 228.549 273.088 228.675" stroke="#1D1D1B" stroke-width="0.81388" stroke-miterlimit="10"/>
<path d="M287.928 233.061C287.857 233.019 286.797 231.686 284.433 230.517" stroke="#1D1D1B" stroke-width="0.81388" stroke-miterlimit="10"/>
<path d="M330.828 180.677C330.828 180.677 338.994 167.144 333.158 157.709C333.158 157.709 329.819 151.361 330.173 141.812C330.173 141.812 332.337 146.286 334.008 139.408C334.008 139.408 334.156 138.383 336.11 138.611C336.11 138.611 337.508 139.175 338.283 135.082C338.283 135.082 340.378 126.029 346.597 129.451C346.597 129.451 350.269 131.268 348.713 144.729C348.713 144.729 348.218 148.045 348.543 153.482C348.543 153.482 350.38 162.532 342.123 174.592C342.123 174.592 339.8 177.505 340.085 180.728C340.085 180.728 340.434 185.441 337.022 187.017C335.779 187.592 334.328 187.589 333.077 187.028C331.538 186.337 329.77 184.673 330.831 180.68L330.828 180.677Z" fill="#F0C7C0" stroke="#1D1D1B" stroke-width="0.81388" stroke-miterlimit="10"/>
<path d="M299.468 147.464C302.534 147.281 304.871 144.647 304.688 141.581C304.505 138.514 301.871 136.177 298.805 136.36C295.738 136.544 293.401 139.178 293.584 142.244C293.768 145.31 296.402 147.647 299.468 147.464Z" fill="#8D7873" stroke="#1D1D1B" stroke-width="0.81388" stroke-miterlimit="10"/>
<path d="M299.361 145.095C301.08 144.992 302.39 143.516 302.287 141.797C302.185 140.079 300.708 138.769 298.99 138.871C297.271 138.974 295.961 140.45 296.064 142.169C296.167 143.887 297.643 145.197 299.361 145.095Z" fill="#1D1D1B"/>
<path d="M295.939 140.301C296.464 140.27 296.878 140.05 296.864 139.811C296.849 139.572 296.412 139.403 295.887 139.435C295.362 139.466 294.948 139.685 294.963 139.925C294.977 140.164 295.414 140.332 295.939 140.301Z" fill="white"/>
<path d="M302.35 145.386C302.793 144.969 302.99 144.459 302.79 144.246C302.59 144.033 302.068 144.199 301.625 144.615C301.182 145.032 300.985 145.542 301.185 145.755C301.385 145.968 301.907 145.803 302.35 145.386Z" fill="white"/>
<defs>
<clipPath id="clip0_224_2">
<rect width="216.533" height="248.318" fill="white" transform="translate(0 97.0754) rotate(-21.7037)"/>
</clipPath>
</defs>
</svg>
